<?xml version="1.0" standalone="no"?>
<!DOCTYPE svg PUBLIC "-//W3C//DTD SVG 20010904//EN"
 "http://www.w3.org/TR/2001/REC-SVG-20010904/DTD/svg10.dtd">
<svg version="1.0" xmlns="http://www.w3.org/2000/svg"
 width="260.000000pt" height="260.000000pt" viewBox="0 0 260.000000 260.000000"
 preserveAspectRatio="xMidYMid meet">
<metadata>
Created by potrace 1.14, written by Peter Selinger 2001-2017
</metadata>
<g transform="translate(0.000000,260.000000) scale(0.100000,-0.100000)"
fill="#000000" stroke="none">
<path d="M1135 2530 c-22 -5 -57 -11 -77 -14 -72 -11 -234 -69 -322 -114 -335
-172 -571 -484 -652 -862 -25 -116 -25 -362 0 -478 41 -192 124 -375 236 -518
174 -223 412 -378 687 -448 93 -24 121 -27 258 -32 112 -3 167 1 280 20 138
24 315 99 449 189 67 44 206 163 206 175 0 4 -35 7 -78 7 -138 1 -251 25 -369
80 -126 58 -222 139 -305 257 -45 64 -52 67 -123 64 -345 -17 -571 346 -413
659 28 55 124 148 184 177 43 22 63 29 124 45 34 9 148 5 190 -7 158 -43 278
-162 319 -316 20 -73 32 -148 37 -221 10 -156 88 -245 251 -289 76 -20 207
-20 276 0 165 48 251 216 242 471 -2 61 -7 121 -10 135 -7 26 -21 86 -31 129
-9 43 -67 184 -97 241 -62 113 -133 207 -221 296 -176 175 -383 286 -631 340
-87 18 -340 27 -410 14z"/>
</g>
</svg>
