<svg width="587" height="624" fill="none" xmlns="http://www.w3.org/2000/svg"><g filter="url(#filter0_dddddd_1_51)"><circle cx="165.227" cy="288.084" r="85.113" fill="#E3EDFD"/><circle cx="165.227" cy="288.084" r="70.669" fill="#fff"/><circle cx="165.227" cy="288.084" r="52.099" fill="#E3EDFD"/><circle cx="165.227" cy="288.084" r="33.529" fill="#fff"/><circle cx="165.227" cy="288.084" r="14.959" fill="#E3EDFD"/></g><mask id="a" style="mask-type:alpha" maskUnits="userSpaceOnUse" x="276" y="-1" width="298" height="270"><circle cx="278.922" cy="2.922" r="2.922" fill="#E3EDFD"/><circle cx="308.137" cy="2.921" r="2.922" fill="#E3EDFD"/><circle cx="337.353" cy="2.921" r="2.922" fill="#E3EDFD"/><circle cx="366.569" cy="2.921" r="2.922" fill="#E3EDFD"/><circle cx="395.784" cy="2.921" r="2.922" fill="#E3EDFD"/><circle cx="425" cy="2.921" r="2.922" fill="#E3EDFD"/><circle cx="454.216" cy="2.921" r="2.922" fill="#E3EDFD"/><circle cx="483.431" cy="2.921" r="2.922" fill="#E3EDFD"/><circle cx="512.647" cy="2.921" r="2.922" fill="#E3EDFD"/><circle cx="541.863" cy="2.921" r="2.922" fill="#E3EDFD"/><circle cx="571.078" cy="2.921" r="2.922" fill="#E3EDFD"/><circle cx="278.922" cy="32.137" r="2.922" fill="#E3EDFD"/><circle cx="308.137" cy="32.137" r="2.922" fill="#E3EDFD"/><circle cx="337.353" cy="32.137" r="2.922" fill="#E3EDFD"/><circle cx="366.569" cy="32.137" r="2.922" fill="#E3EDFD"/><circle cx="395.784" cy="32.137" r="2.922" fill="#E3EDFD"/><circle cx="425" cy="32.137" r="2.922" fill="#E3EDFD"/><circle cx="454.216" cy="32.137" r="2.922" fill="#E3EDFD"/><circle cx="483.431" cy="32.137" r="2.922" fill="#E3EDFD"/><circle cx="512.647" cy="32.137" r="2.922" fill="#E3EDFD"/><circle cx="541.863" cy="32.137" r="2.922" fill="#E3EDFD"/><circle cx="571.078" cy="32.137" r="2.922" fill="#E3EDFD"/><circle cx="278.922" cy="61.353" r="2.922" fill="#E3EDFD"/><circle cx="308.137" cy="61.353" r="2.922" fill="#E3EDFD"/><circle cx="337.353" cy="61.353" r="2.922" fill="#E3EDFD"/><circle cx="366.569" cy="61.353" r="2.922" fill="#E3EDFD"/><circle cx="395.784" cy="61.353" r="2.922" fill="#E3EDFD"/><circle cx="425" cy="61.353" r="2.922" fill="#E3EDFD"/><circle cx="454.216" cy="61.353" r="2.922" fill="#E3EDFD"/><circle cx="483.431" cy="61.353" r="2.922" fill="#E3EDFD"/><circle cx="512.647" cy="61.353" r="2.922" fill="#E3EDFD"/><circle cx="541.863" cy="61.353" r="2.922" fill="#E3EDFD"/><circle cx="571.078" cy="61.353" r="2.922" fill="#E3EDFD"/><circle cx="278.922" cy="90.569" r="2.922" fill="#E3EDFD"/><circle cx="308.137" cy="90.569" r="2.922" fill="#E3EDFD"/><circle cx="337.353" cy="90.569" r="2.922" fill="#E3EDFD"/><circle cx="366.569" cy="90.569" r="2.922" fill="#E3EDFD"/><circle cx="395.784" cy="90.569" r="2.922" fill="#E3EDFD"/><circle cx="425" cy="90.569" r="2.922" fill="#E3EDFD"/><circle cx="454.216" cy="90.569" r="2.922" fill="#E3EDFD"/><circle cx="483.431" cy="90.569" r="2.922" fill="#E3EDFD"/><circle cx="512.647" cy="90.569" r="2.922" fill="#E3EDFD"/><circle cx="541.863" cy="90.569" r="2.922" fill="#E3EDFD"/><circle cx="571.078" cy="90.569" r="2.922" fill="#E3EDFD"/><circle cx="278.922" cy="119.784" r="2.922" fill="#E3EDFD"/><circle cx="308.137" cy="119.784" r="2.922" fill="#E3EDFD"/><circle cx="337.353" cy="119.784" r="2.922" fill="#E3EDFD"/><circle cx="366.569" cy="119.784" r="2.922" fill="#E3EDFD"/><circle cx="395.784" cy="119.784" r="2.922" fill="#E3EDFD"/><circle cx="425" cy="119.784" r="2.922" fill="#E3EDFD"/><circle cx="454.216" cy="119.784" r="2.922" fill="#E3EDFD"/><circle cx="483.431" cy="119.784" r="2.922" fill="#E3EDFD"/><circle cx="512.647" cy="119.784" r="2.922" fill="#E3EDFD"/><circle cx="541.863" cy="119.784" r="2.922" fill="#E3EDFD"/><circle cx="571.078" cy="119.784" r="2.922" fill="#E3EDFD"/><circle cx="278.922" cy="149" r="2.922" fill="#E3EDFD"/><circle cx="308.137" cy="149" r="2.922" fill="#E3EDFD"/><circle cx="337.353" cy="149" r="2.922" fill="#E3EDFD"/><circle cx="366.569" cy="149" r="2.922" fill="#E3EDFD"/><circle cx="395.784" cy="149" r="2.922" fill="#E3EDFD"/><circle cx="425" cy="149" r="2.922" fill="#E3EDFD"/><circle cx="454.216" cy="149" r="2.922" fill="#E3EDFD"/><circle cx="483.431" cy="149" r="2.922" fill="#E3EDFD"/><circle cx="512.647" cy="149" r="2.922" fill="#E3EDFD"/><circle cx="541.863" cy="149" r="2.922" fill="#E3EDFD"/><circle cx="571.078" cy="149" r="2.922" fill="#E3EDFD"/><circle cx="278.922" cy="178.216" r="2.922" fill="#E3EDFD"/><circle cx="308.137" cy="178.216" r="2.922" fill="#E3EDFD"/><circle cx="337.353" cy="178.216" r="2.922" fill="#E3EDFD"/><circle cx="366.569" cy="178.216" r="2.922" fill="#E3EDFD"/><circle cx="395.784" cy="178.216" r="2.922" fill="#E3EDFD"/><circle cx="425" cy="178.216" r="2.922" fill="#E3EDFD"/><circle cx="454.216" cy="178.216" r="2.922" fill="#E3EDFD"/><circle cx="483.431" cy="178.216" r="2.922" fill="#E3EDFD"/><circle cx="512.647" cy="178.216" r="2.922" fill="#E3EDFD"/><circle cx="541.863" cy="178.216" r="2.922" fill="#E3EDFD"/><circle cx="571.078" cy="178.216" r="2.922" fill="#E3EDFD"/><circle cx="278.922" cy="207.431" r="2.922" fill="#E3EDFD"/><circle cx="308.137" cy="207.431" r="2.922" fill="#E3EDFD"/><circle cx="337.353" cy="207.431" r="2.922" fill="#E3EDFD"/><circle cx="366.569" cy="207.431" r="2.922" fill="#E3EDFD"/><circle cx="395.784" cy="207.431" r="2.922" fill="#E3EDFD"/><circle cx="425" cy="207.431" r="2.922" fill="#E3EDFD"/><circle cx="454.216" cy="207.431" r="2.922" fill="#E3EDFD"/><circle cx="483.431" cy="207.431" r="2.922" fill="#E3EDFD"/><circle cx="512.647" cy="207.431" r="2.922" fill="#E3EDFD"/><circle cx="541.863" cy="207.431" r="2.922" fill="#E3EDFD"/><circle cx="571.078" cy="207.431" r="2.922" fill="#E3EDFD"/><circle cx="278.922" cy="236.647" r="2.922" fill="#E3EDFD"/><circle cx="308.137" cy="236.647" r="2.922" fill="#E3EDFD"/><circle cx="337.353" cy="236.647" r="2.922" fill="#E3EDFD"/><circle cx="366.569" cy="236.647" r="2.922" fill="#E3EDFD"/><circle cx="395.784" cy="236.647" r="2.922" fill="#E3EDFD"/><circle cx="425" cy="236.647" r="2.922" fill="#E3EDFD"/><circle cx="454.216" cy="236.647" r="2.922" fill="#E3EDFD"/><circle cx="483.431" cy="236.647" r="2.922" fill="#E3EDFD"/><circle cx="512.647" cy="236.647" r="2.922" fill="#E3EDFD"/><circle cx="541.863" cy="236.647" r="2.922" fill="#E3EDFD"/><circle cx="571.078" cy="236.647" r="2.922" fill="#E3EDFD"/><circle cx="278.922" cy="265.863" r="2.922" fill="#E3EDFD"/><circle cx="308.137" cy="265.863" r="2.922" fill="#E3EDFD"/><circle cx="337.353" cy="265.863" r="2.922" fill="#E3EDFD"/><circle cx="366.569" cy="265.863" r="2.922" fill="#E3EDFD"/><circle cx="395.784" cy="265.863" r="2.922" fill="#E3EDFD"/><circle cx="425" cy="265.863" r="2.922" fill="#E3EDFD"/><circle cx="454.216" cy="265.863" r="2.922" fill="#E3EDFD"/><circle cx="483.431" cy="265.863" r="2.922" fill="#E3EDFD"/><circle cx="512.647" cy="265.863" r="2.922" fill="#E3EDFD"/><circle cx="541.863" cy="265.863" r="2.922" fill="#E3EDFD"/><circle cx="571.078" cy="265.863" r="2.922" fill="#E3EDFD"/></mask><g mask="url(#a)"><circle cx="432.897" cy="142.072" r="133.424" fill="#D6DEEC"/></g><g filter="url(#filter1_dddddd_1_51)"><circle cx="329.6" cy="266.4" r="174.429" fill="#E3EDFD"/><circle cx="329.6" cy="266.4" r="144.829" fill="#fff"/><circle cx="329.6" cy="266.4" r="106.771" fill="#E3EDFD"/><circle cx="329.6" cy="266.4" r="68.714" fill="#fff"/><circle cx="329.6" cy="266.4" r="30.657" fill="#E3EDFD"/></g><path opacity=".1" d="M325.893 263.767L202.743 386.84a175.923 175.923 0 0 0 7.312 7.474l123.234-123.156a5.22 5.22 0 0 0-1.653-8.597 5.233 5.233 0 0 0-5.743 1.206z" fill="#5577BD"/><g filter="url(#filter2_dddddd_1_51)"><path fill-rule="evenodd" clip-rule="evenodd" d="M460.686 444v-45.457l-45.457-45.457v45.457L460.686 444z" fill="#AFC9FF" fill-opacity=".47" filter="url(#filter3_b_1_51)"/><path fill-rule="evenodd" clip-rule="evenodd" d="M460.686 353.086h-45.457l45.457 45.457h45.457l-45.457-45.457z" fill="#AFC9FF" fill-opacity=".47" filter="url(#filter4_b_1_51)"/><path d="M466.001 408.057a5.246 5.246 0 0 1-3.721-1.537L327.871 272.098a5.251 5.251 0 0 1 .1-7.332 5.257 5.257 0 0 1 7.338-.093l134.413 134.418a5.255 5.255 0 0 1-3.721 8.966z" fill="#5577BD"/></g><defs><filter id="filter0_dddddd_1_51" x=".114" y="202.971" width="330.225" height="350.225" filterUnits="userSpaceOnUse" color-interpolation-filters="sRGB"><feFlood flood-opacity="0" result="BackgroundImageFix"/><feColorMatrix in="SourceAlpha" values="0 0 0 0 0 0 0 0 0 0 0 0 0 0 0 0 0 0 127 0" result="hardAlpha"/><feOffset dy="2.767"/><feGaussianBlur stdDeviation="1.107"/><feColorMatrix values="0 0 0 0 0.482353 0 0 0 0 0.529412 0 0 0 0 0.654902 0 0 0 0.0196802 0"/><feBlend in2="BackgroundImageFix" result="effect1_dropShadow_1_51"/><feColorMatrix in="SourceAlpha" values="0 0 0 0 0 0 0 0 0 0 0 0 0 0 0 0 0 0 127 0" result="hardAlpha"/><feOffset dy="6.65"/><feGaussianBlur stdDeviation="2.66"/><feColorMatrix values="0 0 0 0 0.482353 0 0 0 0 0.529412 0 0 0 0 0.654902 0 0 0 0.0282725 0"/><feBlend in2="effect1_dropShadow_1_51" result="effect2_dropShadow_1_51"/><feColorMatrix in="SourceAlpha" values="0 0 0 0 0 0 0 0 0 0 0 0 0 0 0 0 0 0 127 0" result="hardAlpha"/><feOffset dy="12.522"/><feGaussianBlur stdDeviation="5.009"/><feColorMatrix values="0 0 0 0 0.482353 0 0 0 0 0.529412 0 0 0 0 0.654902 0 0 0 0.035 0"/><feBlend in2="effect2_dropShadow_1_51" result="effect3_dropShadow_1_51"/><feColorMatrix in="SourceAlpha" values="0 0 0 0 0 0 0 0 0 0 0 0 0 0 0 0 0 0 127 0" result="hardAlpha"/><feOffset dy="22.336"/><feGaussianBlur stdDeviation="8.935"/><feColorMatrix values="0 0 0 0 0.482353 0 0 0 0 0.529412 0 0 0 0 0.654902 0 0 0 0.0417275 0"/><feBlend in2="effect3_dropShadow_1_51" result="effect4_dropShadow_1_51"/><feColorMatrix in="SourceAlpha" values="0 0 0 0 0 0 0 0 0 0 0 0 0 0 0 0 0 0 127 0" result="hardAlpha"/><feOffset dy="41.778"/><feGaussianBlur stdDeviation="16.711"/><feColorMatrix values="0 0 0 0 0.482353 0 0 0 0 0.529412 0 0 0 0 0.654902 0 0 0 0.0503198 0"/><feBlend in2="effect4_dropShadow_1_51" result="effect5_dropShadow_1_51"/><feColorMatrix in="SourceAlpha" values="0 0 0 0 0 0 0 0 0 0 0 0 0 0 0 0 0 0 127 0" result="hardAlpha"/><feOffset dy="100"/><feGaussianBlur stdDeviation="40"/><feColorMatrix values="0 0 0 0 0.482353 0 0 0 0 0.529412 0 0 0 0 0.654902 0 0 0 0.07 0"/><feBlend in2="effect5_dropShadow_1_51" result="effect6_dropShadow_1_51"/><feBlend in="SourceGraphic" in2="effect6_dropShadow_1_51" result="shape"/></filter><filter id="filter1_dddddd_1_51" x="75.171" y="91.971" width="508.857" height="528.857" filterUnits="userSpaceOnUse" color-interpolation-filters="sRGB"><feFlood flood-opacity="0" result="BackgroundImageFix"/><feColorMatrix in="SourceAlpha" values="0 0 0 0 0 0 0 0 0 0 0 0 0 0 0 0 0 0 127 0" result="hardAlpha"/><feOffset dy="2.767"/><feGaussianBlur stdDeviation="1.107"/><feColorMatrix values="0 0 0 0 0.482353 0 0 0 0 0.529412 0 0 0 0 0.654902 0 0 0 0.0196802 0"/><feBlend in2="BackgroundImageFix" result="effect1_dropShadow_1_51"/><feColorMatrix in="SourceAlpha" values="0 0 0 0 0 0 0 0 0 0 0 0 0 0 0 0 0 0 127 0" result="hardAlpha"/><feOffset dy="6.65"/><feGaussianBlur stdDeviation="2.66"/><feColorMatrix values="0 0 0 0 0.482353 0 0 0 0 0.529412 0 0 0 0 0.654902 0 0 0 0.0282725 0"/><feBlend in2="effect1_dropShadow_1_51" result="effect2_dropShadow_1_51"/><feColorMatrix in="SourceAlpha" values="0 0 0 0 0 0 0 0 0 0 0 0 0 0 0 0 0 0 127 0" result="hardAlpha"/><feOffset dy="12.522"/><feGaussianBlur stdDeviation="5.009"/><feColorMatrix values="0 0 0 0 0.482353 0 0 0 0 0.529412 0 0 0 0 0.654902 0 0 0 0.035 0"/><feBlend in2="effect2_dropShadow_1_51" result="effect3_dropShadow_1_51"/><feColorMatrix in="SourceAlpha" values="0 0 0 0 0 0 0 0 0 0 0 0 0 0 0 0 0 0 127 0" result="hardAlpha"/><feOffset dy="22.336"/><feGaussianBlur stdDeviation="8.935"/><feColorMatrix values="0 0 0 0 0.482353 0 0 0 0 0.529412 0 0 0 0 0.654902 0 0 0 0.0417275 0"/><feBlend in2="effect3_dropShadow_1_51" result="effect4_dropShadow_1_51"/><feColorMatrix in="SourceAlpha" values="0 0 0 0 0 0 0 0 0 0 0 0 0 0 0 0 0 0 127 0" result="hardAlpha"/><feOffset dy="41.778"/><feGaussianBlur stdDeviation="16.711"/><feColorMatrix values="0 0 0 0 0.482353 0 0 0 0 0.529412 0 0 0 0 0.654902 0 0 0 0.0503198 0"/><feBlend in2="effect4_dropShadow_1_51" result="effect5_dropShadow_1_51"/><feColorMatrix in="SourceAlpha" values="0 0 0 0 0 0 0 0 0 0 0 0 0 0 0 0 0 0 127 0" result="hardAlpha"/><feOffset dy="100"/><feGaussianBlur stdDeviation="40"/><feColorMatrix values="0 0 0 0 0.482353 0 0 0 0 0.529412 0 0 0 0 0.654902 0 0 0 0.07 0"/><feBlend in2="effect5_dropShadow_1_51" result="effect6_dropShadow_1_51"/><feBlend in="SourceGraphic" in2="effect6_dropShadow_1_51" result="shape"/></filter><filter id="filter2_dddddd_1_51" x="246.429" y="263.229" width="339.714" height="360.771" filterUnits="userSpaceOnUse" color-interpolation-filters="sRGB"><feFlood flood-opacity="0" result="BackgroundImageFix"/><feColorMatrix in="SourceAlpha" values="0 0 0 0 0 0 0 0 0 0 0 0 0 0 0 0 0 0 127 0" result="hardAlpha"/><feOffset dy="2.767"/><feGaussianBlur stdDeviation="1.107"/><feColorMatrix values="0 0 0 0 0.482353 0 0 0 0 0.529412 0 0 0 0 0.654902 0 0 0 0.0196802 0"/><feBlend in2="BackgroundImageFix" result="effect1_dropShadow_1_51"/><feColorMatrix in="SourceAlpha" values="0 0 0 0 0 0 0 0 0 0 0 0 0 0 0 0 0 0 127 0" result="hardAlpha"/><feOffset dy="6.65"/><feGaussianBlur stdDeviation="2.66"/><feColorMatrix values="0 0 0 0 0.482353 0 0 0 0 0.529412 0 0 0 0 0.654902 0 0 0 0.0282725 0"/><feBlend in2="effect1_dropShadow_1_51" result="effect2_dropShadow_1_51"/><feColorMatrix in="SourceAlpha" values="0 0 0 0 0 0 0 0 0 0 0 0 0 0 0 0 0 0 127 0" result="hardAlpha"/><feOffset dy="12.522"/><feGaussianBlur stdDeviation="5.009"/><feColorMatrix values="0 0 0 0 0.482353 0 0 0 0 0.529412 0 0 0 0 0.654902 0 0 0 0.035 0"/><feBlend in2="effect2_dropShadow_1_51" result="effect3_dropShadow_1_51"/><feColorMatrix in="SourceAlpha" values="0 0 0 0 0 0 0 0 0 0 0 0 0 0 0 0 0 0 127 0" result="hardAlpha"/><feOffset dy="22.336"/><feGaussianBlur stdDeviation="8.935"/><feColorMatrix values="0 0 0 0 0.482353 0 0 0 0 0.529412 0 0 0 0 0.654902 0 0 0 0.0417275 0"/><feBlend in2="effect3_dropShadow_1_51" result="effect4_dropShadow_1_51"/><feColorMatrix in="SourceAlpha" values="0 0 0 0 0 0 0 0 0 0 0 0 0 0 0 0 0 0 127 0" result="hardAlpha"/><feOffset dy="41.778"/><feGaussianBlur stdDeviation="16.711"/><feColorMatrix values="0 0 0 0 0.482353 0 0 0 0 0.529412 0 0 0 0 0.654902 0 0 0 0.0503198 0"/><feBlend in2="effect4_dropShadow_1_51" result="effect5_dropShadow_1_51"/><feColorMatrix in="SourceAlpha" values="0 0 0 0 0 0 0 0 0 0 0 0 0 0 0 0 0 0 127 0" result="hardAlpha"/><feOffset dy="100"/><feGaussianBlur stdDeviation="40"/><feColorMatrix values="0 0 0 0 0.482353 0 0 0 0 0.529412 0 0 0 0 0.654902 0 0 0 0.07 0"/><feBlend in2="effect5_dropShadow_1_51" result="effect6_dropShadow_1_51"/><feBlend in="SourceGraphic" in2="effect6_dropShadow_1_51" result="shape"/></filter><filter id="filter3_b_1_51" x="409.229" y="347.086" width="57.457" height="102.914" filterUnits="userSpaceOnUse" color-interpolation-filters="sRGB"><feFlood flood-opacity="0" result="BackgroundImageFix"/><feGaussianBlur in="BackgroundImage" stdDeviation="3"/><feComposite in2="SourceAlpha" operator="in" result="effect1_backgroundBlur_1_51"/><feBlend in="SourceGraphic" in2="effect1_backgroundBlur_1_51" result="shape"/></filter><filter id="filter4_b_1_51" x="409.229" y="347.086" width="102.914" height="57.457" filterUnits="userSpaceOnUse" color-interpolation-filters="sRGB"><feFlood flood-opacity="0" result="BackgroundImageFix"/><feGaussianBlur in="BackgroundImage" stdDeviation="3"/><feComposite in2="SourceAlpha" operator="in" result="effect1_backgroundBlur_1_51"/><feBlend in="SourceGraphic" in2="effect1_backgroundBlur_1_51" result="shape"/></filter></defs></svg>