<svg width="467" height="367" fill="none" xmlns="http://www.w3.org/2000/svg"><g filter="url(#filter0_dddddd_326_276)"><path d="M102.98 9.207a5 5 0 0 1 5-5h250.819a5 5 0 0 1 5 5v159.988H102.98V9.207z" fill="#0F2C46"/><path fill="#5096FF" d="M110.437 12.859H357.034V161.62300000000002H110.437z"/><path d="M80.404 169.194h306.662v9.864a7 7 0 0 1-7 7H87.404a7 7 0 0 1-7-7v-9.864z" fill="#C4C4C4"/></g><path d="M198.487 32.482c.12-.946.209-1.893.209-2.899s-.089-1.952-.209-2.899l6.303-4.881c.567-.444.717-1.243.358-1.893l-5.974-10.236c-.358-.651-1.165-.888-1.822-.651l-7.438 2.958a21.872 21.872 0 0 0-5.048-2.899l-1.135-7.84a1.439 1.439 0 0 0-.494-.894 1.467 1.467 0 0 0-.969-.348H170.32c-.747 0-1.374.533-1.464 1.243l-1.135 7.84c-1.822.739-3.495 1.745-5.048 2.898l-7.437-2.958a1.465 1.465 0 0 0-1.823.65L147.44 19.91c-.389.65-.21 1.449.358 1.893l6.302 4.881c-.119.947-.209 1.923-.209 2.9 0 .975.09 1.952.209 2.898l-6.302 4.881c-.568.444-.717 1.243-.358 1.894l5.973 10.235c.359.651 1.165.888 1.823.651l7.437-2.958a21.873 21.873 0 0 0 5.048 2.9l1.135 7.839c.09.71.717 1.242 1.464 1.242h11.948c.747 0 1.374-.532 1.463-1.242l1.135-7.84c1.822-.74 3.495-1.745 5.048-2.899l7.438 2.958c.687.267 1.464 0 1.822-.65l5.974-10.236c.359-.651.209-1.45-.358-1.894l-6.303-4.88zm-22.193 7.455c-5.765 0-10.455-4.644-10.455-10.354 0-5.71 4.69-10.354 10.455-10.354s10.454 4.645 10.454 10.354c0 5.71-4.689 10.354-10.454 10.354zM310.61 149.882c.081-.642.141-1.284.141-1.967 0-.682-.06-1.325-.141-1.967l4.24-3.312c.382-.302.482-.844.241-1.285l-4.019-6.946c-.241-.441-.783-.602-1.225-.441l-5.004 2.007a14.685 14.685 0 0 0-3.396-1.967l-.763-5.32a.983.983 0 0 0-.985-.843h-8.038a.979.979 0 0 0-.984.843l-.764 5.32c-1.226.502-2.351 1.184-3.396 1.967l-5.003-2.007a.981.981 0 0 0-1.226.441l-4.019 6.946a.99.99 0 0 0 .241 1.285l4.24 3.312c-.08.642-.14 1.305-.14 1.967 0 .663.06 1.325.14 1.967l-4.24 3.313a1.012 1.012 0 0 0-.241 1.284l4.019 6.946c.241.442.784.602 1.226.442l5.003-2.008a14.65 14.65 0 0 0 3.396 1.967l.764 5.32c.06.482.482.843.984.843h8.038a.98.98 0 0 0 .985-.843l.763-5.32c1.226-.501 2.351-1.184 3.396-1.967l5.004 2.008a.98.98 0 0 0 1.225-.442l4.019-6.946a1.011 1.011 0 0 0-.241-1.284l-4.24-3.313zm-14.93 5.059c-3.878 0-7.033-3.152-7.033-7.026 0-3.874 3.155-7.026 7.033-7.026 3.878 0 7.033 3.152 7.033 7.026 0 3.874-3.155 7.026-7.033 7.026z" fill="#AFC9FF"/><g filter="url(#filter1_dddddd_326_276)"><path d="M172.122 52.841h123.227v88.5a7.456 7.456 0 0 1-7.456 7.455H179.578a7.456 7.456 0 0 1-7.456-7.455v-88.5z" fill="#EDF1F8"/><path d="M295.349 52.841H172.122v-19.7a7.456 7.456 0 0 1 7.456-7.455h108.315a7.456 7.456 0 0 1 7.456 7.456v19.7z" fill="#0D36C7"/><circle cx="183.503" cy="38.971" r="2.796" fill="#fff"/><circle cx="192.823" cy="38.971" r="2.796" fill="#fff"/><circle cx="202.143" cy="38.971" r="2.796" fill="#fff"/><g clip-path="url(#clip0_326_276)" fill="#3B5998"><path d="M220.931 79.69h-1.586a1.003 1.003 0 0 0 0 2.005h1.586a1.003 1.003 0 1 0 0-2.005zm26.612 2.005h1.585a1.003 1.003 0 1 0 0-2.005h-1.585a1.003 1.003 0 1 0 0 2.005z"/><path d="M267.959 91.643c-.078-2.162-1.935-3.92-4.139-3.92h-11.921a4.043 4.043 0 0 0-2.877 1.192 4.04 4.04 0 0 0-1.192 2.876c0 1.006.371 1.973 1.045 2.72.877.976.959 2.628.18 3.614l-.048.06a3.611 3.611 0 0 1-3.355 1.302v-1.335a4.51 4.51 0 0 0-3.208-4.313v-1.955a5.794 5.794 0 0 1 5.787-5.789c1.37 0 2.608-.57 3.491-1.485l.12-.018a3.316 3.316 0 0 1 3.05 1.285 1.002 1.002 0 0 0 1.721-.213c.365-.855.496-1.8.379-2.73a5.323 5.323 0 0 0-4.903-4.638 4.853 4.853 0 0 0-3.858-1.91h-10.327a2.658 2.658 0 0 0-2.655 2.655c0 .709.276 1.376.777 1.877.223.223.478.4.756.53a15.448 15.448 0 0 0-3.045 4.95 15.466 15.466 0 0 0-3.045-4.95c.277-.13.533-.307.755-.53a2.636 2.636 0 0 0 .778-1.877 2.658 2.658 0 0 0-2.655-2.655h-10.328a4.85 4.85 0 0 0-3.856 1.91 5.324 5.324 0 0 0-4.919 4.638c-.116.93.015 1.875.379 2.73a1.003 1.003 0 0 0 1.722.213 3.317 3.317 0 0 1 3.187-1.264 4.84 4.84 0 0 0 3.488 1.482 5.794 5.794 0 0 1 5.787 5.789v1.955a4.51 4.51 0 0 0-3.209 4.312v1.335a3.608 3.608 0 0 1-3.356-1.301l-.048-.06c-.779-.985-.698-2.638.179-3.614a4.057 4.057 0 0 0 1.045-2.72 4.04 4.04 0 0 0-1.192-2.877 4.04 4.04 0 0 0-2.876-1.192h-4.259a1.003 1.003 0 1 0 0 2.006h4.26c.55 0 1.068.215 1.458.604.389.39.604.908.604 1.459 0 .51-.188.999-.53 1.379-1.547 1.72-1.657 4.45-.251 6.213l.015.018.014.018.015.019a5.587 5.587 0 0 0 4.922 2.071v5.828c-.46-.017-.944-.078-1.423-.083a5.256 5.256 0 0 0-4.275 2.206 2.062 2.062 0 0 1-2.871.564c-.937-.632-1.17-1.942-.518-2.919l.571-.856a1.002 1.002 0 0 0-1.39-1.391l-1.57 1.046a2.063 2.063 0 0 1-2.875-.591c-.613-.942-.324-2.234.644-2.88l1.107-.738a1.004 1.004 0 0 0-.8-1.806l-3.017.754a2.098 2.098 0 0 1-.505.063c-.957 0-1.803-.68-2.011-1.618-.241-1.08.468-2.186 1.579-2.464l3.181-.795a1.002 1.002 0 0 0-.243-1.976h-3.826a2.048 2.048 0 0 1-1.485-.63 2.048 2.048 0 0 1-.577-1.507c.04-1.096.998-1.988 2.136-1.988h3.65a1.003 1.003 0 1 0 0-2.005h-3.65c-2.242 0-4.06 1.722-4.14 3.921a4.04 4.04 0 0 0 1.138 2.971c.444.46.975.801 1.558 1.009-1.065.96-1.604 2.44-1.278 3.9a4.093 4.093 0 0 0 3.968 3.187c.182 0 .366-.012.549-.037-.483 1.197-.401 2.592.342 3.733a4.06 4.06 0 0 0 4.577 1.679c-.076 1.393.546 2.78 1.762 3.6a4.062 4.062 0 0 0 5.651-1.097 3.245 3.245 0 0 1 2.618-1.33c.48.015.967.07 1.423.086v.195c0 .295.021.587.057.875a5.305 5.305 0 0 0-3.933 5.136v3.466c0 1.523 1.085 2.812 2.506 3.086v.726l-3.966.991a3.784 3.784 0 0 0-3.91-1.203l-2.909-4.855a2.7 2.7 0 0 0 .561-1.647 2.72 2.72 0 0 0-2.717-2.717 2.72 2.72 0 0 0-2.717 2.717 2.72 2.72 0 0 0 2.717 2.718c.149 0 .294-.016.437-.039l2.908 4.854a3.764 3.764 0 0 0-1.052 2.619c0 1.011.394 1.962 1.109 2.68a3.765 3.765 0 0 0 2.68 1.109 3.777 3.777 0 0 0 2.073-.62c.097-.013.194-.032.288-.056l7.768-1.939a2.628 2.628 0 0 0 1.996-2.555v-2.781a3.052 3.052 0 0 0 1.61-.848 3.056 3.056 0 0 0 .898-2.171v-2.656c.213.019.427.03.644.03.336 0 .663.043.976.124l-2.844 9.424a3.142 3.142 0 0 0 5.2 3.157l1.536-1.497 1.536 1.497a3.141 3.141 0 0 0 2.192.891 3.114 3.114 0 0 0 2.522-1.268c.598-.806.775-1.82.485-2.781l-2.844-9.423c.313-.081.639-.124.975-.124a7.38 7.38 0 0 0 .956-.065v2.691a3.061 3.061 0 0 0 2.508 3.019v2.781c0 1.212.821 2.263 1.995 2.555l7.458 1.863a3.785 3.785 0 0 0 4.944-.358 3.772 3.772 0 0 0 .977-1.687 4.847 4.847 0 0 0 3.138-1.419 4.854 4.854 0 0 0 1.432-3.454 4.85 4.85 0 0 0-1.431-3.453 4.838 4.838 0 0 0-2.451-1.328v-1.155h.667a1.003 1.003 0 1 0 0-2.005h-.667v-.718a1.003 1.003 0 1 0-2.006 0v.718h-.667a1.002 1.002 0 0 0 0 2.005h.667v1.156a4.892 4.892 0 0 0-3.862 5.195c-.49.217-.933.535-1.294.937l-3.634-.908v-.726c1.422-.274 2.508-1.563 2.508-3.086v-3.467a5.327 5.327 0 0 0-4.237-5.207c.031-.266.049-.536.049-.808v-.191c.456-.016.941-.071 1.421-.085 1.034 0 2.012.497 2.618 1.33a4.061 4.061 0 0 0 3.376 1.794 4.04 4.04 0 0 0 2.274-.697c1.216-.82 1.839-2.208 1.763-3.6a4.073 4.073 0 0 0 4.578-1.68c.742-1.141.824-2.536.341-3.733.183.025.367.038.55.038a4.094 4.094 0 0 0 3.968-3.187c.325-1.46-.214-2.94-1.279-3.9a4.05 4.05 0 0 0 1.558-1.01 4.043 4.043 0 0 0 1.138-2.972zm-12.956-8.46l.015.155a5.343 5.343 0 0 0-2.127-.736 4.823 4.823 0 0 0 .148-2.036 3.315 3.315 0 0 1 1.964 2.618zm-15.606-1.488h3.132a1.003 1.003 0 1 0 0-2.005h-4.625a.645.645 0 0 1-.65-.65.65.65 0 0 1 .65-.65h10.327a2.853 2.853 0 0 1 2.851 2.85 2.854 2.854 0 0 1-2.851 2.85c-4.297 0-7.792 3.496-7.792 7.794v1.764h-5.699v-1.764c0-3.922 1.693-7.615 4.657-10.189zm-26.955 1.643l.015-.153a3.315 3.315 0 0 1 1.979-2.626 4.776 4.776 0 0 0 .146 2.04c-.759.091-1.49.344-2.14.74zm6.801.752a2.854 2.854 0 0 1-2.851-2.85 2.853 2.853 0 0 1 2.851-2.849h10.327a.65.65 0 0 1 .46 1.11.647.647 0 0 1-.46.188h-4.625a1.002 1.002 0 1 0 0 2.006h3.132a13.457 13.457 0 0 1 4.657 10.19v1.763h-5.699v-1.764c0-4.297-3.496-7.794-7.792-7.794zm-12.445 32.026a.712.712 0 1 1 1.425 0 .712.712 0 0 1-1.425 0zm16.438 9.379l-7.771 1.941a.65.65 0 0 1-.154.018.999.999 0 0 0-.619.215c-.154.12-.326.215-.509.28a1.775 1.775 0 0 1-1.852-.419 1.779 1.779 0 0 1-.523-1.263c0-.476.186-.924.522-1.261a1.783 1.783 0 0 1 2.838.426c.216.407.681.614 1.128.502l5.401-1.349c.446-.111.759-.512.759-.973v-1.815c.225-.12.437-.266.63-.442.188.172.399.319.626.44v3.091a.626.626 0 0 1-.476.609zm2.984-6.409c0 .285-.111.553-.312.754a1.067 1.067 0 0 1-1.821-.754 1.002 1.002 0 1 0-2.005 0c0 .288-.113.558-.319.76a1.055 1.055 0 0 1-.768.307c-.576-.011-1.045-.521-1.045-1.136v-3.466a3.304 3.304 0 0 1 2.467-3.204 6.848 6.848 0 0 0 1.485 2.118 7.014 7.014 0 0 0 2.318 1.494v3.127zm12.157 8.506a1.125 1.125 0 0 1-.911.459 1.145 1.145 0 0 1-.794-.322l-2.235-2.18a1.004 1.004 0 0 0-1.4 0l-2.234 2.179a1.136 1.136 0 0 1-1.881-1.141l2.706-8.969c.471.48.822 1.083.993 1.772a1.149 1.149 0 0 0 2.232 0 3.842 3.842 0 0 1 .993-1.772l2.706 8.968c.105.348.041.715-.175 1.006zm.224-13.138a5.86 5.86 0 0 0-4.864 2.583 5.864 5.864 0 0 0-4.867-2.583c-2.828-.001-5.043-2.16-5.043-4.914V98.15a2.5 2.5 0 0 1 2.497-2.496h14.825a2.5 2.5 0 0 1 2.498 2.498v11.384c0 2.755-2.216 4.916-5.046 4.918zm18.525 5.053c.769 0 1.492.299 2.036.844.544.543.843 1.266.843 2.035 0 .769-.299 1.492-.844 2.036-.47.47-1.075.757-1.728.826a3.78 3.78 0 0 0-.97-1.66 3.757 3.757 0 0 0-2.211-1.08c-.002-.04-.005-.081-.005-.122a2.883 2.883 0 0 1 2.879-2.879zm-5.995 6.339c.434.108.887-.084 1.111-.471.318-.55.909-.891 1.541-.891.478 0 .926.185 1.261.521.337.338.523.786.523 1.262 0 .477-.186.925-.522 1.262a1.773 1.773 0 0 1-1.262.522c-.429 0-.829-.148-1.156-.429a1.006 1.006 0 0 0-.409-.211l-7.671-1.916a.627.627 0 0 1-.475-.609v-3.09a3.1 3.1 0 0 0 .627-.44c.192.175.404.321.629.441v1.815c0 .46.313.861.759.973l5.044 1.261zm-3.295-10.295v3.466c0 .616-.47 1.125-1.046 1.136a1.073 1.073 0 0 1-.768-.306 1.063 1.063 0 0 1-.319-.761 1.003 1.003 0 1 0-2.005 0 1.069 1.069 0 0 1-1.821.756 1.065 1.065 0 0 1-.313-.756v-3.259a7.022 7.022 0 0 0 2.008-1.365 6.848 6.848 0 0 0 1.511-2.176 3.318 3.318 0 0 1 2.753 3.265zm17.542-22.328c-.393.406-.92.63-1.485.63h-3.826a1.002 1.002 0 0 0-.243 1.976l3.181.795c1.111.278 1.82 1.384 1.579 2.465a2.075 2.075 0 0 1-2.01 1.617c-.167 0-.337-.021-.503-.062l-3.02-.755a1.003 1.003 0 0 0-.8 1.807l1.107.737c.968.646 1.257 1.938.644 2.88a2.061 2.061 0 0 1-2.874.592l-1.57-1.047a1.004 1.004 0 0 0-1.391 1.391l.571.855c.652.978.419 2.288-.519 2.921a2.061 2.061 0 0 1-2.87-.565l-.02-.03a5.257 5.257 0 0 0-4.255-2.176c-.479.005-.962.066-1.421.083v-5.827a5.594 5.594 0 0 0 4.92-2.072l.015-.02.014-.016.015-.019c1.406-1.763 1.296-4.492-.252-6.214a2.056 2.056 0 0 1 .075-2.837 2.05 2.05 0 0 1 1.459-.604h11.921c1.137 0 2.095.892 2.135 1.987a2.049 2.049 0 0 1-.577 1.508z"/><path d="M242.309 108.769a1.002 1.002 0 1 0-2.005 0v.768c0 .883-.75 1.575-1.706 1.576a9.147 9.147 0 0 0-4.862 1.384 9.152 9.152 0 0 0-4.864-1.384c-.971-.001-1.703-.677-1.703-1.572V98.997h13.135v5.762a1.003 1.003 0 0 0 2.005 0v-6.606c0-.64-.52-1.162-1.16-1.162h-14.826c-.639 0-1.159.52-1.159 1.16v11.39c0 2.004 1.628 3.575 3.707 3.577 1.55 0 3.027.483 4.271 1.398a1.009 1.009 0 0 0 1.188 0 7.155 7.155 0 0 1 4.269-1.398c2.081-.002 3.711-1.575 3.711-3.581v-.768h-.001zm-16.354-33.72h15.563a1.003 1.003 0 1 0 0-2.005h-.319l.462-1.92a5.18 5.18 0 0 0-.975-4.441 5.18 5.18 0 0 0-4.091-1.985h-1.855v-2.087a1.003 1.003 0 0 0-2.006 0v2.087h-1.855a5.179 5.179 0 0 0-4.091 1.985 5.18 5.18 0 0 0-.975 4.442l.461 1.92h-.319a1.003 1.003 0 0 0 0 2.004zm9.463-8.345l-1.022 6.34h-1.319l-1.021-6.34h3.362zm3.693 1.22c.612.776.83 1.772.6 2.732l-.574 2.388h-2.709l1.003-6.23c.658.177 1.246.56 1.68 1.11zm-11.348 2.732a3.187 3.187 0 0 1 .6-2.732 3.18 3.18 0 0 1 1.68-1.11l1.003 6.23h-2.709l-.574-2.388z"/></g></g><defs><filter id="filter0_dddddd_326_276" x=".404" y="4.207" width="466.662" height="361.851" filterUnits="userSpaceOnUse" color-interpolation-filters="sRGB"><feFlood flood-opacity="0" result="BackgroundImageFix"/><feColorMatrix in="SourceAlpha" values="0 0 0 0 0 0 0 0 0 0 0 0 0 0 0 0 0 0 127 0" result="hardAlpha"/><feOffset dy="2.767"/><feGaussianBlur stdDeviation="1.107"/><feColorMatrix values="0 0 0 0 0.482353 0 0 0 0 0.529412 0 0 0 0 0.654902 0 0 0 0.0196802 0"/><feBlend in2="BackgroundImageFix" result="effect1_dropShadow_326_276"/><feColorMatrix in="SourceAlpha" values="0 0 0 0 0 0 0 0 0 0 0 0 0 0 0 0 0 0 127 0" result="hardAlpha"/><feOffset dy="6.65"/><feGaussianBlur stdDeviation="2.66"/><feColorMatrix values="0 0 0 0 0.482353 0 0 0 0 0.529412 0 0 0 0 0.654902 0 0 0 0.0282725 0"/><feBlend in2="effect1_dropShadow_326_276" result="effect2_dropShadow_326_276"/><feColorMatrix in="SourceAlpha" values="0 0 0 0 0 0 0 0 0 0 0 0 0 0 0 0 0 0 127 0" result="hardAlpha"/><feOffset dy="12.522"/><feGaussianBlur stdDeviation="5.009"/><feColorMatrix values="0 0 0 0 0.482353 0 0 0 0 0.529412 0 0 0 0 0.654902 0 0 0 0.035 0"/><feBlend in2="effect2_dropShadow_326_276" result="effect3_dropShadow_326_276"/><feColorMatrix in="SourceAlpha" values="0 0 0 0 0 0 0 0 0 0 0 0 0 0 0 0 0 0 127 0" result="hardAlpha"/><feOffset dy="22.336"/><feGaussianBlur stdDeviation="8.935"/><feColorMatrix values="0 0 0 0 0.482353 0 0 0 0 0.529412 0 0 0 0 0.654902 0 0 0 0.0417275 0"/><feBlend in2="effect3_dropShadow_326_276" result="effect4_dropShadow_326_276"/><feColorMatrix in="SourceAlpha" values="0 0 0 0 0 0 0 0 0 0 0 0 0 0 0 0 0 0 127 0" result="hardAlpha"/><feOffset dy="41.778"/><feGaussianBlur stdDeviation="16.711"/><feColorMatrix values="0 0 0 0 0.482353 0 0 0 0 0.529412 0 0 0 0 0.654902 0 0 0 0.0503198 0"/><feBlend in2="effect4_dropShadow_326_276" result="effect5_dropShadow_326_276"/><feColorMatrix in="SourceAlpha" values="0 0 0 0 0 0 0 0 0 0 0 0 0 0 0 0 0 0 127 0" result="hardAlpha"/><feOffset dy="100"/><feGaussianBlur stdDeviation="40"/><feColorMatrix values="0 0 0 0 0.482353 0 0 0 0 0.529412 0 0 0 0 0.654902 0 0 0 0.07 0"/><feBlend in2="effect5_dropShadow_326_276" result="effect6_dropShadow_326_276"/><feBlend in="SourceGraphic" in2="effect6_dropShadow_326_276" result="shape"/></filter><filter id="filter1_dddddd_326_276" x="92.122" y="25.686" width="283.227" height="303.11" filterUnits="userSpaceOnUse" color-interpolation-filters="sRGB"><feFlood flood-opacity="0" result="BackgroundImageFix"/><feColorMatrix in="SourceAlpha" values="0 0 0 0 0 0 0 0 0 0 0 0 0 0 0 0 0 0 127 0" result="hardAlpha"/><feOffset dy="2.767"/><feGaussianBlur stdDeviation="1.107"/><feColorMatrix values="0 0 0 0 0.482353 0 0 0 0 0.529412 0 0 0 0 0.654902 0 0 0 0.0196802 0"/><feBlend in2="BackgroundImageFix" result="effect1_dropShadow_326_276"/><feColorMatrix in="SourceAlpha" values="0 0 0 0 0 0 0 0 0 0 0 0 0 0 0 0 0 0 127 0" result="hardAlpha"/><feOffset dy="6.65"/><feGaussianBlur stdDeviation="2.66"/><feColorMatrix values="0 0 0 0 0.482353 0 0 0 0 0.529412 0 0 0 0 0.654902 0 0 0 0.0282725 0"/><feBlend in2="effect1_dropShadow_326_276" result="effect2_dropShadow_326_276"/><feColorMatrix in="SourceAlpha" values="0 0 0 0 0 0 0 0 0 0 0 0 0 0 0 0 0 0 127 0" result="hardAlpha"/><feOffset dy="12.522"/><feGaussianBlur stdDeviation="5.009"/><feColorMatrix values="0 0 0 0 0.482353 0 0 0 0 0.529412 0 0 0 0 0.654902 0 0 0 0.035 0"/><feBlend in2="effect2_dropShadow_326_276" result="effect3_dropShadow_326_276"/><feColorMatrix in="SourceAlpha" values="0 0 0 0 0 0 0 0 0 0 0 0 0 0 0 0 0 0 127 0" result="hardAlpha"/><feOffset dy="22.336"/><feGaussianBlur stdDeviation="8.935"/><feColorMatrix values="0 0 0 0 0.482353 0 0 0 0 0.529412 0 0 0 0 0.654902 0 0 0 0.0417275 0"/><feBlend in2="effect3_dropShadow_326_276" result="effect4_dropShadow_326_276"/><feColorMatrix in="SourceAlpha" values="0 0 0 0 0 0 0 0 0 0 0 0 0 0 0 0 0 0 127 0" result="hardAlpha"/><feOffset dy="41.778"/><feGaussianBlur stdDeviation="16.711"/><feColorMatrix values="0 0 0 0 0.482353 0 0 0 0 0.529412 0 0 0 0 0.654902 0 0 0 0.0503198 0"/><feBlend in2="effect4_dropShadow_326_276" result="effect5_dropShadow_326_276"/><feColorMatrix in="SourceAlpha" values="0 0 0 0 0 0 0 0 0 0 0 0 0 0 0 0 0 0 127 0" result="hardAlpha"/><feOffset dy="100"/><feGaussianBlur stdDeviation="40"/><feColorMatrix values="0 0 0 0 0.482353 0 0 0 0 0.529412 0 0 0 0 0.654902 0 0 0 0.07 0"/><feBlend in2="effect5_dropShadow_326_276" result="effect6_dropShadow_326_276"/><feBlend in="SourceGraphic" in2="effect6_dropShadow_326_276" result="shape"/></filter><clipPath id="clip0_326_276"><path fill="#fff" transform="translate(199.51 61.606)" d="M0 0H68.451V68.451H0z"/></clipPath></defs></svg>