<svg width="24" height="24" xmlns="http://www.w3.org/2000/svg"><path d="M9.712 18.188c5.66 0 8.757-4.69 8.757-8.75 0-.132 0-.265-.006-.396A6.267 6.267 0 0 0 20 7.446a6.242 6.242 0 0 1-1.77.486 3.095 3.095 0 0 0 1.356-1.704 6.124 6.124 0 0 1-1.957.744 3.08 3.08 0 0 0-5.246 2.807 8.742 8.742 0 0 1-6.344-3.215 3.083 3.083 0 0 0 .954 4.108A3.116 3.116 0 0 1 5.6 10.29v.042a3.083 3.083 0 0 0 2.468 3.017 3.006 3.006 0 0 1-.811.108 3.03 3.03 0 0 1-.576-.054 3.078 3.078 0 0 0 2.875 2.135A6.176 6.176 0 0 1 5 16.815a8.76 8.76 0 0 0 4.712 1.373z"/></svg>