<svg width="24" height="24" xmlns="http://www.w3.org/2000/svg"><path fill-rule="evenodd" clip-rule="evenodd" d="M19.555 8.588c.103-.338 0-.588-.494-.588h-1.629c-.415 0-.606.215-.71.453 0 0-.828 1.984-2.002 3.272-.38.374-.552.492-.76.492-.103 0-.259-.118-.259-.458V8.59c0-.408-.114-.589-.459-.589H10.68c-.259 0-.415.189-.415.368 0 .386.587.475.648 1.56v2.357c0 .517-.095.61-.303.61-.552 0-1.896-1.992-2.693-4.272C7.762 8.179 7.606 8 7.189 8H5.56C5.093 8 5 8.215 5 8.453c0 .423.552 2.526 2.573 5.308 1.347 1.899 3.243 2.928 4.97 2.928 1.036 0 1.164-.228 1.164-.622V14.63c0-.457.098-.548.426-.548.242 0 .656.119 1.623 1.034 1.105 1.086 1.287 1.572 1.909 1.572h1.63c.465 0 .698-.228.564-.68-.148-.45-.675-1.101-1.375-1.876-.38-.44-.95-.915-1.123-1.153-.241-.304-.172-.44 0-.712 0 0 1.987-2.747 2.193-3.68z"/></svg>