<svg width="587" height="624" viewBox="0 0 587 624" fill="none" xmlns="http://www.w3.org/2000/svg">
<g filter="url(#filter0_dddddd_1_51)">
<circle cx="165.227" cy="288.084" r="85.1127" fill="#E3EDFD"/>
<circle cx="165.227" cy="288.084" r="70.6694" fill="white"/>
<circle cx="165.227" cy="288.084" r="52.0993" fill="#E3EDFD"/>
<circle cx="165.227" cy="288.084" r="33.5293" fill="white"/>
<circle cx="165.227" cy="288.084" r="14.9592" fill="#E3EDFD"/>
</g>
<mask id="mask0_1_51" style="mask-type:alpha" maskUnits="userSpaceOnUse" x="276" y="-1" width="298" height="270">
<circle cx="278.922" cy="2.92157" r="2.92157" fill="#E3EDFD"/>
<circle cx="308.137" cy="2.92145" r="2.92157" fill="#E3EDFD"/>
<circle cx="337.353" cy="2.92145" r="2.92157" fill="#E3EDFD"/>
<circle cx="366.569" cy="2.92145" r="2.92157" fill="#E3EDFD"/>
<circle cx="395.784" cy="2.92145" r="2.92157" fill="#E3EDFD"/>
<circle cx="425" cy="2.92145" r="2.92157" fill="#E3EDFD"/>
<circle cx="454.216" cy="2.92145" r="2.92157" fill="#E3EDFD"/>
<circle cx="483.431" cy="2.92145" r="2.92157" fill="#E3EDFD"/>
<circle cx="512.647" cy="2.92145" r="2.92157" fill="#E3EDFD"/>
<circle cx="541.863" cy="2.92145" r="2.92157" fill="#E3EDFD"/>
<circle cx="571.078" cy="2.92145" r="2.92157" fill="#E3EDFD"/>
<circle cx="278.922" cy="32.1373" r="2.92157" fill="#E3EDFD"/>
<circle cx="308.137" cy="32.1373" r="2.92157" fill="#E3EDFD"/>
<circle cx="337.353" cy="32.1373" r="2.92157" fill="#E3EDFD"/>
<circle cx="366.569" cy="32.1373" r="2.92157" fill="#E3EDFD"/>
<circle cx="395.784" cy="32.1373" r="2.92157" fill="#E3EDFD"/>
<circle cx="425" cy="32.1373" r="2.92157" fill="#E3EDFD"/>
<circle cx="454.216" cy="32.1373" r="2.92157" fill="#E3EDFD"/>
<circle cx="483.431" cy="32.1373" r="2.92157" fill="#E3EDFD"/>
<circle cx="512.647" cy="32.1373" r="2.92157" fill="#E3EDFD"/>
<circle cx="541.863" cy="32.1373" r="2.92157" fill="#E3EDFD"/>
<circle cx="571.078" cy="32.1373" r="2.92157" fill="#E3EDFD"/>
<circle cx="278.922" cy="61.353" r="2.92157" fill="#E3EDFD"/>
<circle cx="308.137" cy="61.3528" r="2.92157" fill="#E3EDFD"/>
<circle cx="337.353" cy="61.3528" r="2.92157" fill="#E3EDFD"/>
<circle cx="366.569" cy="61.3528" r="2.92157" fill="#E3EDFD"/>
<circle cx="395.784" cy="61.3528" r="2.92157" fill="#E3EDFD"/>
<circle cx="425" cy="61.3528" r="2.92157" fill="#E3EDFD"/>
<circle cx="454.216" cy="61.3528" r="2.92157" fill="#E3EDFD"/>
<circle cx="483.431" cy="61.3528" r="2.92157" fill="#E3EDFD"/>
<circle cx="512.647" cy="61.3528" r="2.92157" fill="#E3EDFD"/>
<circle cx="541.863" cy="61.3528" r="2.92157" fill="#E3EDFD"/>
<circle cx="571.078" cy="61.3528" r="2.92157" fill="#E3EDFD"/>
<circle cx="278.922" cy="90.5687" r="2.92157" fill="#E3EDFD"/>
<circle cx="308.137" cy="90.5687" r="2.92157" fill="#E3EDFD"/>
<circle cx="337.353" cy="90.5687" r="2.92157" fill="#E3EDFD"/>
<circle cx="366.569" cy="90.5687" r="2.92157" fill="#E3EDFD"/>
<circle cx="395.784" cy="90.5687" r="2.92157" fill="#E3EDFD"/>
<circle cx="425" cy="90.5687" r="2.92157" fill="#E3EDFD"/>
<circle cx="454.216" cy="90.5687" r="2.92157" fill="#E3EDFD"/>
<circle cx="483.431" cy="90.5687" r="2.92157" fill="#E3EDFD"/>
<circle cx="512.647" cy="90.5687" r="2.92157" fill="#E3EDFD"/>
<circle cx="541.863" cy="90.5687" r="2.92157" fill="#E3EDFD"/>
<circle cx="571.078" cy="90.5687" r="2.92157" fill="#E3EDFD"/>
<circle cx="278.922" cy="119.784" r="2.92157" fill="#E3EDFD"/>
<circle cx="308.137" cy="119.784" r="2.92157" fill="#E3EDFD"/>
<circle cx="337.353" cy="119.784" r="2.92157" fill="#E3EDFD"/>
<circle cx="366.569" cy="119.784" r="2.92157" fill="#E3EDFD"/>
<circle cx="395.784" cy="119.784" r="2.92157" fill="#E3EDFD"/>
<circle cx="425" cy="119.784" r="2.92157" fill="#E3EDFD"/>
<circle cx="454.216" cy="119.784" r="2.92157" fill="#E3EDFD"/>
<circle cx="483.431" cy="119.784" r="2.92157" fill="#E3EDFD"/>
<circle cx="512.647" cy="119.784" r="2.92157" fill="#E3EDFD"/>
<circle cx="541.863" cy="119.784" r="2.92157" fill="#E3EDFD"/>
<circle cx="571.078" cy="119.784" r="2.92157" fill="#E3EDFD"/>
<circle cx="278.922" cy="149" r="2.92157" fill="#E3EDFD"/>
<circle cx="308.137" cy="149" r="2.92157" fill="#E3EDFD"/>
<circle cx="337.353" cy="149" r="2.92157" fill="#E3EDFD"/>
<circle cx="366.569" cy="149" r="2.92157" fill="#E3EDFD"/>
<circle cx="395.784" cy="149" r="2.92157" fill="#E3EDFD"/>
<circle cx="425" cy="149" r="2.92157" fill="#E3EDFD"/>
<circle cx="454.216" cy="149" r="2.92157" fill="#E3EDFD"/>
<circle cx="483.431" cy="149" r="2.92157" fill="#E3EDFD"/>
<circle cx="512.647" cy="149" r="2.92157" fill="#E3EDFD"/>
<circle cx="541.863" cy="149" r="2.92157" fill="#E3EDFD"/>
<circle cx="571.078" cy="149" r="2.92157" fill="#E3EDFD"/>
<circle cx="278.922" cy="178.216" r="2.92157" fill="#E3EDFD"/>
<circle cx="308.137" cy="178.216" r="2.92157" fill="#E3EDFD"/>
<circle cx="337.353" cy="178.216" r="2.92157" fill="#E3EDFD"/>
<circle cx="366.569" cy="178.216" r="2.92157" fill="#E3EDFD"/>
<circle cx="395.784" cy="178.216" r="2.92157" fill="#E3EDFD"/>
<circle cx="425" cy="178.216" r="2.92157" fill="#E3EDFD"/>
<circle cx="454.216" cy="178.216" r="2.92157" fill="#E3EDFD"/>
<circle cx="483.431" cy="178.216" r="2.92157" fill="#E3EDFD"/>
<circle cx="512.647" cy="178.216" r="2.92157" fill="#E3EDFD"/>
<circle cx="541.863" cy="178.216" r="2.92157" fill="#E3EDFD"/>
<circle cx="571.078" cy="178.216" r="2.92157" fill="#E3EDFD"/>
<circle cx="278.922" cy="207.431" r="2.92157" fill="#E3EDFD"/>
<circle cx="308.137" cy="207.431" r="2.92157" fill="#E3EDFD"/>
<circle cx="337.353" cy="207.431" r="2.92157" fill="#E3EDFD"/>
<circle cx="366.569" cy="207.431" r="2.92157" fill="#E3EDFD"/>
<circle cx="395.784" cy="207.431" r="2.92157" fill="#E3EDFD"/>
<circle cx="425" cy="207.431" r="2.92157" fill="#E3EDFD"/>
<circle cx="454.216" cy="207.431" r="2.92157" fill="#E3EDFD"/>
<circle cx="483.431" cy="207.431" r="2.92157" fill="#E3EDFD"/>
<circle cx="512.647" cy="207.431" r="2.92157" fill="#E3EDFD"/>
<circle cx="541.863" cy="207.431" r="2.92157" fill="#E3EDFD"/>
<circle cx="571.078" cy="207.431" r="2.92157" fill="#E3EDFD"/>
<circle cx="278.922" cy="236.647" r="2.92157" fill="#E3EDFD"/>
<circle cx="308.137" cy="236.647" r="2.92157" fill="#E3EDFD"/>
<circle cx="337.353" cy="236.647" r="2.92157" fill="#E3EDFD"/>
<circle cx="366.569" cy="236.647" r="2.92157" fill="#E3EDFD"/>
<circle cx="395.784" cy="236.647" r="2.92157" fill="#E3EDFD"/>
<circle cx="425" cy="236.647" r="2.92157" fill="#E3EDFD"/>
<circle cx="454.216" cy="236.647" r="2.92157" fill="#E3EDFD"/>
<circle cx="483.431" cy="236.647" r="2.92157" fill="#E3EDFD"/>
<circle cx="512.647" cy="236.647" r="2.92157" fill="#E3EDFD"/>
<circle cx="541.863" cy="236.647" r="2.92157" fill="#E3EDFD"/>
<circle cx="571.078" cy="236.647" r="2.92157" fill="#E3EDFD"/>
<circle cx="278.922" cy="265.863" r="2.92157" fill="#E3EDFD"/>
<circle cx="308.137" cy="265.863" r="2.92157" fill="#E3EDFD"/>
<circle cx="337.353" cy="265.863" r="2.92157" fill="#E3EDFD"/>
<circle cx="366.569" cy="265.863" r="2.92157" fill="#E3EDFD"/>
<circle cx="395.784" cy="265.863" r="2.92157" fill="#E3EDFD"/>
<circle cx="425" cy="265.863" r="2.92157" fill="#E3EDFD"/>
<circle cx="454.216" cy="265.863" r="2.92157" fill="#E3EDFD"/>
<circle cx="483.431" cy="265.863" r="2.92157" fill="#E3EDFD"/>
<circle cx="512.647" cy="265.863" r="2.92157" fill="#E3EDFD"/>
<circle cx="541.863" cy="265.863" r="2.92157" fill="#E3EDFD"/>
<circle cx="571.078" cy="265.863" r="2.92157" fill="#E3EDFD"/>
</mask>
<g mask="url(#mask0_1_51)">
<circle cx="432.897" cy="142.072" r="133.424" fill="#D6DEEC"/>
</g>
<g filter="url(#filter1_dddddd_1_51)">
<circle cx="329.6" cy="266.4" r="174.429" fill="#E3EDFD"/>
<circle cx="329.6" cy="266.4" r="144.829" fill="white"/>
<circle cx="329.6" cy="266.4" r="106.771" fill="#E3EDFD"/>
<circle cx="329.6" cy="266.4" r="68.7143" fill="white"/>
<circle cx="329.6" cy="266.4" r="30.6571" fill="#E3EDFD"/>
</g>
<path opacity="0.1" d="M325.893 263.767L202.743 386.84C205.106 389.403 207.544 391.896 210.055 394.314L333.289 271.158C333.789 270.676 334.187 270.099 334.461 269.461C334.735 268.824 334.88 268.138 334.886 267.444C334.892 266.75 334.759 266.062 334.496 265.419C334.233 264.777 333.845 264.193 333.354 263.702C332.863 263.212 332.279 262.823 331.636 262.561C330.993 262.298 330.304 262.166 329.61 262.172C328.915 262.178 328.229 262.322 327.591 262.596C326.953 262.87 326.376 263.268 325.893 263.767Z" fill="#5577BD"/>
<g filter="url(#filter2_dddddd_1_51)">
<g filter="url(#filter3_b_1_51)">
<path fill-rule="evenodd" clip-rule="evenodd" d="M460.686 444V398.543L415.229 353.086V398.543L460.686 444Z" fill="#AFC9FF" fill-opacity="0.47"/>
</g>
<g filter="url(#filter4_b_1_51)">
<path fill-rule="evenodd" clip-rule="evenodd" d="M460.686 353.086H415.229L460.686 398.543H506.143L460.686 353.086Z" fill="#AFC9FF" fill-opacity="0.47"/>
</g>
<path d="M466.001 408.057C464.655 408.057 463.306 407.546 462.28 406.52L327.871 272.098C326.928 271.104 326.41 269.781 326.429 268.412C326.448 267.042 327.001 265.734 327.971 264.766C328.94 263.798 330.25 263.246 331.621 263.229C332.992 263.212 334.315 263.73 335.309 264.673L469.722 399.091C470.456 399.826 470.955 400.763 471.157 401.781C471.359 402.8 471.254 403.856 470.856 404.815C470.458 405.774 469.784 406.594 468.92 407.171C468.056 407.748 467.04 408.057 466.001 408.057Z" fill="#5577BD"/>
</g>
<defs>
<filter id="filter0_dddddd_1_51" x="0.114258" y="202.971" width="330.225" height="350.225" filterUnits="userSpaceOnUse" color-interpolation-filters="sRGB">
<feFlood flood-opacity="0" result="BackgroundImageFix"/>
<feColorMatrix in="SourceAlpha" type="matrix" values="0 0 0 0 0 0 0 0 0 0 0 0 0 0 0 0 0 0 127 0" result="hardAlpha"/>
<feOffset dy="2.76726"/>
<feGaussianBlur stdDeviation="1.1069"/>
<feColorMatrix type="matrix" values="0 0 0 0 0.482353 0 0 0 0 0.529412 0 0 0 0 0.654902 0 0 0 0.0196802 0"/>
<feBlend mode="normal" in2="BackgroundImageFix" result="effect1_dropShadow_1_51"/>
<feColorMatrix in="SourceAlpha" type="matrix" values="0 0 0 0 0 0 0 0 0 0 0 0 0 0 0 0 0 0 127 0" result="hardAlpha"/>
<feOffset dy="6.6501"/>
<feGaussianBlur stdDeviation="2.66004"/>
<feColorMatrix type="matrix" values="0 0 0 0 0.482353 0 0 0 0 0.529412 0 0 0 0 0.654902 0 0 0 0.0282725 0"/>
<feBlend mode="normal" in2="effect1_dropShadow_1_51" result="effect2_dropShadow_1_51"/>
<feColorMatrix in="SourceAlpha" type="matrix" values="0 0 0 0 0 0 0 0 0 0 0 0 0 0 0 0 0 0 127 0" result="hardAlpha"/>
<feOffset dy="12.5216"/>
<feGaussianBlur stdDeviation="5.00862"/>
<feColorMatrix type="matrix" values="0 0 0 0 0.482353 0 0 0 0 0.529412 0 0 0 0 0.654902 0 0 0 0.035 0"/>
<feBlend mode="normal" in2="effect2_dropShadow_1_51" result="effect3_dropShadow_1_51"/>
<feColorMatrix in="SourceAlpha" type="matrix" values="0 0 0 0 0 0 0 0 0 0 0 0 0 0 0 0 0 0 127 0" result="hardAlpha"/>
<feOffset dy="22.3363"/>
<feGaussianBlur stdDeviation="8.93452"/>
<feColorMatrix type="matrix" values="0 0 0 0 0.482353 0 0 0 0 0.529412 0 0 0 0 0.654902 0 0 0 0.0417275 0"/>
<feBlend mode="normal" in2="effect3_dropShadow_1_51" result="effect4_dropShadow_1_51"/>
<feColorMatrix in="SourceAlpha" type="matrix" values="0 0 0 0 0 0 0 0 0 0 0 0 0 0 0 0 0 0 127 0" result="hardAlpha"/>
<feOffset dy="41.7776"/>
<feGaussianBlur stdDeviation="16.711"/>
<feColorMatrix type="matrix" values="0 0 0 0 0.482353 0 0 0 0 0.529412 0 0 0 0 0.654902 0 0 0 0.0503198 0"/>
<feBlend mode="normal" in2="effect4_dropShadow_1_51" result="effect5_dropShadow_1_51"/>
<feColorMatrix in="SourceAlpha" type="matrix" values="0 0 0 0 0 0 0 0 0 0 0 0 0 0 0 0 0 0 127 0" result="hardAlpha"/>
<feOffset dy="100"/>
<feGaussianBlur stdDeviation="40"/>
<feColorMatrix type="matrix" values="0 0 0 0 0.482353 0 0 0 0 0.529412 0 0 0 0 0.654902 0 0 0 0.07 0"/>
<feBlend mode="normal" in2="effect5_dropShadow_1_51" result="effect6_dropShadow_1_51"/>
<feBlend mode="normal" in="SourceGraphic" in2="effect6_dropShadow_1_51" result="shape"/>
</filter>
<filter id="filter1_dddddd_1_51" x="75.1714" y="91.9714" width="508.857" height="528.857" filterUnits="userSpaceOnUse" color-interpolation-filters="sRGB">
<feFlood flood-opacity="0" result="BackgroundImageFix"/>
<feColorMatrix in="SourceAlpha" type="matrix" values="0 0 0 0 0 0 0 0 0 0 0 0 0 0 0 0 0 0 127 0" result="hardAlpha"/>
<feOffset dy="2.76726"/>
<feGaussianBlur stdDeviation="1.1069"/>
<feColorMatrix type="matrix" values="0 0 0 0 0.482353 0 0 0 0 0.529412 0 0 0 0 0.654902 0 0 0 0.0196802 0"/>
<feBlend mode="normal" in2="BackgroundImageFix" result="effect1_dropShadow_1_51"/>
<feColorMatrix in="SourceAlpha" type="matrix" values="0 0 0 0 0 0 0 0 0 0 0 0 0 0 0 0 0 0 127 0" result="hardAlpha"/>
<feOffset dy="6.6501"/>
<feGaussianBlur stdDeviation="2.66004"/>
<feColorMatrix type="matrix" values="0 0 0 0 0.482353 0 0 0 0 0.529412 0 0 0 0 0.654902 0 0 0 0.0282725 0"/>
<feBlend mode="normal" in2="effect1_dropShadow_1_51" result="effect2_dropShadow_1_51"/>
<feColorMatrix in="SourceAlpha" type="matrix" values="0 0 0 0 0 0 0 0 0 0 0 0 0 0 0 0 0 0 127 0" result="hardAlpha"/>
<feOffset dy="12.5216"/>
<feGaussianBlur stdDeviation="5.00862"/>
<feColorMatrix type="matrix" values="0 0 0 0 0.482353 0 0 0 0 0.529412 0 0 0 0 0.654902 0 0 0 0.035 0"/>
<feBlend mode="normal" in2="effect2_dropShadow_1_51" result="effect3_dropShadow_1_51"/>
<feColorMatrix in="SourceAlpha" type="matrix" values="0 0 0 0 0 0 0 0 0 0 0 0 0 0 0 0 0 0 127 0" result="hardAlpha"/>
<feOffset dy="22.3363"/>
<feGaussianBlur stdDeviation="8.93452"/>
<feColorMatrix type="matrix" values="0 0 0 0 0.482353 0 0 0 0 0.529412 0 0 0 0 0.654902 0 0 0 0.0417275 0"/>
<feBlend mode="normal" in2="effect3_dropShadow_1_51" result="effect4_dropShadow_1_51"/>
<feColorMatrix in="SourceAlpha" type="matrix" values="0 0 0 0 0 0 0 0 0 0 0 0 0 0 0 0 0 0 127 0" result="hardAlpha"/>
<feOffset dy="41.7776"/>
<feGaussianBlur stdDeviation="16.711"/>
<feColorMatrix type="matrix" values="0 0 0 0 0.482353 0 0 0 0 0.529412 0 0 0 0 0.654902 0 0 0 0.0503198 0"/>
<feBlend mode="normal" in2="effect4_dropShadow_1_51" result="effect5_dropShadow_1_51"/>
<feColorMatrix in="SourceAlpha" type="matrix" values="0 0 0 0 0 0 0 0 0 0 0 0 0 0 0 0 0 0 127 0" result="hardAlpha"/>
<feOffset dy="100"/>
<feGaussianBlur stdDeviation="40"/>
<feColorMatrix type="matrix" values="0 0 0 0 0.482353 0 0 0 0 0.529412 0 0 0 0 0.654902 0 0 0 0.07 0"/>
<feBlend mode="normal" in2="effect5_dropShadow_1_51" result="effect6_dropShadow_1_51"/>
<feBlend mode="normal" in="SourceGraphic" in2="effect6_dropShadow_1_51" result="shape"/>
</filter>
<filter id="filter2_dddddd_1_51" x="246.429" y="263.229" width="339.714" height="360.771" filterUnits="userSpaceOnUse" color-interpolation-filters="sRGB">
<feFlood flood-opacity="0" result="BackgroundImageFix"/>
<feColorMatrix in="SourceAlpha" type="matrix" values="0 0 0 0 0 0 0 0 0 0 0 0 0 0 0 0 0 0 127 0" result="hardAlpha"/>
<feOffset dy="2.76726"/>
<feGaussianBlur stdDeviation="1.1069"/>
<feColorMatrix type="matrix" values="0 0 0 0 0.482353 0 0 0 0 0.529412 0 0 0 0 0.654902 0 0 0 0.0196802 0"/>
<feBlend mode="normal" in2="BackgroundImageFix" result="effect1_dropShadow_1_51"/>
<feColorMatrix in="SourceAlpha" type="matrix" values="0 0 0 0 0 0 0 0 0 0 0 0 0 0 0 0 0 0 127 0" result="hardAlpha"/>
<feOffset dy="6.6501"/>
<feGaussianBlur stdDeviation="2.66004"/>
<feColorMatrix type="matrix" values="0 0 0 0 0.482353 0 0 0 0 0.529412 0 0 0 0 0.654902 0 0 0 0.0282725 0"/>
<feBlend mode="normal" in2="effect1_dropShadow_1_51" result="effect2_dropShadow_1_51"/>
<feColorMatrix in="SourceAlpha" type="matrix" values="0 0 0 0 0 0 0 0 0 0 0 0 0 0 0 0 0 0 127 0" result="hardAlpha"/>
<feOffset dy="12.5216"/>
<feGaussianBlur stdDeviation="5.00862"/>
<feColorMatrix type="matrix" values="0 0 0 0 0.482353 0 0 0 0 0.529412 0 0 0 0 0.654902 0 0 0 0.035 0"/>
<feBlend mode="normal" in2="effect2_dropShadow_1_51" result="effect3_dropShadow_1_51"/>
<feColorMatrix in="SourceAlpha" type="matrix" values="0 0 0 0 0 0 0 0 0 0 0 0 0 0 0 0 0 0 127 0" result="hardAlpha"/>
<feOffset dy="22.3363"/>
<feGaussianBlur stdDeviation="8.93452"/>
<feColorMatrix type="matrix" values="0 0 0 0 0.482353 0 0 0 0 0.529412 0 0 0 0 0.654902 0 0 0 0.0417275 0"/>
<feBlend mode="normal" in2="effect3_dropShadow_1_51" result="effect4_dropShadow_1_51"/>
<feColorMatrix in="SourceAlpha" type="matrix" values="0 0 0 0 0 0 0 0 0 0 0 0 0 0 0 0 0 0 127 0" result="hardAlpha"/>
<feOffset dy="41.7776"/>
<feGaussianBlur stdDeviation="16.711"/>
<feColorMatrix type="matrix" values="0 0 0 0 0.482353 0 0 0 0 0.529412 0 0 0 0 0.654902 0 0 0 0.0503198 0"/>
<feBlend mode="normal" in2="effect4_dropShadow_1_51" result="effect5_dropShadow_1_51"/>
<feColorMatrix in="SourceAlpha" type="matrix" values="0 0 0 0 0 0 0 0 0 0 0 0 0 0 0 0 0 0 127 0" result="hardAlpha"/>
<feOffset dy="100"/>
<feGaussianBlur stdDeviation="40"/>
<feColorMatrix type="matrix" values="0 0 0 0 0.482353 0 0 0 0 0.529412 0 0 0 0 0.654902 0 0 0 0.07 0"/>
<feBlend mode="normal" in2="effect5_dropShadow_1_51" result="effect6_dropShadow_1_51"/>
<feBlend mode="normal" in="SourceGraphic" in2="effect6_dropShadow_1_51" result="shape"/>
</filter>
<filter id="filter3_b_1_51" x="409.229" y="347.086" width="57.4571" height="102.914" filterUnits="userSpaceOnUse" color-interpolation-filters="sRGB">
<feFlood flood-opacity="0" result="BackgroundImageFix"/>
<feGaussianBlur in="BackgroundImage" stdDeviation="3"/>
<feComposite in2="SourceAlpha" operator="in" result="effect1_backgroundBlur_1_51"/>
<feBlend mode="normal" in="SourceGraphic" in2="effect1_backgroundBlur_1_51" result="shape"/>
</filter>
<filter id="filter4_b_1_51" x="409.229" y="347.086" width="102.914" height="57.4572" filterUnits="userSpaceOnUse" color-interpolation-filters="sRGB">
<feFlood flood-opacity="0" result="BackgroundImageFix"/>
<feGaussianBlur in="BackgroundImage" stdDeviation="3"/>
<feComposite in2="SourceAlpha" operator="in" result="effect1_backgroundBlur_1_51"/>
<feBlend mode="normal" in="SourceGraphic" in2="effect1_backgroundBlur_1_51" result="shape"/>
</filter>
</defs>
</svg>
