<svg width="560" height="367" fill="none" xmlns="http://www.w3.org/2000/svg"><rect x=".768" y="30.194" width="101.208" height="120.755" rx="5" fill="#4D5769"/><g clip-path="url(#clip0_0_1)" fill="#fff"><path d="M40.856 73.217h-1.302a.824.824 0 1 0 0 1.647h1.302a.824.824 0 1 0 0-1.647zm21.856 1.647h1.303a.824.824 0 0 0 0-1.647h-1.303a.824.824 0 0 0 0 1.647z"/><path d="M79.48 83.035c-.064-1.776-1.589-3.22-3.4-3.22h-9.79a3.32 3.32 0 0 0-2.363.979 3.32 3.32 0 0 0-.978 2.362c0 .827.305 1.62.857 2.234.721.802.788 2.159.149 2.969a2.965 2.965 0 0 1-2.795 1.118V88.38a3.705 3.705 0 0 0-2.635-3.543v-1.605a4.76 4.76 0 0 1 4.753-4.755 3.976 3.976 0 0 0 2.867-1.22 2.723 2.723 0 0 1 2.603 1.04.824.824 0 0 0 1.414-.174 4.35 4.35 0 0 0 .311-2.243 4.372 4.372 0 0 0-4.027-3.808 3.984 3.984 0 0 0-3.168-1.57h-8.482a2.183 2.183 0 0 0-1.542 3.723c.183.183.392.33.62.435a12.695 12.695 0 0 0-2.5 4.066 12.699 12.699 0 0 0-2.501-4.066c.227-.106.437-.252.62-.435.412-.412.639-.96.639-1.542 0-1.202-.979-2.18-2.181-2.18h-8.482c-1.29 0-2.438.615-3.168 1.568a4.373 4.373 0 0 0-4.04 3.81c-.095.764.012 1.54.311 2.242a.823.823 0 0 0 1.415.175 2.725 2.725 0 0 1 2.617-1.039 3.975 3.975 0 0 0 2.865 1.218 4.76 4.76 0 0 1 4.753 4.755v1.605a3.704 3.704 0 0 0-2.635 3.542v1.097a2.964 2.964 0 0 1-2.796-1.118c-.64-.81-.573-2.167.147-2.969a3.332 3.332 0 0 0 .858-2.234c0-.892-.347-1.731-.978-2.362a3.319 3.319 0 0 0-2.363-.98h-3.498a.824.824 0 0 0 0 1.648h3.498c.453 0 .878.176 1.198.496a1.688 1.688 0 0 1 .061 2.33c-1.27 1.414-1.361 3.656-.206 5.104l.012.015.012.014.012.016a4.59 4.59 0 0 0 4.043 1.7v4.788c-.378-.014-.776-.064-1.169-.069a4.315 4.315 0 0 0-3.495 1.788l-.016.024a1.693 1.693 0 0 1-2.358.464c-.77-.52-.96-1.595-.426-2.398l.47-.703a.824.824 0 0 0-1.143-1.142l-1.289.859a1.693 1.693 0 0 1-2.36-.486c-.505-.773-.267-1.835.528-2.365l.909-.606a.823.823 0 0 0-.657-1.484l-2.478.62a1.737 1.737 0 0 1-.415.051c-.786 0-1.48-.558-1.651-1.328-.198-.888.384-1.796 1.296-2.024l2.613-.653a.824.824 0 0 0-.2-1.623h-3.142a1.68 1.68 0 0 1-1.22-.518 1.682 1.682 0 0 1-.474-1.237c.033-.9.82-1.633 1.755-1.633h2.998a.824.824 0 1 0 0-1.647h-2.998c-1.841 0-3.335 1.414-3.4 3.22-.033.916.3 1.783.935 2.441.364.378.8.658 1.279.828-.875.79-1.317 2.005-1.05 3.204a3.362 3.362 0 0 0 3.259 2.618c.15 0 .3-.01.451-.032a3.328 3.328 0 0 0 .28 3.067 3.335 3.335 0 0 0 3.76 1.379c-.062 1.143.449 2.283 1.448 2.956a3.32 3.32 0 0 0 1.868.573c1.115 0 2.15-.55 2.773-1.473a2.664 2.664 0 0 1 2.15-1.093c.394.012.794.058 1.169.07v.16c0 .243.017.483.047.72-1.872.5-3.231 2.199-3.231 4.218v2.847c0 1.251.891 2.309 2.059 2.534v.596l-3.258.814a3.108 3.108 0 0 0-3.212-.988l-2.388-3.987c.287-.376.46-.844.46-1.353a2.234 2.234 0 0 0-2.231-2.231 2.234 2.234 0 0 0-2.232 2.231 2.234 2.234 0 0 0 2.59 2.201l2.389 3.986a3.095 3.095 0 0 0-.864 2.151c0 .831.323 1.612.91 2.201a3.09 3.09 0 0 0 2.202.911 3.106 3.106 0 0 0 1.703-.509c.08-.011.159-.026.236-.046l6.38-1.593a2.157 2.157 0 0 0 1.64-2.098v-2.284c.497-.092.956-.33 1.322-.696a2.513 2.513 0 0 0 .737-1.784v-2.181c.175.015.351.024.529.024.276 0 .545.036.802.103l-2.335 7.739a2.581 2.581 0 0 0 4.27 2.593l1.261-1.229 1.262 1.229a2.586 2.586 0 0 0 1.8.732c.825 0 1.58-.379 2.071-1.041a2.558 2.558 0 0 0 .4-2.284l-2.337-7.74a3.21 3.21 0 0 1 .8-.102c.266 0 .528-.019.786-.053v2.21a2.514 2.514 0 0 0 2.06 2.48v2.284c0 .996.674 1.858 1.639 2.098l6.125 1.53a3.107 3.107 0 0 0 4.06-.294c.39-.39.663-.867.803-1.385a3.984 3.984 0 0 0 2.578-1.166 3.985 3.985 0 0 0 1.175-2.836 3.98 3.98 0 0 0-1.175-2.836 3.977 3.977 0 0 0-2.013-1.091v-.949h.548a.824.824 0 0 0 0-1.647h-.548v-.589a.824.824 0 1 0-1.647 0v.589h-.548a.824.824 0 0 0 0 1.647h.548v.949a4.019 4.019 0 0 0-3.172 4.268 3.124 3.124 0 0 0-1.063.769l-2.985-.746v-.596c1.168-.225 2.06-1.284 2.06-2.535v-2.847a4.375 4.375 0 0 0-3.48-4.277c.026-.219.04-.44.04-.663v-.157c.375-.013.773-.058 1.167-.07.85 0 1.653.408 2.15 1.092a3.337 3.337 0 0 0 4.64.901 3.333 3.333 0 0 0 1.45-2.957 3.335 3.335 0 0 0 3.76-1.38c.609-.936.676-2.082.28-3.065a3.362 3.362 0 0 0 3.71-2.587c.266-1.199-.176-2.414-1.05-3.203.478-.17.914-.451 1.279-.829a3.318 3.318 0 0 0 .935-2.441zm-10.64-6.948l.012.127a4.389 4.389 0 0 0-1.747-.605 3.975 3.975 0 0 0 .122-1.672 2.722 2.722 0 0 1 1.612 2.15zm-12.818-1.223h2.572a.824.824 0 0 0 0-1.647h-3.798a.53.53 0 0 1-.533-.533c0-.294.239-.534.533-.534h8.482c1.29 0 2.341 1.05 2.341 2.34 0 1.291-1.05 2.341-2.341 2.341-3.53 0-6.4 2.872-6.4 6.402v1.448h-4.681v-1.448c0-3.222 1.39-6.255 3.825-8.369zm-22.139 1.35c.003-.042.008-.084.013-.126a2.722 2.722 0 0 1 1.625-2.156 3.993 3.993 0 0 0 .12 1.675 4.387 4.387 0 0 0-1.758.607zm5.586.617c-1.29 0-2.34-1.05-2.34-2.34 0-1.29 1.05-2.34 2.34-2.34h8.482a.534.534 0 0 1 0 1.066h-3.798a.824.824 0 0 0 0 1.647h2.572a11.053 11.053 0 0 1 3.825 8.369v1.449h-4.68v-1.45a6.408 6.408 0 0 0-6.401-6.4zm-10.221 26.304a.585.585 0 1 1 1.17 0 .585.585 0 0 1-1.17 0zm13.501 7.703l-6.383 1.594a.527.527 0 0 1-.126.015.823.823 0 0 0-.509.176 1.453 1.453 0 0 1-.904.314c-.391 0-.76-.152-1.035-.428a1.458 1.458 0 0 1-.43-1.037 1.459 1.459 0 0 1 1.466-1.464c.543 0 1.038.298 1.294.778.178.334.56.504.927.413l4.436-1.108a.824.824 0 0 0 .623-.799v-1.491c.185-.098.36-.219.517-.363.155.141.328.262.515.361v2.539c0 .237-.16.443-.391.5zm2.45-5.264a.874.874 0 1 1-1.75 0 .824.824 0 1 0-1.648 0 .868.868 0 0 1-.262.624.867.867 0 0 1-.63.252c-.474-.009-.86-.427-.86-.932v-2.847c0-1.263.854-2.326 2.027-2.632a5.612 5.612 0 0 0 1.22 1.739c.553.537 1.199.951 1.903 1.228v2.568zm9.985 6.987a.925.925 0 0 1-.748.376.939.939 0 0 1-.652-.264l-1.836-1.79a.823.823 0 0 0-1.15 0l-1.835 1.789a.933.933 0 0 1-1.545-.937l2.223-7.366c.387.393.675.889.816 1.455a.944.944 0 0 0 1.833 0c.14-.566.429-1.062.815-1.456l2.223 7.366a.927.927 0 0 1-.144.827zm.185-10.791a4.814 4.814 0 0 0-3.995 2.121 4.818 4.818 0 0 0-3.998-2.121c-2.322-.001-4.142-1.774-4.142-4.036V88.38c0-1.131.92-2.051 2.051-2.051h12.176c1.132 0 2.052.92 2.052 2.052v9.35c0 2.263-1.82 4.037-4.144 4.039zm15.214 4.15c.632 0 1.226.246 1.672.694.447.445.693 1.039.693 1.671a2.35 2.35 0 0 1-.693 1.672 2.35 2.35 0 0 1-1.42.678 3.105 3.105 0 0 0-2.612-2.25 2.367 2.367 0 0 1 2.36-2.465zm-4.923 5.206a.825.825 0 0 0 .912-.386 1.467 1.467 0 0 1 2.301-.305c.277.278.43.646.43 1.037 0 .391-.153.76-.429 1.036a1.454 1.454 0 0 1-1.036.429c-.353 0-.681-.122-.95-.352a.825.825 0 0 0-.336-.173l-6.3-1.574a.514.514 0 0 1-.39-.5V107.8c.187-.1.36-.22.515-.362.158.144.332.264.516.363v1.491c0 .378.258.707.624.799l4.143 1.035zm-2.707-8.455v2.847c0 .505-.386.923-.859.932a.878.878 0 0 1-.892-.876.824.824 0 1 0-1.648 0 .877.877 0 0 1-1.752 0v-2.676a5.795 5.795 0 0 0 1.65-1.121 5.61 5.61 0 0 0 1.24-1.787 2.725 2.725 0 0 1 2.261 2.681zm14.408-18.339a1.681 1.681 0 0 1-1.22.518H73a.823.823 0 0 0-.2 1.623l2.613.653c.913.228 1.495 1.136 1.297 2.024a1.705 1.705 0 0 1-1.651 1.329c-.137 0-.277-.018-.413-.052l-2.48-.62a.823.823 0 0 0-.657 1.484l.909.606c.795.53 1.032 1.592.529 2.365a1.693 1.693 0 0 1-2.36.487l-1.29-.86a.823.823 0 0 0-1.143 1.142l.469.702c.535.804.344 1.88-.426 2.4a1.693 1.693 0 0 1-2.374-.489 4.315 4.315 0 0 0-3.495-1.788c-.393.005-.79.055-1.167.069v-4.787a4.594 4.594 0 0 0 4.054-1.717l.01-.014c.005-.005.01-.01.013-.015 1.156-1.448 1.065-3.69-.206-5.104a1.688 1.688 0 0 1 .061-2.33c.32-.32.746-.496 1.198-.496h9.79c.935 0 1.722.732 1.755 1.632.016.465-.152.904-.474 1.238z"/><path d="M58.414 97.1a.823.823 0 1 0-1.647 0v.63c0 .726-.615 1.295-1.4 1.295a7.508 7.508 0 0 0-3.994 1.138 7.512 7.512 0 0 0-3.995-1.138c-.797 0-1.399-.556-1.399-1.29v-8.66h10.788v4.732a.823.823 0 1 0 1.647 0V88.38a.955.955 0 0 0-.953-.954H45.285a.953.953 0 0 0-.952.953v9.354c0 1.646 1.337 2.937 3.044 2.938 1.274 0 2.487.397 3.508 1.148a.82.82 0 0 0 .976 0 5.88 5.88 0 0 1 3.506-1.148c1.709-.001 3.047-1.293 3.047-2.941v-.63zM44.982 69.407h12.782a.824.824 0 1 0 0-1.647h-.261l.378-1.577a4.255 4.255 0 0 0-.8-3.648 4.254 4.254 0 0 0-3.36-1.63h-1.524V59.19a.824.824 0 0 0-1.647 0v1.715h-1.524a4.254 4.254 0 0 0-3.36 1.63 4.254 4.254 0 0 0-.8 3.648l.378 1.576h-.262a.824.824 0 0 0 0 1.647zm7.772-6.854l-.839 5.207h-1.083l-.84-5.207h2.762zm3.034 1.002c.502.637.681 1.455.492 2.244l-.471 1.961h-2.226l.825-5.116c.54.145 1.023.459 1.38.911zm-9.32 2.244a2.617 2.617 0 0 1 .491-2.244c.357-.452.84-.766 1.38-.911l.825 5.116h-2.226l-.47-1.961z"/></g><path d="M164 77.26l13.747 13.748L164 104.754" stroke="#5096FF" stroke-width="5.583"/><path stroke="#5096FF" stroke-width="5.583" d="M148 91.653L173.775 91.653"/><g filter="url(#filter0_dddddd_0_1)"><path d="M195.749 9.878a5 5 0 0 1 5-5h250.819a5 5 0 0 1 5 5v159.988H195.749V9.878z" fill="#0F2C46"/><path fill="#5096FF" d="M203.206 13.53H449.803V162.294H203.206z"/><path d="M173.173 169.866h306.662v9.863a7 7 0 0 1-7 7H180.173a7 7 0 0 1-7-7v-9.863z" fill="#C4C4C4"/></g><path d="M291.256 33.154c.119-.947.209-1.894.209-2.9 0-1.005-.09-1.952-.209-2.899l6.302-4.88c.568-.445.717-1.243.359-1.894l-5.974-10.236c-.359-.65-1.165-.887-1.822-.65l-7.438 2.958a21.873 21.873 0 0 0-5.048-2.9L276.5 1.915a1.44 1.44 0 0 0-.495-.895 1.466 1.466 0 0 0-.969-.347h-11.948c-.746 0-1.374.532-1.463 1.242l-1.135 7.84c-1.822.74-3.495 1.745-5.048 2.899l-7.438-2.959a1.463 1.463 0 0 0-1.822.651l-5.974 10.236a1.45 1.45 0 0 0 .358 1.893l6.303 4.881c-.119.947-.209 1.923-.209 2.9 0 .976.09 1.952.209 2.899l-6.303 4.88c-.567.445-.716 1.243-.358 1.894l5.974 10.236c.358.65 1.165.887 1.822.65l7.438-2.958a21.873 21.873 0 0 0 5.048 2.9l1.135 7.839c.089.71.717 1.242 1.463 1.242h11.948c.747 0 1.374-.532 1.464-1.242l1.135-7.84c1.822-.74 3.495-1.745 5.048-2.899l7.438 2.959c.687.266 1.463 0 1.822-.651l5.974-10.236c.358-.65.209-1.45-.359-1.893l-6.302-4.881zm-22.194 7.454c-5.765 0-10.454-4.644-10.454-10.353 0-5.71 4.689-10.354 10.454-10.354 5.765 0 10.455 4.644 10.455 10.354 0 5.709-4.69 10.354-10.455 10.354zm134.317 109.946c.08-.643.141-1.285.141-1.967 0-.683-.061-1.325-.141-1.968l4.24-3.312c.382-.301.482-.843.241-1.285l-4.019-6.945c-.241-.442-.784-.603-1.226-.442l-5.003 2.007a14.685 14.685 0 0 0-3.396-1.967l-.764-5.319a.983.983 0 0 0-.984-.844h-8.038a.981.981 0 0 0-.985.844l-.763 5.319c-1.226.502-2.351 1.185-3.396 1.967l-5.004-2.007a.98.98 0 0 0-1.225.442l-4.019 6.945a.99.99 0 0 0 .241 1.285l4.24 3.312a15.797 15.797 0 0 0-.141 1.968c0 .662.06 1.324.141 1.967l-4.24 3.312c-.382.301-.482.843-.241 1.285l4.019 6.945c.241.442.783.603 1.225.442l5.004-2.007a14.685 14.685 0 0 0 3.396 1.967l.763 5.32a.981.981 0 0 0 .985.843h8.038a.98.98 0 0 0 .984-.843l.764-5.32c1.226-.502 2.351-1.184 3.396-1.967l5.003 2.007a.98.98 0 0 0 1.226-.442l4.019-6.945c.241-.442.141-.984-.241-1.285l-4.24-3.312zm-14.93 5.059c-3.878 0-7.033-3.152-7.033-7.026 0-3.875 3.155-7.026 7.033-7.026 3.878 0 7.033 3.151 7.033 7.026 0 3.874-3.155 7.026-7.033 7.026z" fill="#AFC9FF"/><g filter="url(#filter1_dddddd_0_1)"><path d="M264.891 53.513h123.227v88.499a7.456 7.456 0 0 1-7.456 7.456H272.347a7.456 7.456 0 0 1-7.456-7.456v-88.5z" fill="#EDF1F8"/><path d="M388.117 53.513H264.891v-19.7a7.456 7.456 0 0 1 7.456-7.456h108.315a7.456 7.456 0 0 1 7.455 7.456v19.7z" fill="#0D36C7"/><circle cx="276.272" cy="39.642" r="2.796" fill="#fff"/><circle cx="285.592" cy="39.642" r="2.796" fill="#fff"/><circle cx="294.912" cy="39.642" r="2.796" fill="#fff"/><g clip-path="url(#clip1_0_1)" fill="#3B5998"><path d="M313.7 80.361h-1.586a1.003 1.003 0 0 0 0 2.006h1.586a1.003 1.003 0 1 0 0-2.006zm26.611 2.005h1.586a1.003 1.003 0 1 0 0-2.005h-1.586a1.003 1.003 0 0 0 0 2.005z"/><path d="M360.728 92.315c-.079-2.162-1.936-3.921-4.14-3.921h-11.921a4.04 4.04 0 0 0-2.876 1.192 4.04 4.04 0 0 0-1.192 2.876c0 1.007.371 1.973 1.044 2.72.878.976.96 2.629.181 3.615l-.048.06a3.61 3.61 0 0 1-3.355 1.301v-1.334a4.51 4.51 0 0 0-3.208-4.314v-1.954A5.794 5.794 0 0 1 341 86.767c1.369 0 2.607-.57 3.491-1.486l.119-.017a3.315 3.315 0 0 1 3.05 1.284 1.003 1.003 0 0 0 1.722-.212c.364-.856.495-1.8.379-2.731a5.325 5.325 0 0 0-4.904-4.637 4.85 4.85 0 0 0-3.857-1.91h-10.327a2.658 2.658 0 0 0-1.878 4.532c.223.222.478.4.755.53a15.461 15.461 0 0 0-3.044 4.95 15.481 15.481 0 0 0-3.045-4.95 2.662 2.662 0 0 0 1.532-2.408 2.658 2.658 0 0 0-2.655-2.655h-10.327a4.85 4.85 0 0 0-3.856 1.91 5.324 5.324 0 0 0-4.919 4.639c-.117.93.014 1.874.379 2.73a1.001 1.001 0 0 0 1.721.212 3.319 3.319 0 0 1 3.187-1.264 4.841 4.841 0 0 0 3.488 1.483 5.795 5.795 0 0 1 5.788 5.788v1.955a4.51 4.51 0 0 0-3.209 4.312v1.336a3.61 3.61 0 0 1-3.357-1.302l-.047-.059c-.78-.985-.698-2.639.179-3.614a4.057 4.057 0 0 0 1.045-2.721 4.04 4.04 0 0 0-1.192-2.876 4.04 4.04 0 0 0-2.876-1.192h-4.259a1.003 1.003 0 1 0 0 2.005h4.259c.551 0 1.068.215 1.458.605a2.057 2.057 0 0 1 .075 2.837c-1.548 1.72-1.658 4.45-.251 6.214l.014.018.015.018.015.018a5.588 5.588 0 0 0 4.922 2.072v5.828c-.46-.017-.945-.078-1.423-.083a5.253 5.253 0 0 0-4.255 2.176l-.02.029a2.062 2.062 0 0 1-2.871.565c-.938-.632-1.17-1.942-.518-2.92l.57-.855a1.004 1.004 0 0 0-1.39-1.391l-1.57 1.046a2.061 2.061 0 0 1-2.874-.592c-.613-.941-.324-2.233.643-2.879l1.107-.738a1.002 1.002 0 0 0-.799-1.807l-3.017.755a2.15 2.15 0 0 1-.506.063c-.956 0-1.802-.68-2.01-1.618-.241-1.08.467-2.186 1.578-2.464l3.182-.796a1.003 1.003 0 0 0-.243-1.975h-3.826a2.046 2.046 0 0 1-1.485-.63 2.048 2.048 0 0 1-.577-1.507c.039-1.097.997-1.989 2.135-1.989h3.651a1.003 1.003 0 1 0 0-2.005h-3.651c-2.241 0-4.06 1.722-4.139 3.922a4.036 4.036 0 0 0 1.138 2.971c.444.46.975.801 1.557 1.008-1.064.962-1.603 2.44-1.278 3.901a4.094 4.094 0 0 0 3.968 3.187c.183 0 .366-.013.55-.038a4.055 4.055 0 0 0 .341 3.734 4.061 4.061 0 0 0 3.414 1.849c.397 0 .788-.057 1.164-.17-.077 1.392.546 2.779 1.762 3.599a4.063 4.063 0 0 0 5.651-1.096 3.243 3.243 0 0 1 2.618-1.33c.48.014.966.07 1.423.086v.194c0 .296.021.587.057.875a5.306 5.306 0 0 0-3.934 5.136v3.467c0 1.523 1.085 2.811 2.507 3.086v.726l-3.967.99a3.78 3.78 0 0 0-2.893-1.341c-.348 0-.69.048-1.017.138l-2.908-4.854c.35-.458.561-1.028.561-1.647a2.72 2.72 0 0 0-2.717-2.717 2.72 2.72 0 0 0-2.718 2.717 2.72 2.72 0 0 0 2.718 2.717c.149 0 .294-.015.436-.038l2.908 4.854a3.767 3.767 0 0 0-1.051 2.619c0 1.011.393 1.962 1.109 2.679a3.76 3.76 0 0 0 2.679 1.109 3.769 3.769 0 0 0 2.074-.619c.097-.013.193-.032.288-.056l7.768-1.939a2.629 2.629 0 0 0 1.996-2.555v-2.782a3.043 3.043 0 0 0 1.61-.847 3.056 3.056 0 0 0 .897-2.172v-2.655c.213.019.428.029.644.029a3.9 3.9 0 0 1 .977.125l-2.844 9.423a3.144 3.144 0 0 0 5.2 3.157l1.535-1.497 1.536 1.498c.58.568 1.383.893 2.193.891a3.112 3.112 0 0 0 2.521-1.268c.599-.806.776-1.82.486-2.781l-2.844-9.424c.312-.081.639-.124.974-.124.323 0 .642-.023.957-.064v2.69c0 .819.319 1.591.899 2.173a3.042 3.042 0 0 0 1.609.846v2.782c0 1.212.821 2.262 1.995 2.554l7.458 1.863a3.784 3.784 0 0 0 5.92-2.045 4.849 4.849 0 0 0 3.139-1.418 4.853 4.853 0 0 0 1.431-3.454 4.846 4.846 0 0 0-1.43-3.453 4.85 4.85 0 0 0-2.452-1.329v-1.154h.667a1.003 1.003 0 1 0 0-2.006h-.667v-.718a1.002 1.002 0 1 0-2.005 0v.718h-.667a1.003 1.003 0 1 0 0 2.006h.667v1.155a4.892 4.892 0 0 0-3.862 5.196c-.49.216-.933.534-1.295.936l-3.633-.908v-.726c1.421-.273 2.508-1.562 2.508-3.086v-3.466a5.328 5.328 0 0 0-4.237-5.208c.031-.266.048-.535.048-.807v-.191c.457-.016.941-.071 1.421-.086 1.035 0 2.013.497 2.619 1.33a4.062 4.062 0 0 0 5.649 1.098c1.217-.821 1.84-2.208 1.764-3.601a4.061 4.061 0 0 0 4.577-1.679c.743-1.141.825-2.536.342-3.733.183.025.367.038.549.038a4.094 4.094 0 0 0 3.968-3.187c.325-1.46-.214-2.94-1.278-3.901a4.046 4.046 0 0 0 1.557-1.009 4.04 4.04 0 0 0 1.139-2.972zm-12.957-8.46c.007.052.012.103.016.155a5.344 5.344 0 0 0-2.127-.737 4.858 4.858 0 0 0 .148-2.035 3.314 3.314 0 0 1 1.963 2.617zm-15.606-1.489h3.133a1.003 1.003 0 0 0 0-2.005h-4.625a.646.646 0 0 1-.65-.649.65.65 0 0 1 .65-.65H341a2.852 2.852 0 0 1 2.85 2.85 2.853 2.853 0 0 1-2.85 2.85c-4.297 0-7.793 3.496-7.793 7.793v1.765h-5.699v-1.764c0-3.923 1.693-7.616 4.657-10.19zM305.21 84.01a3.316 3.316 0 0 1 1.994-2.779 4.846 4.846 0 0 0 .147 2.04 5.34 5.34 0 0 0-2.141.739zm6.801.752a2.854 2.854 0 0 1-2.85-2.85 2.853 2.853 0 0 1 2.85-2.85h10.328a.65.65 0 0 1 0 1.299h-4.625a1.003 1.003 0 1 0 0 2.005h3.132a13.457 13.457 0 0 1 4.657 10.19v1.764h-5.699v-1.764c0-4.298-3.496-7.794-7.793-7.794zm-12.444 32.025a.713.713 0 0 1 1.423 0 .712.712 0 0 1-1.423 0zm16.438 9.38l-7.771 1.94a.607.607 0 0 1-.154.019c-.225 0-.443.075-.62.214a1.786 1.786 0 0 1-1.1.382c-.477 0-.925-.185-1.26-.521a1.776 1.776 0 0 1-.523-1.262 1.778 1.778 0 0 1 1.783-1.784c.661 0 1.265.364 1.576.949.216.406.682.613 1.128.502l5.401-1.349c.447-.112.76-.513.76-.973v-1.815c.225-.12.437-.266.629-.442.189.172.4.319.626.44v3.091a.626.626 0 0 1-.475.609zm2.983-6.41a1.065 1.065 0 1 1-2.132 0 1.003 1.003 0 1 0-2.005 0 1.064 1.064 0 0 1-1.087 1.067c-.577-.011-1.046-.52-1.046-1.135v-3.467a3.306 3.306 0 0 1 2.468-3.204c.35.783.849 1.501 1.484 2.118a7.037 7.037 0 0 0 2.318 1.495v3.126zm12.158 8.507a1.137 1.137 0 0 1-1.705.136l-2.235-2.179a1.002 1.002 0 0 0-1.4 0l-2.235 2.179a1.135 1.135 0 0 1-1.881-1.142l2.707-8.968c.47.479.821 1.083.992 1.771a1.15 1.15 0 0 0 2.233 0 3.86 3.86 0 0 1 .992-1.772l2.707 8.969c.105.348.041.714-.175 1.006zm.224-13.138a5.86 5.86 0 0 0-4.864 2.582 5.867 5.867 0 0 0-4.867-2.582c-2.828-.002-5.043-2.16-5.043-4.915V98.822a2.5 2.5 0 0 1 2.497-2.497h14.825a2.501 2.501 0 0 1 2.498 2.499v11.383c0 2.756-2.217 4.916-5.046 4.919zm18.524 5.052c.77 0 1.493.3 2.037.845.544.543.843 1.266.843 2.035 0 .768-.3 1.491-.844 2.036-.47.47-1.075.756-1.728.825a3.791 3.791 0 0 0-.97-1.66 3.761 3.761 0 0 0-2.212-1.079c-.001-.041-.004-.081-.004-.122a2.882 2.882 0 0 1 2.878-2.88zm-5.994 6.339c.434.109.887-.083 1.111-.47.318-.55.909-.892 1.541-.892a1.779 1.779 0 0 1 1.784 1.784c0 .476-.186.924-.522 1.261a1.772 1.772 0 0 1-1.262.522c-.429 0-.829-.148-1.156-.428a1 1 0 0 0-.41-.212l-7.67-1.916a.624.624 0 0 1-.475-.608v-3.091c.227-.121.438-.268.627-.44.192.176.404.322.628.442v1.815c0 .46.314.861.76.973l5.044 1.26zm-3.296-10.295v3.467c0 .615-.469 1.124-1.045 1.135a1.065 1.065 0 0 1-1.087-1.067 1.003 1.003 0 1 0-2.005 0 1.069 1.069 0 0 1-1.821.756 1.063 1.063 0 0 1-.313-.756v-3.258a7.05 7.05 0 0 0 2.008-1.365 6.83 6.83 0 0 0 1.51-2.176 3.318 3.318 0 0 1 2.753 3.264zm17.543-22.328c-.393.407-.92.631-1.485.631h-3.826a1.003 1.003 0 0 0-.244 1.975l3.182.796c1.111.278 1.82 1.383 1.579 2.464a2.076 2.076 0 0 1-2.011 1.618c-.166 0-.336-.021-.503-.062l-3.02-.756a1.004 1.004 0 0 0-.799 1.807l1.107.738c.968.646 1.257 1.938.644 2.879a2.062 2.062 0 0 1-2.874.593l-1.571-1.047a1.002 1.002 0 0 0-1.39 1.391l.571.855c.651.978.419 2.288-.52 2.921a2.06 2.06 0 0 1-2.869-.565l-.021-.03a5.252 5.252 0 0 0-4.255-2.176c-.478.005-.961.066-1.421.083v-5.828a5.59 5.59 0 0 0 4.936-2.091l.014-.016.015-.019c1.406-1.764 1.296-4.493-.252-6.215a2.053 2.053 0 0 1-.53-1.378c0-.55.215-1.068.605-1.458a2.05 2.05 0 0 1 1.458-.605h11.921c1.138 0 2.096.892 2.136 1.987a2.049 2.049 0 0 1-.577 1.508z"/><path d="M335.078 109.44a1.002 1.002 0 1 0-2.005 0v.768c0 .883-.75 1.575-1.706 1.576a9.148 9.148 0 0 0-4.862 1.385 9.153 9.153 0 0 0-4.864-1.385c-.971-.001-1.703-.677-1.703-1.572V99.668h13.135v5.762a1.003 1.003 0 1 0 2.005 0v-6.606c0-.64-.52-1.161-1.16-1.161h-14.826c-.639 0-1.159.52-1.159 1.16v11.389c0 2.004 1.628 3.576 3.707 3.577 1.55 0 3.027.484 4.271 1.398a1.003 1.003 0 0 0 1.188 0 7.161 7.161 0 0 1 4.269-1.398c2.081-.001 3.711-1.575 3.711-3.581v-.768h-.001zm-16.354-33.72h15.563a1.003 1.003 0 1 0 0-2.004h-.319l.461-1.92a5.18 5.18 0 0 0-.974-4.442 5.18 5.18 0 0 0-4.091-1.984h-1.856v-2.088a1.002 1.002 0 1 0-2.005 0v2.088h-1.855a5.182 5.182 0 0 0-4.092 1.985 5.18 5.18 0 0 0-.974 4.441l.461 1.92h-.319a1.003 1.003 0 1 0 0 2.005zm9.463-8.345l-1.022 6.34h-1.319l-1.021-6.34h3.362zm3.693 1.221c.612.776.83 1.771.599 2.732l-.573 2.388h-2.71l1.004-6.23c.658.177 1.246.56 1.68 1.11zm-11.348 2.732a3.186 3.186 0 0 1 .599-2.732 3.186 3.186 0 0 1 1.681-1.11l1.003 6.23h-2.709l-.574-2.388z"/></g></g><defs><filter id="filter0_dddddd_0_1" x="93.173" y="4.878" width="466.662" height="361.851" filterUnits="userSpaceOnUse" color-interpolation-filters="sRGB"><feFlood flood-opacity="0" result="BackgroundImageFix"/><feColorMatrix in="SourceAlpha" values="0 0 0 0 0 0 0 0 0 0 0 0 0 0 0 0 0 0 127 0" result="hardAlpha"/><feOffset dy="2.767"/><feGaussianBlur stdDeviation="1.107"/><feColorMatrix values="0 0 0 0 0.482353 0 0 0 0 0.529412 0 0 0 0 0.654902 0 0 0 0.0196802 0"/><feBlend in2="BackgroundImageFix" result="effect1_dropShadow_0_1"/><feColorMatrix in="SourceAlpha" values="0 0 0 0 0 0 0 0 0 0 0 0 0 0 0 0 0 0 127 0" result="hardAlpha"/><feOffset dy="6.65"/><feGaussianBlur stdDeviation="2.66"/><feColorMatrix values="0 0 0 0 0.482353 0 0 0 0 0.529412 0 0 0 0 0.654902 0 0 0 0.0282725 0"/><feBlend in2="effect1_dropShadow_0_1" result="effect2_dropShadow_0_1"/><feColorMatrix in="SourceAlpha" values="0 0 0 0 0 0 0 0 0 0 0 0 0 0 0 0 0 0 127 0" result="hardAlpha"/><feOffset dy="12.522"/><feGaussianBlur stdDeviation="5.009"/><feColorMatrix values="0 0 0 0 0.482353 0 0 0 0 0.529412 0 0 0 0 0.654902 0 0 0 0.035 0"/><feBlend in2="effect2_dropShadow_0_1" result="effect3_dropShadow_0_1"/><feColorMatrix in="SourceAlpha" values="0 0 0 0 0 0 0 0 0 0 0 0 0 0 0 0 0 0 127 0" result="hardAlpha"/><feOffset dy="22.336"/><feGaussianBlur stdDeviation="8.935"/><feColorMatrix values="0 0 0 0 0.482353 0 0 0 0 0.529412 0 0 0 0 0.654902 0 0 0 0.0417275 0"/><feBlend in2="effect3_dropShadow_0_1" result="effect4_dropShadow_0_1"/><feColorMatrix in="SourceAlpha" values="0 0 0 0 0 0 0 0 0 0 0 0 0 0 0 0 0 0 127 0" result="hardAlpha"/><feOffset dy="41.778"/><feGaussianBlur stdDeviation="16.711"/><feColorMatrix values="0 0 0 0 0.482353 0 0 0 0 0.529412 0 0 0 0 0.654902 0 0 0 0.0503198 0"/><feBlend in2="effect4_dropShadow_0_1" result="effect5_dropShadow_0_1"/><feColorMatrix in="SourceAlpha" values="0 0 0 0 0 0 0 0 0 0 0 0 0 0 0 0 0 0 127 0" result="hardAlpha"/><feOffset dy="100"/><feGaussianBlur stdDeviation="40"/><feColorMatrix values="0 0 0 0 0.482353 0 0 0 0 0.529412 0 0 0 0 0.654902 0 0 0 0.07 0"/><feBlend in2="effect5_dropShadow_0_1" result="effect6_dropShadow_0_1"/><feBlend in="SourceGraphic" in2="effect6_dropShadow_0_1" result="shape"/></filter><filter id="filter1_dddddd_0_1" x="184.891" y="26.357" width="283.227" height="303.11" filterUnits="userSpaceOnUse" color-interpolation-filters="sRGB"><feFlood flood-opacity="0" result="BackgroundImageFix"/><feColorMatrix in="SourceAlpha" values="0 0 0 0 0 0 0 0 0 0 0 0 0 0 0 0 0 0 127 0" result="hardAlpha"/><feOffset dy="2.767"/><feGaussianBlur stdDeviation="1.107"/><feColorMatrix values="0 0 0 0 0.482353 0 0 0 0 0.529412 0 0 0 0 0.654902 0 0 0 0.0196802 0"/><feBlend in2="BackgroundImageFix" result="effect1_dropShadow_0_1"/><feColorMatrix in="SourceAlpha" values="0 0 0 0 0 0 0 0 0 0 0 0 0 0 0 0 0 0 127 0" result="hardAlpha"/><feOffset dy="6.65"/><feGaussianBlur stdDeviation="2.66"/><feColorMatrix values="0 0 0 0 0.482353 0 0 0 0 0.529412 0 0 0 0 0.654902 0 0 0 0.0282725 0"/><feBlend in2="effect1_dropShadow_0_1" result="effect2_dropShadow_0_1"/><feColorMatrix in="SourceAlpha" values="0 0 0 0 0 0 0 0 0 0 0 0 0 0 0 0 0 0 127 0" result="hardAlpha"/><feOffset dy="12.522"/><feGaussianBlur stdDeviation="5.009"/><feColorMatrix values="0 0 0 0 0.482353 0 0 0 0 0.529412 0 0 0 0 0.654902 0 0 0 0.035 0"/><feBlend in2="effect2_dropShadow_0_1" result="effect3_dropShadow_0_1"/><feColorMatrix in="SourceAlpha" values="0 0 0 0 0 0 0 0 0 0 0 0 0 0 0 0 0 0 127 0" result="hardAlpha"/><feOffset dy="22.336"/><feGaussianBlur stdDeviation="8.935"/><feColorMatrix values="0 0 0 0 0.482353 0 0 0 0 0.529412 0 0 0 0 0.654902 0 0 0 0.0417275 0"/><feBlend in2="effect3_dropShadow_0_1" result="effect4_dropShadow_0_1"/><feColorMatrix in="SourceAlpha" values="0 0 0 0 0 0 0 0 0 0 0 0 0 0 0 0 0 0 127 0" result="hardAlpha"/><feOffset dy="41.778"/><feGaussianBlur stdDeviation="16.711"/><feColorMatrix values="0 0 0 0 0.482353 0 0 0 0 0.529412 0 0 0 0 0.654902 0 0 0 0.0503198 0"/><feBlend in2="effect4_dropShadow_0_1" result="effect5_dropShadow_0_1"/><feColorMatrix in="SourceAlpha" values="0 0 0 0 0 0 0 0 0 0 0 0 0 0 0 0 0 0 127 0" result="hardAlpha"/><feOffset dy="100"/><feGaussianBlur stdDeviation="40"/><feColorMatrix values="0 0 0 0 0.482353 0 0 0 0 0.529412 0 0 0 0 0.654902 0 0 0 0.07 0"/><feBlend in2="effect5_dropShadow_0_1" result="effect6_dropShadow_0_1"/><feBlend in="SourceGraphic" in2="effect6_dropShadow_0_1" result="shape"/></filter><clipPath id="clip0_0_1"><path fill="#fff" transform="translate(23.262 58.365)" d="M0 0H56.221V56.221H0z"/></clipPath><clipPath id="clip1_0_1"><path fill="#fff" transform="translate(292.279 62.278)" d="M0 0H68.451V68.451H0z"/></clipPath></defs></svg>