<svg width="560" height="367" viewBox="0 0 560 367" fill="none" xmlns="http://www.w3.org/2000/svg">
<rect x="0.768433" y="30.1936" width="101.208" height="120.755" rx="5" fill="#4D5769"/>
<g clip-path="url(#clip0_0_1)">
<path d="M40.8558 73.2173H39.5538C39.099 73.2173 38.7302 73.586 38.7302 74.0408C38.7302 74.4956 39.099 74.8643 39.5538 74.8643H40.8558C41.3107 74.8643 41.6794 74.4956 41.6794 74.0408C41.6794 73.586 41.3107 73.2173 40.8558 73.2173Z" fill="white"/>
<path d="M62.7125 74.8642H64.0146C64.4694 74.8642 64.8381 74.4955 64.8381 74.0406C64.8381 73.5858 64.4695 73.2171 64.0146 73.2171H62.7125C62.2577 73.2171 61.889 73.5858 61.889 74.0406C61.889 74.4955 62.2577 74.8642 62.7125 74.8642Z" fill="white"/>
<path d="M79.4807 83.035C79.4164 81.2593 77.8912 79.8147 76.0808 79.8147H66.2899C65.398 79.8147 64.559 80.1624 63.9275 80.7938C63.2962 81.4252 62.9485 82.2641 62.9485 83.156C62.9485 83.9828 63.2535 84.7764 63.8064 85.3898C64.5272 86.1916 64.5943 87.549 63.9548 88.3588C63.9414 88.3748 63.9282 88.3911 63.9149 88.4081C63.2375 89.2417 62.2002 89.6301 61.1599 89.4767V88.3809C61.1599 86.7109 60.0473 85.2965 58.5247 84.8383V83.2327C58.5247 80.6111 60.657 78.4784 63.2779 78.4784C64.4027 78.4784 65.4194 78.0096 66.1451 77.2581C66.1743 77.2533 66.2067 77.2487 66.2431 77.2439C67.2049 77.123 68.1638 77.5273 68.7482 78.2988C68.9051 78.5058 69.1487 78.6251 69.4045 78.6251C69.438 78.6251 69.4717 78.623 69.5056 78.6188C69.797 78.5828 70.0472 78.3944 70.1623 78.1241C70.4614 77.4216 70.569 76.6463 70.4732 75.8813C70.211 73.8034 68.5059 72.2151 66.4459 72.0728C65.7165 71.1199 64.568 70.5036 63.2778 70.5036H54.7958C53.5934 70.5036 52.6153 71.4819 52.6153 72.6843C52.6153 73.2667 52.842 73.8143 53.2539 74.2263C53.4366 74.409 53.6462 74.5552 53.8741 74.6613C52.783 75.8558 51.9385 77.2356 51.3734 78.7271C50.8082 77.2356 49.9636 75.8558 48.8726 74.6613C49.1004 74.5552 49.3101 74.409 49.4928 74.2263C49.9047 73.8144 50.1315 73.2668 50.1315 72.6843C50.1315 71.4819 49.1532 70.5036 47.9508 70.5036H39.4688C38.179 70.5036 37.0309 71.1194 36.3014 72.0719C34.2361 72.2087 32.5246 73.7994 32.2617 75.882C32.1659 76.6463 32.2734 77.4216 32.5725 78.1241C32.6876 78.3944 32.9378 78.5829 33.2293 78.6188C33.2631 78.623 33.2968 78.6251 33.3304 78.6251C33.5862 78.6251 33.8299 78.5058 33.9867 78.2988C34.5712 77.5273 35.531 77.1234 36.49 77.2436C36.5339 77.2492 36.571 77.2548 36.6042 77.2605C37.3297 78.0106 38.3455 78.4783 39.4689 78.4783C42.0898 78.4783 44.2222 80.611 44.2222 83.2326V84.838C42.6996 85.2958 41.5869 86.71 41.5869 88.3797V89.4766C40.5453 89.6307 39.5069 89.242 38.8299 88.4074C38.817 88.391 38.8041 88.3753 38.7908 88.3592C38.1507 87.5495 38.2178 86.1917 38.9381 85.3904C39.4917 84.7763 39.7965 83.9826 39.7965 83.1558C39.7965 82.2638 39.4489 81.4249 38.8175 80.7936C38.1862 80.1622 37.3473 79.8146 36.4554 79.8146H32.9572C32.5024 79.8146 32.1337 80.1833 32.1337 80.6381C32.1337 81.093 32.5024 81.4617 32.9572 81.4617H36.4555C36.9076 81.4617 37.3327 81.638 37.653 81.9583C37.9732 82.2786 38.1497 82.7039 38.1497 83.1559C38.1497 83.5747 37.9952 83.9767 37.7141 84.2885C36.4433 85.7018 36.3528 87.9436 37.508 89.3921C37.5117 89.3967 37.5162 89.4022 37.5199 89.4068L37.532 89.4214C37.536 89.4265 37.54 89.4316 37.544 89.4366C38.4453 90.5528 39.7586 91.1609 41.1324 91.1609C41.2833 91.1609 41.435 91.1527 41.5869 91.1379V95.9246C41.2089 95.9106 40.8112 95.8607 40.418 95.8564C39.0356 95.8564 37.7292 96.5246 36.9235 97.6439C36.9178 97.6519 36.9121 97.6599 36.9067 97.6681C36.5918 98.1405 36.0639 98.4225 35.4947 98.4225C35.1568 98.4225 34.83 98.3222 34.5487 98.1317C33.779 97.6124 33.5881 96.5366 34.1232 95.7337L34.5921 95.0309C34.8099 94.7044 34.767 94.2694 34.4895 93.9917C34.2119 93.714 33.7771 93.6709 33.4504 93.8886L32.161 94.7479C31.8807 94.9344 31.5565 95.0329 31.2236 95.0329C30.6467 95.0329 30.1144 94.7447 29.8001 94.2619C29.2965 93.4885 29.5338 92.4275 30.3287 91.8971L31.2377 91.2909C31.571 91.0687 31.6962 90.6389 31.5341 90.2726C31.372 89.9063 30.9699 89.7096 30.5812 89.8069L28.103 90.4268C27.9643 90.461 27.8247 90.4785 27.688 90.4785C26.9023 90.4785 26.2078 89.9199 26.0366 89.1498C25.8389 88.2624 26.4207 87.3544 27.3332 87.1259L29.9464 86.4726C30.35 86.3716 30.6149 85.9858 30.5641 85.573C30.5133 85.1603 30.1626 84.8502 29.7468 84.8502H26.6042C26.1402 84.8502 25.7071 84.6663 25.3847 84.3322C25.0626 83.9985 24.8942 83.5588 24.9105 83.0947C24.9431 82.1943 25.73 81.4618 26.6646 81.4618H29.6631C30.118 81.4618 30.4867 81.0931 30.4867 80.6383C30.4867 80.1834 30.118 79.8147 29.6631 79.8147H26.6646C24.8235 79.8147 23.33 81.2292 23.2645 83.0357C23.2323 83.9513 23.5643 84.8179 24.1996 85.4761C24.5642 85.8537 25.0003 86.1339 25.4788 86.3043C24.6044 87.0936 24.1618 88.3087 24.4289 89.5076C24.7661 91.0245 26.1367 92.1255 27.688 92.1255C27.8377 92.1255 27.9885 92.1151 28.1391 92.0945C27.7427 93.0775 27.8097 94.2234 28.4199 95.1607C29.0395 96.112 30.0876 96.68 31.2236 96.68C31.5495 96.68 31.8708 96.6325 32.1791 96.54C32.1166 97.6834 32.6279 98.8227 33.6266 99.4964C34.1804 99.8713 34.8264 100.069 35.4947 100.069C36.6102 100.069 37.6456 99.5189 38.2677 98.5958C38.7654 97.9116 39.5683 97.5034 40.4182 97.5034C40.8123 97.5153 41.2118 97.5606 41.587 97.5738V97.7336C41.587 97.9762 41.6038 98.2159 41.6336 98.4525C39.7622 98.9523 38.4029 100.652 38.4029 102.671V105.518C38.4029 106.769 39.2941 107.827 40.4616 108.052V108.648L37.2037 109.462C36.6194 108.771 35.756 108.36 34.8278 108.36C34.5414 108.36 34.2611 108.4 33.9924 108.474L31.6036 104.487C31.8913 104.111 32.0644 103.643 32.0644 103.134C32.0644 101.904 31.0633 100.903 29.8327 100.903C28.6021 100.903 27.601 101.904 27.601 103.134C27.601 104.365 28.6021 105.366 29.8327 105.366C29.955 105.366 30.0742 105.354 30.1913 105.335L32.5798 109.321C32.0227 109.904 31.716 110.665 31.716 111.472C31.716 112.303 32.0392 113.084 32.6269 113.673C33.2144 114.261 33.996 114.584 34.8276 114.584C35.1823 114.584 35.5309 114.524 35.8651 114.406C36.1002 114.322 36.3231 114.211 36.5305 114.075C36.6104 114.064 36.6896 114.049 36.7675 114.029L43.147 112.436C44.1124 112.196 44.7864 111.334 44.7864 110.338V108.054C45.2843 107.962 45.7426 107.724 46.1087 107.358C46.5843 106.88 46.8462 106.247 46.8462 105.574V103.393C47.021 103.408 47.1972 103.417 47.375 103.417C47.6509 103.417 47.92 103.453 48.1771 103.52L45.8415 111.259C45.7679 111.503 45.7307 111.755 45.7307 112.007C45.7307 113.428 46.8881 114.584 48.311 114.584C48.9873 114.584 49.6269 114.324 50.1122 113.852L51.3732 112.623L52.6347 113.852C53.1109 114.319 53.7701 114.586 54.4356 114.584C55.2598 114.584 56.0146 114.205 56.5063 113.543C56.998 112.881 57.1433 112.048 56.9051 111.259L54.5695 103.519C54.8261 103.453 55.0945 103.417 55.3697 103.417C55.6349 103.417 55.897 103.398 56.1553 103.364V105.574C56.1553 106.247 56.4173 106.88 56.8938 107.359C57.259 107.724 57.7174 107.962 58.2152 108.054V110.338C58.2152 111.334 58.8893 112.196 59.8536 112.436L65.9794 113.966C66.5148 114.366 67.1671 114.584 67.8381 114.584C68.6697 114.584 69.4513 114.261 70.0397 113.672C70.4295 113.282 70.7021 112.805 70.8418 112.287C71.8161 112.225 72.7235 111.817 73.4197 111.121C74.1777 110.363 74.5953 109.356 74.5953 108.285C74.5953 107.212 74.1776 106.205 73.4202 105.449C72.861 104.889 72.1648 104.515 71.407 104.358V103.409H71.9548C72.4096 103.409 72.7783 103.04 72.7783 102.586C72.7783 102.131 72.4097 101.762 71.9548 101.762H71.407V101.173C71.407 100.718 71.0383 100.349 70.5834 100.349C70.1286 100.349 69.7599 100.718 69.7599 101.173V101.762H69.2121C68.7572 101.762 68.3885 102.131 68.3885 102.586C68.3885 103.04 68.7571 103.409 69.2121 103.409H69.7599V104.358C67.9417 104.739 66.572 106.355 66.572 108.285C66.572 108.399 66.5783 108.513 66.5878 108.626C66.1854 108.803 65.8217 109.065 65.5247 109.395L62.5402 108.649V108.053C63.7078 107.828 64.6 106.769 64.6 105.518V102.671C64.6 100.567 63.1043 98.8056 61.1204 98.3941C61.1456 98.1755 61.16 97.9544 61.16 97.7306V97.574C61.5348 97.5609 61.933 97.5156 62.3271 97.5037C63.177 97.5037 63.9799 97.9118 64.4776 98.5961C65.0997 99.5192 66.1351 100.07 67.2507 100.07C67.9191 100.07 68.565 99.8716 69.1177 99.4975C70.1171 98.8234 70.6287 97.6838 70.5662 96.5403C70.8745 96.6328 71.1958 96.6803 71.5219 96.6803C72.6578 96.6803 73.706 96.1124 74.3257 95.1609C74.9358 94.2237 75.0029 93.0779 74.6065 92.0949C74.7568 92.1156 74.9077 92.1259 75.0576 92.1259C76.6086 92.1259 77.9793 91.025 78.3165 89.5083C78.5835 88.3094 78.1408 87.0942 77.2666 86.3048C77.7449 86.1344 78.1813 85.854 78.5458 85.4764C79.181 84.8179 79.513 83.9513 79.4807 83.035ZM68.8393 76.0868C68.8445 76.1292 68.8488 76.1716 68.8521 76.214C68.3215 75.8916 67.7254 75.6844 67.1053 75.6088C67.2092 75.2537 67.2661 74.8787 67.2661 74.4906C67.2661 74.3027 67.252 74.1181 67.2268 73.9371C68.0809 74.3108 68.7162 75.1113 68.8393 76.0868ZM56.0219 74.8642H58.5944C59.0492 74.8642 59.4179 74.4955 59.4179 74.0407C59.4179 73.5859 59.0493 73.2171 58.5944 73.2171L54.796 73.2167C54.6527 73.2167 54.5187 73.1616 54.4187 73.0616C54.3179 72.9608 54.2625 72.8267 54.2625 72.6842C54.2625 72.3899 54.5018 72.1505 54.796 72.1505H63.278C64.5688 72.1505 65.619 73.2001 65.619 74.4903C65.619 75.7811 64.5688 76.8313 63.278 76.8313C59.7489 76.8313 56.8778 79.7029 56.8778 83.2326V84.6815H52.197V83.2326C52.197 80.0113 53.5874 76.9779 56.0219 74.8642ZM33.8832 76.214C33.8865 76.1718 33.8908 76.1296 33.896 76.0876C34.0198 75.1068 34.6605 74.3031 35.521 73.9317C35.4952 74.1144 35.4811 74.3008 35.4811 74.4906C35.4811 74.8783 35.5377 75.2527 35.6414 75.6074C35.0174 75.6817 34.4172 75.8895 33.8832 76.214ZM39.469 76.8314C38.1782 76.8314 37.1281 75.7812 37.1281 74.4905C37.1281 73.2002 38.1782 72.1506 39.469 72.1506H47.951C48.2453 72.1506 48.4847 72.39 48.4847 72.6843C48.4847 72.8269 48.4292 72.9609 48.3284 73.0616C48.2283 73.1616 48.0943 73.2167 47.951 73.2167L44.1526 73.2171C43.6978 73.2171 43.3291 73.5859 43.3291 74.0407C43.3291 74.4955 43.6978 74.8642 44.1526 74.8642H46.7252C49.1596 76.9779 50.55 80.0113 50.55 83.2327V84.6816H45.8692V83.2327C45.8692 79.703 42.998 76.8314 39.469 76.8314ZM29.248 103.135C29.248 102.812 29.5103 102.55 29.8326 102.55C30.1548 102.55 30.4172 102.812 30.4172 103.135C30.4172 103.457 30.1548 103.719 29.8326 103.719C29.5103 103.719 29.248 103.457 29.248 103.135ZM42.749 110.838L36.3664 112.432C36.3255 112.442 36.284 112.447 36.2397 112.447C36.0553 112.447 35.8762 112.509 35.7311 112.623C35.6047 112.722 35.4637 112.8 35.3132 112.854C35.1576 112.909 34.9942 112.937 34.8276 112.937C34.4358 112.937 34.0679 112.785 33.7923 112.509C33.5154 112.232 33.3629 111.863 33.3629 111.472C33.3629 111.081 33.5154 110.713 33.7915 110.436C34.0679 110.16 34.4358 110.008 34.8276 110.008C35.3706 110.008 35.8665 110.306 36.122 110.786C36.2996 111.12 36.6819 111.29 37.0487 111.199L41.4846 110.091C41.8512 109.999 42.1085 109.67 42.1085 109.292V107.801C42.2931 107.703 42.4672 107.582 42.6253 107.438C42.78 107.579 42.9534 107.7 43.1396 107.799V110.338C43.1396 110.575 42.9794 110.781 42.749 110.838ZM45.1994 105.574C45.1994 105.808 45.1081 106.028 44.9432 106.194C44.778 106.359 44.5578 106.45 44.3232 106.45C43.8407 106.45 43.4481 106.057 43.4481 105.574C43.4481 105.119 43.0794 104.75 42.6246 104.75C42.1698 104.75 41.8011 105.119 41.8011 105.574C41.8011 105.811 41.708 106.032 41.5392 106.198C41.3698 106.365 41.148 106.454 40.9084 106.45C40.435 106.441 40.0498 106.023 40.0498 105.518V102.671C40.0498 101.408 40.9034 100.345 42.0763 100.039C42.3642 100.682 42.7735 101.272 43.2955 101.778C43.8485 102.315 44.495 102.729 45.1994 103.006V105.574ZM55.1843 112.561C55.0065 112.8 54.7337 112.937 54.4358 112.937C54.1961 112.938 53.9562 112.841 53.7843 112.673L51.9484 110.883C51.6287 110.571 51.1185 110.571 50.7987 110.883L48.9633 112.672C48.7877 112.843 48.5561 112.937 48.3112 112.937C47.7965 112.937 47.3779 112.52 47.3779 112.007C47.3779 111.916 47.3916 111.824 47.4185 111.735L49.6414 104.369C50.028 104.762 50.3163 105.258 50.4567 105.824C50.5617 106.246 50.9386 106.542 51.3735 106.542C51.8079 106.542 52.1847 106.247 52.2902 105.824C52.4307 105.258 52.7189 104.762 53.1054 104.368L55.3284 111.734C55.4146 112.02 55.3622 112.321 55.1843 112.561ZM55.3686 101.77C53.7277 101.771 52.2488 102.593 51.3735 103.891C50.4978 102.593 49.018 101.771 47.3761 101.77C45.0535 101.769 43.2341 99.996 43.2341 97.7337V88.3798C43.2341 87.2488 44.1542 86.3287 45.2852 86.3287H57.461C58.5925 86.3287 59.5131 87.2493 59.5131 88.3809V97.7304C59.513 99.9937 57.6925 101.768 55.3686 101.77ZM70.5831 105.92C71.2151 105.92 71.8087 106.166 72.2555 106.614C72.7022 107.059 72.9482 107.653 72.9482 108.285C72.9482 108.916 72.702 109.51 72.255 109.957C71.8687 110.343 71.3717 110.578 70.8354 110.635C70.6938 110.125 70.4233 109.657 70.0388 109.271C69.5429 108.776 68.9086 108.469 68.2227 108.385C68.2213 108.352 68.2191 108.318 68.2191 108.285C68.2191 106.981 69.2796 105.92 70.5831 105.92ZM65.6597 111.126C66.0159 111.215 66.3881 111.057 66.5721 110.74C66.8334 110.288 67.3186 110.008 67.8381 110.008C68.2298 110.008 68.5979 110.16 68.8734 110.435C69.1502 110.713 69.3028 111.081 69.3028 111.472C69.3028 111.863 69.1502 112.232 68.8743 112.508C68.5979 112.785 68.2298 112.937 67.8381 112.937C67.4854 112.937 67.1569 112.815 66.8883 112.585C66.7912 112.502 66.676 112.443 66.552 112.412L60.2519 110.838C60.0224 110.781 59.8622 110.575 59.8622 110.338V107.8C60.0487 107.7 60.2222 107.58 60.3771 107.438C60.5349 107.582 60.7088 107.702 60.8932 107.801V109.292C60.8932 109.67 61.1505 109.999 61.517 110.091L65.6597 111.126ZM62.953 102.671V105.518C62.953 106.023 62.5673 106.441 62.0945 106.45C61.8576 106.453 61.6325 106.365 61.4635 106.199C61.2946 106.033 61.2016 105.811 61.2016 105.574C61.2016 105.119 60.833 104.75 60.3781 104.75C59.9233 104.75 59.5545 105.119 59.5545 105.574C59.5545 106.057 59.1615 106.45 58.6784 106.45C58.4437 106.45 58.2236 106.359 58.0594 106.195C57.8935 106.028 57.8022 105.808 57.8022 105.574V102.898C58.4078 102.624 58.9655 102.248 59.4511 101.777C59.986 101.258 60.403 100.652 60.6918 99.9895C61.9739 100.209 62.953 101.327 62.953 102.671ZM77.3607 84.3321C77.0383 84.6661 76.6052 84.8502 76.1412 84.8502H72.9987C72.5828 84.8502 72.2321 85.1603 72.1814 85.573C72.1306 85.9858 72.3954 86.3716 72.799 86.4726L75.4119 87.1258C76.3247 87.3544 76.9066 88.2624 76.7088 89.1502C76.5376 89.9199 75.8432 90.4786 75.0576 90.4786C74.9208 90.4786 74.7813 90.4612 74.6446 90.4274L72.1642 89.807C71.7758 89.7097 71.3735 89.9064 71.2114 90.2727C71.0493 90.639 71.1743 91.0689 71.5076 91.291L72.4165 91.897C73.2117 92.4276 73.4489 93.4886 72.9456 94.2618C72.631 94.7448 72.0987 95.033 71.5219 95.033C71.189 95.033 70.865 94.9345 70.5853 94.7485L69.2952 93.8887C68.9682 93.6709 68.5333 93.7142 68.2561 93.9918C67.9786 94.2695 67.9356 94.7045 68.1534 95.031L68.622 95.7333C69.1573 96.5367 68.9665 97.6126 68.1956 98.1326C67.9152 98.3222 67.5886 98.4226 67.2507 98.4226C66.6815 98.4226 66.1535 98.1406 65.8386 97.6682C65.8331 97.66 65.8275 97.6519 65.8218 97.6439C65.0159 96.5247 63.7097 95.8565 62.3271 95.8565C61.934 95.8608 61.5375 95.9106 61.16 95.9246V91.1384C62.6934 91.2875 64.2007 90.6747 65.2011 89.437C65.2057 89.4314 65.2095 89.4264 65.2139 89.4206L65.2249 89.4074C65.2291 89.4024 65.2332 89.3973 65.2373 89.3922C66.3925 87.9437 66.302 85.7019 65.0305 84.2878C64.7501 83.9767 64.5956 83.5747 64.5956 83.1559C64.5956 82.7039 64.7719 82.2786 65.0921 81.9583C65.4126 81.638 65.8378 81.4617 66.2899 81.4617H76.0808C77.0154 81.4617 77.8023 82.1942 77.8349 83.0938C77.8512 83.5586 77.6828 83.9984 77.3607 84.3321Z" fill="white"/>
<path d="M58.4144 97.1006C58.4144 96.6458 58.0458 96.2771 57.5908 96.2771C57.136 96.2771 56.7673 96.6458 56.7673 97.1006V97.7309C56.7673 98.4561 56.1516 99.0247 55.3663 99.0254C53.9391 99.0254 52.57 99.4168 51.3729 100.163C50.1756 99.4168 48.8058 99.0254 47.3779 99.0254C46.5806 99.0247 45.9794 98.4695 45.9794 97.7342V89.0742H56.7673V93.8066C56.7673 94.2615 57.1359 94.6302 57.5908 94.6302C58.0457 94.6302 58.4144 94.2615 58.4144 93.8066V88.3814C58.4144 87.8552 57.9869 87.4272 57.4614 87.4272H45.2845C44.7595 87.4272 44.3326 87.8547 44.3326 88.3803V97.7342C44.3326 99.3803 45.6697 100.671 47.3774 100.672C48.6506 100.672 49.8636 101.069 50.8853 101.82C51.0304 101.927 51.2017 101.98 51.373 101.98C51.5443 101.98 51.7156 101.927 51.8606 101.82C52.8824 101.069 54.0947 100.672 55.3672 100.672C57.076 100.671 58.4145 99.3788 58.4145 97.7309V97.1006H58.4144Z" fill="white"/>
<path d="M44.9823 69.4061H57.7645C58.2194 69.4061 58.5881 69.0374 58.5881 68.5825C58.5881 68.1277 58.2195 67.759 57.7645 67.759H57.5026L57.8813 66.1824C58.1893 64.8999 57.8975 63.5704 57.081 62.5344C56.2645 61.4986 55.0397 60.9046 53.7208 60.9046H52.197V59.1899C52.197 58.7351 51.8283 58.3663 51.3734 58.3663C50.9186 58.3663 50.5499 58.7351 50.5499 59.1899V60.9047H49.0261C47.7071 60.9047 46.4825 61.4988 45.6659 62.5347C44.8494 63.5705 44.5578 64.9001 44.8658 66.1826L45.2444 67.7592H44.9823C44.5275 67.7592 44.1588 68.1279 44.1588 68.5828C44.1588 69.0376 44.5275 69.4061 44.9823 69.4061ZM52.7541 62.5517L51.9151 67.7591H50.8318L49.9928 62.5517H52.7541ZM55.7876 63.5542C56.2899 64.1913 56.4693 65.0091 56.2798 65.7979L55.8087 67.7591H53.5834L54.4077 62.6427C54.9479 62.7877 55.4311 63.102 55.7876 63.5542ZM46.4672 65.7979C46.2778 65.0091 46.4572 64.1913 46.9593 63.5542C47.3158 63.102 47.799 62.7877 48.3394 62.6427L49.1637 67.7591H46.9383L46.4672 65.7979Z" fill="white"/>
</g>
<path d="M164 77.2606L177.747 91.0076L164 104.754" stroke="#5096FF" stroke-width="5.58318"/>
<line x1="148" y1="91.6527" x2="173.775" y2="91.6527" stroke="#5096FF" stroke-width="5.58318"/>
<g filter="url(#filter0_dddddd_0_1)">
<path d="M195.749 9.87793C195.749 7.11651 197.987 4.87793 200.749 4.87793H451.568C454.33 4.87793 456.568 7.11651 456.568 9.87793V169.866H195.749V9.87793Z" fill="#0F2C46"/>
<rect x="203.206" y="13.5305" width="246.597" height="148.764" fill="#5096FF"/>
<path d="M173.173 169.866H479.835V179.729C479.835 183.595 476.701 186.729 472.835 186.729H180.173C176.307 186.729 173.173 183.595 173.173 179.729V169.866Z" fill="#C4C4C4"/>
</g>
<path d="M291.256 33.1536C291.375 32.207 291.465 31.2603 291.465 30.2545C291.465 29.2487 291.375 28.302 291.256 27.3554L297.558 22.4742C298.126 22.0304 298.275 21.2317 297.917 20.5809L291.943 10.3452C291.584 9.69433 290.778 9.45767 290.121 9.69433L282.683 12.6526C281.13 11.4693 279.457 10.4931 277.635 9.7535L276.5 1.91401C276.45 1.56594 276.275 1.24768 276.005 1.01894C275.736 0.790186 275.391 0.66666 275.036 0.671525H263.088C262.342 0.671525 261.714 1.20402 261.625 1.91401L260.49 9.7535C258.668 10.4931 256.995 11.4989 255.442 12.6526L248.004 9.69433C247.317 9.42808 246.54 9.69433 246.182 10.3452L240.208 20.5809C239.82 21.2317 239.999 22.0304 240.566 22.4742L246.869 27.3554C246.75 28.302 246.66 29.2783 246.66 30.2545C246.66 31.2307 246.75 32.207 246.869 33.1536L240.566 38.0348C239.999 38.4786 239.85 39.2773 240.208 39.9281L246.182 50.1638C246.54 50.8147 247.347 51.0513 248.004 50.8147L255.442 47.8564C256.995 49.0397 258.668 50.0159 260.49 50.7555L261.625 58.595C261.714 59.305 262.342 59.8375 263.088 59.8375H275.036C275.783 59.8375 276.41 59.305 276.5 58.595L277.635 50.7555C279.457 50.0159 281.13 49.0101 282.683 47.8564L290.121 50.8147C290.808 51.0809 291.584 50.8147 291.943 50.1638L297.917 39.9281C298.275 39.2773 298.126 38.4786 297.558 38.0348L291.256 33.1536ZM269.062 40.6085C263.297 40.6085 258.608 35.964 258.608 30.2545C258.608 24.545 263.297 19.9005 269.062 19.9005C274.827 19.9005 279.517 24.545 279.517 30.2545C279.517 35.964 274.827 40.6085 269.062 40.6085Z" fill="#AFC9FF"/>
<path d="M403.379 150.554C403.459 149.911 403.52 149.269 403.52 148.587C403.52 147.904 403.459 147.262 403.379 146.619L407.619 143.307C408.001 143.006 408.101 142.464 407.86 142.022L403.841 135.077C403.6 134.635 403.057 134.474 402.615 134.635L397.612 136.642C396.567 135.839 395.442 135.177 394.216 134.675L393.452 129.356C393.419 129.119 393.301 128.903 393.119 128.748C392.938 128.593 392.706 128.509 392.468 128.512H384.43C383.928 128.512 383.506 128.874 383.445 129.356L382.682 134.675C381.456 135.177 380.331 135.86 379.286 136.642L374.282 134.635C373.82 134.454 373.298 134.635 373.057 135.077L369.038 142.022C368.777 142.464 368.897 143.006 369.279 143.307L373.519 146.619C373.438 147.262 373.378 147.924 373.378 148.587C373.378 149.249 373.438 149.911 373.519 150.554L369.279 153.866C368.897 154.167 368.797 154.709 369.038 155.151L373.057 162.096C373.298 162.538 373.84 162.699 374.282 162.538L379.286 160.531C380.331 161.334 381.456 161.996 382.682 162.498L383.445 167.818C383.506 168.299 383.928 168.661 384.43 168.661H392.468C392.97 168.661 393.392 168.299 393.452 167.818L394.216 162.498C395.442 161.996 396.567 161.314 397.612 160.531L402.615 162.538C403.077 162.719 403.6 162.538 403.841 162.096L407.86 155.151C408.101 154.709 408.001 154.167 407.619 153.866L403.379 150.554ZM388.449 155.613C384.571 155.613 381.416 152.461 381.416 148.587C381.416 144.712 384.571 141.561 388.449 141.561C392.327 141.561 395.482 144.712 395.482 148.587C395.482 152.461 392.327 155.613 388.449 155.613Z" fill="#AFC9FF"/>
<g filter="url(#filter1_dddddd_0_1)">
<path d="M264.891 53.5127H388.118V142.012C388.118 146.13 384.78 149.468 380.662 149.468H272.347C268.229 149.468 264.891 146.13 264.891 142.012V53.5127Z" fill="#EDF1F8"/>
<path d="M388.117 53.5127H264.891V33.8132C264.891 29.6955 268.229 26.3574 272.347 26.3574H380.662C384.779 26.3574 388.117 29.6955 388.117 33.8132V53.5127Z" fill="#0D36C7"/>
<circle cx="276.272" cy="39.6424" r="2.79593" fill="white"/>
<circle cx="285.592" cy="39.6424" r="2.79593" fill="white"/>
<circle cx="294.912" cy="39.6424" r="2.79593" fill="white"/>
<g clip-path="url(#clip1_0_1)">
<path d="M313.7 80.3613H312.114C311.561 80.3613 311.112 80.8102 311.112 81.364C311.112 81.9177 311.561 82.3667 312.114 82.3667H313.7C314.254 82.3667 314.703 81.9177 314.703 81.364C314.703 80.8102 314.254 80.3613 313.7 80.3613Z" fill="#3B5998"/>
<path d="M340.311 82.3665H341.897C342.451 82.3665 342.9 81.9176 342.9 81.3638C342.9 80.81 342.451 80.3611 341.897 80.3611H340.311C339.758 80.3611 339.309 80.81 339.309 81.3638C339.309 81.9176 339.758 82.3665 340.311 82.3665Z" fill="#3B5998"/>
<path d="M360.728 92.3149C360.649 90.1529 358.792 88.394 356.588 88.394H344.667C343.581 88.394 342.56 88.8173 341.791 89.5862C341.022 90.3549 340.599 91.3763 340.599 92.4622C340.599 93.4689 340.97 94.4351 341.643 95.1819C342.521 96.1582 342.603 97.8109 341.824 98.7969C341.808 98.8164 341.792 98.8362 341.776 98.8569C340.951 99.8719 339.688 100.345 338.421 100.158V98.8238C338.421 96.7905 337.067 95.0684 335.213 94.5105V92.5556C335.213 89.3637 337.809 86.767 341 86.767C342.369 86.767 343.607 86.1962 344.491 85.2812C344.526 85.2753 344.566 85.2697 344.61 85.264C345.781 85.1168 346.949 85.609 347.66 86.5484C347.851 86.8004 348.148 86.9456 348.459 86.9456C348.5 86.9456 348.541 86.943 348.582 86.9379C348.937 86.8941 349.242 86.6647 349.382 86.3357C349.746 85.4803 349.877 84.5363 349.761 83.6048C349.441 81.0749 347.365 79.141 344.857 78.9678C343.969 77.8076 342.571 77.0573 341 77.0573H330.673C329.209 77.0573 328.018 78.2484 328.018 79.7123C328.018 80.4214 328.294 81.0882 328.795 81.5898C329.018 81.8122 329.273 81.9903 329.55 82.1195C328.222 83.5738 327.194 85.2538 326.506 87.0698C325.817 85.2538 324.789 83.5738 323.461 82.1195C323.738 81.9903 323.993 81.8122 324.216 81.5898C324.717 81.0883 324.993 80.4216 324.993 79.7123C324.993 78.2484 323.802 77.0573 322.338 77.0573H312.011C310.441 77.0573 309.043 77.807 308.155 78.9667C305.64 79.1333 303.556 81.0701 303.236 83.6058C303.119 84.5363 303.25 85.4803 303.615 86.3357C303.755 86.6647 304.059 86.8942 304.414 86.9379C304.455 86.943 304.496 86.9456 304.537 86.9456C304.849 86.9456 305.145 86.8004 305.336 86.5484C306.048 85.609 307.217 85.1172 308.384 85.2636C308.438 85.2704 308.483 85.2772 308.523 85.2842C309.407 86.1974 310.643 86.7668 312.011 86.7668C315.202 86.7668 317.799 89.3636 317.799 92.5555V94.5101C315.945 95.0675 314.59 96.7893 314.59 98.8223V100.158C313.322 100.345 312.057 99.8722 311.233 98.8561C311.217 98.8361 311.202 98.8169 311.186 98.7974C310.406 97.8116 310.488 96.1583 311.365 95.1827C312.039 94.435 312.41 93.4686 312.41 92.4619C312.41 91.3759 311.987 90.3545 311.218 89.5859C310.45 88.8172 309.428 88.3939 308.342 88.3939H304.083C303.529 88.3939 303.08 88.8428 303.08 89.3966C303.08 89.9503 303.529 90.3993 304.083 90.3993H308.342C308.893 90.3993 309.41 90.614 309.8 91.004C310.19 91.394 310.405 91.9118 310.405 92.4621C310.405 92.972 310.217 93.4614 309.875 93.8411C308.327 95.5619 308.217 98.2914 309.624 100.055C309.628 100.061 309.634 100.067 309.638 100.073L309.653 100.091C309.658 100.097 309.663 100.103 309.668 100.109C310.765 101.468 312.364 102.209 314.037 102.209C314.22 102.209 314.405 102.199 314.59 102.181V108.009C314.13 107.992 313.645 107.931 313.167 107.926C311.484 107.926 309.893 108.739 308.912 110.102C308.905 110.112 308.898 110.121 308.892 110.131C308.508 110.707 307.865 111.05 307.172 111.05C306.761 111.05 306.363 110.928 306.021 110.696C305.083 110.064 304.851 108.754 305.503 107.776L306.073 106.921C306.339 106.523 306.286 105.993 305.949 105.655C305.611 105.317 305.081 105.265 304.683 105.53L303.113 106.576C302.772 106.803 302.377 106.923 301.972 106.923C301.27 106.923 300.622 106.572 300.239 105.984C299.626 105.043 299.915 103.751 300.882 103.105L301.989 102.367C302.395 102.096 302.548 101.573 302.35 101.127C302.153 100.681 301.663 100.442 301.19 100.56L298.173 101.315C298.004 101.356 297.834 101.378 297.667 101.378C296.711 101.378 295.865 100.698 295.657 99.76C295.416 98.6795 296.124 97.574 297.235 97.2958L300.417 96.5003C300.908 96.3774 301.231 95.9076 301.169 95.4051C301.107 94.9025 300.68 94.525 300.174 94.525H296.348C295.783 94.525 295.255 94.301 294.863 93.8943C294.471 93.488 294.266 92.9526 294.286 92.3876C294.325 91.2913 295.283 90.3994 296.421 90.3994H300.072C300.626 90.3994 301.075 89.9505 301.075 89.3967C301.075 88.843 300.626 88.394 300.072 88.394H296.421C294.18 88.394 292.361 90.1163 292.282 92.3158C292.242 93.4305 292.647 94.4856 293.42 95.287C293.864 95.7468 294.395 96.088 294.977 96.2955C293.913 97.2565 293.374 98.7359 293.699 100.196C294.11 102.043 295.779 103.383 297.667 103.383C297.85 103.383 298.033 103.37 298.217 103.345C297.734 104.542 297.816 105.937 298.558 107.079C299.313 108.237 300.589 108.928 301.972 108.928C302.369 108.928 302.76 108.871 303.136 108.758C303.059 110.15 303.682 111.537 304.898 112.357C305.572 112.814 306.359 113.055 307.172 113.055C308.531 113.055 309.791 112.385 310.549 111.261C311.155 110.428 312.132 109.931 313.167 109.931C313.647 109.945 314.133 110.001 314.59 110.017V110.211C314.59 110.507 314.611 110.798 314.647 111.086C312.368 111.695 310.713 113.765 310.713 116.222V119.689C310.713 121.212 311.798 122.5 313.22 122.775V123.501L309.253 124.491C308.542 123.649 307.491 123.15 306.36 123.15C306.012 123.15 305.67 123.198 305.343 123.288L302.435 118.434C302.785 117.976 302.996 117.406 302.996 116.787C302.996 115.289 301.777 114.07 300.279 114.07C298.78 114.07 297.561 115.289 297.561 116.787C297.561 118.285 298.78 119.504 300.279 119.504C300.428 119.504 300.573 119.489 300.715 119.466L303.623 124.32C302.945 125.029 302.572 125.956 302.572 126.939C302.572 127.95 302.965 128.901 303.681 129.618C304.396 130.334 305.348 130.727 306.36 130.727C306.792 130.727 307.217 130.654 307.623 130.51C307.91 130.408 308.181 130.273 308.434 130.108C308.531 130.095 308.627 130.076 308.722 130.052L316.49 128.113C317.665 127.82 318.486 126.77 318.486 125.558V122.776C319.092 122.665 319.65 122.375 320.096 121.929C320.675 121.348 320.993 120.577 320.993 119.757V117.102C321.206 117.121 321.421 117.131 321.637 117.131C321.973 117.131 322.301 117.175 322.614 117.256L319.77 126.679C319.681 126.976 319.635 127.283 319.635 127.59C319.635 129.32 321.045 130.728 322.777 130.728C323.6 130.728 324.379 130.411 324.97 129.836L326.505 128.339L328.041 129.837C328.621 130.405 329.424 130.73 330.234 130.728C331.237 130.728 332.157 130.266 332.755 129.46C333.354 128.654 333.531 127.64 333.241 126.679L330.397 117.255C330.709 117.174 331.036 117.131 331.371 117.131C331.694 117.131 332.013 117.108 332.328 117.067V119.757C332.328 120.576 332.647 121.348 333.227 121.93C333.672 122.375 334.23 122.665 334.836 122.776V125.558C334.836 126.77 335.657 127.82 336.831 128.112L344.289 129.975C344.941 130.462 345.735 130.728 346.552 130.728C347.565 130.728 348.516 130.334 349.233 129.618C349.707 129.142 350.039 128.562 350.209 127.93C351.396 127.855 352.5 127.359 353.348 126.512C354.271 125.589 354.779 124.362 354.779 123.058C354.779 121.752 354.271 120.525 353.349 119.605C352.668 118.923 351.82 118.468 350.897 118.276V117.122H351.564C352.118 117.122 352.567 116.673 352.567 116.119C352.567 115.565 352.118 115.116 351.564 115.116H350.897V114.398C350.897 113.845 350.449 113.396 349.895 113.396C349.341 113.396 348.892 113.845 348.892 114.398V115.116H348.225C347.671 115.116 347.222 115.565 347.222 116.119C347.222 116.673 347.671 117.122 348.225 117.122H348.892V118.277C346.678 118.741 345.011 120.708 345.011 123.058C345.011 123.197 345.018 123.335 345.03 123.473C344.54 123.689 344.097 124.007 343.735 124.409L340.102 123.501V122.775C341.523 122.502 342.61 121.213 342.61 119.689V116.223C342.61 113.661 340.789 111.516 338.373 111.015C338.404 110.749 338.421 110.48 338.421 110.208V110.017C338.878 110.001 339.362 109.946 339.842 109.931C340.877 109.931 341.855 110.428 342.461 111.261C343.218 112.385 344.479 113.056 345.837 113.056C346.651 113.056 347.437 112.814 348.11 112.359C349.327 111.538 349.95 110.151 349.874 108.758C350.249 108.871 350.64 108.929 351.037 108.929C352.42 108.929 353.697 108.237 354.451 107.079C355.194 105.938 355.276 104.543 354.793 103.346C354.976 103.371 355.16 103.384 355.342 103.384C357.231 103.384 358.9 102.043 359.31 100.197C359.635 98.7367 359.096 97.2571 358.032 96.296C358.614 96.0885 359.146 95.7472 359.589 95.2874C360.363 94.4856 360.767 93.4305 360.728 92.3149ZM347.771 83.8551C347.778 83.9067 347.783 83.9583 347.787 84.0099C347.141 83.6174 346.415 83.3651 345.66 83.2731C345.786 82.8408 345.856 82.3842 345.856 81.9116C345.856 81.6828 345.839 81.4581 345.808 81.2378C346.848 81.6927 347.621 82.6674 347.771 83.8551ZM332.165 82.3665H335.298C335.851 82.3665 336.3 81.9176 336.3 81.3638C336.3 80.8101 335.851 80.3611 335.298 80.3611L330.673 80.3606C330.498 80.3606 330.335 80.2935 330.213 80.1717C330.091 80.049 330.023 79.8857 330.023 79.7122C330.023 79.3539 330.315 79.0624 330.673 79.0624H341C342.572 79.0624 343.85 80.3404 343.85 81.9113C343.85 83.4829 342.572 84.7615 341 84.7615C336.703 84.7615 333.207 88.2579 333.207 92.5555V94.3196H327.508V92.5555C327.508 88.6333 329.201 84.94 332.165 82.3665ZM305.21 84.0099C305.214 83.9586 305.22 83.9072 305.226 83.856C305.377 82.6619 306.157 81.6834 307.204 81.2311C307.173 81.4535 307.156 81.6806 307.156 81.9116C307.156 82.3837 307.225 82.8396 307.351 83.2714C306.591 83.3619 305.86 83.6148 305.21 84.0099ZM312.011 84.7617C310.44 84.7617 309.161 83.483 309.161 81.9114C309.161 80.3405 310.44 79.0626 312.011 79.0626H322.339C322.697 79.0626 322.988 79.354 322.988 79.7123C322.988 79.886 322.921 80.0491 322.798 80.1717C322.676 80.2935 322.513 80.3606 322.339 80.3606L317.714 80.3611C317.16 80.3611 316.711 80.8101 316.711 81.3638C316.711 81.9176 317.16 82.3665 317.714 82.3665H320.846C323.81 84.94 325.503 88.6333 325.503 92.5556V94.3197H319.804V92.5556C319.804 88.258 316.308 84.7617 312.011 84.7617ZM299.567 116.787C299.567 116.395 299.886 116.075 300.278 116.075C300.671 116.075 300.99 116.395 300.99 116.787C300.99 117.18 300.671 117.499 300.278 117.499C299.886 117.499 299.567 117.18 299.567 116.787ZM316.005 126.167L308.234 128.107C308.184 128.12 308.133 128.126 308.08 128.126C307.855 128.126 307.637 128.201 307.46 128.34C307.306 128.461 307.135 128.556 306.951 128.621C306.762 128.688 306.563 128.722 306.36 128.722C305.883 128.722 305.435 128.537 305.1 128.201C304.763 127.863 304.577 127.415 304.577 126.939C304.577 126.463 304.763 126.014 305.099 125.677C305.435 125.341 305.883 125.155 306.36 125.155C307.021 125.155 307.625 125.519 307.936 126.104C308.152 126.51 308.618 126.717 309.064 126.606L314.465 125.257C314.912 125.145 315.225 124.744 315.225 124.284V122.469C315.45 122.349 315.662 122.203 315.854 122.027C316.043 122.199 316.254 122.346 316.48 122.467V125.558C316.48 125.847 316.285 126.097 316.005 126.167ZM318.988 119.757C318.988 120.042 318.877 120.311 318.677 120.512C318.475 120.713 318.207 120.824 317.922 120.824C317.334 120.824 316.856 120.345 316.856 119.757C316.856 119.203 316.407 118.754 315.853 118.754C315.3 118.754 314.851 119.203 314.851 119.757C314.851 120.045 314.737 120.315 314.532 120.518C314.326 120.72 314.056 120.829 313.764 120.824C313.187 120.813 312.718 120.304 312.718 119.689V116.222C312.718 114.685 313.758 113.391 315.186 113.018C315.536 113.801 316.035 114.519 316.67 115.136C317.344 115.789 318.131 116.293 318.988 116.631V119.757ZM331.146 128.264C330.929 128.555 330.597 128.722 330.234 128.722C329.942 128.723 329.65 128.606 329.441 128.4L327.206 126.221C326.816 125.841 326.195 125.841 325.806 126.221L323.571 128.4C323.357 128.608 323.075 128.722 322.777 128.722C322.151 128.722 321.641 128.215 321.641 127.59C321.641 127.479 321.657 127.367 321.69 127.258L324.397 118.29C324.867 118.769 325.218 119.373 325.389 120.061C325.517 120.576 325.976 120.936 326.506 120.936C327.035 120.936 327.493 120.576 327.622 120.061C327.793 119.373 328.144 118.769 328.614 118.289L331.321 127.258C331.426 127.606 331.362 127.972 331.146 128.264ZM331.37 115.126C329.372 115.127 327.571 116.128 326.506 117.708C325.439 116.128 323.638 115.127 321.639 115.126C318.811 115.124 316.596 112.966 316.596 110.211V98.8224C316.596 97.4454 317.716 96.3251 319.093 96.3251H333.918C335.295 96.3251 336.416 97.446 336.416 98.8238V110.207C336.416 112.963 334.199 115.123 331.37 115.126ZM349.894 120.178C350.664 120.178 351.387 120.478 351.931 121.023C352.475 121.566 352.774 122.289 352.774 123.058C352.774 123.826 352.474 124.549 351.93 125.094C351.46 125.564 350.855 125.85 350.202 125.919C350.029 125.299 349.7 124.729 349.232 124.259C348.628 123.656 347.856 123.282 347.02 123.18C347.019 123.139 347.016 123.099 347.016 123.058C347.016 121.47 348.307 120.178 349.894 120.178ZM343.9 126.517C344.334 126.626 344.787 126.434 345.011 126.047C345.329 125.497 345.92 125.155 346.552 125.155C347.029 125.155 347.477 125.341 347.813 125.676C348.15 126.014 348.336 126.463 348.336 126.939C348.336 127.415 348.15 127.863 347.814 128.2C347.477 128.537 347.029 128.722 346.552 128.722C346.123 128.722 345.723 128.574 345.396 128.294C345.278 128.192 345.137 128.12 344.986 128.082L337.316 126.166C337.036 126.097 336.841 125.847 336.841 125.558V122.467C337.068 122.346 337.279 122.199 337.468 122.027C337.66 122.203 337.872 122.349 338.096 122.469V124.284C338.096 124.744 338.41 125.145 338.856 125.257L343.9 126.517ZM340.604 116.222V119.689C340.604 120.304 340.135 120.813 339.559 120.824C339.271 120.828 338.997 120.721 338.791 120.518C338.585 120.316 338.472 120.046 338.472 119.757C338.472 119.203 338.023 118.754 337.469 118.754C336.915 118.754 336.467 119.203 336.467 119.757C336.467 120.345 335.988 120.824 335.4 120.824C335.114 120.824 334.846 120.713 334.646 120.513C334.444 120.311 334.333 120.042 334.333 119.757V116.499C335.07 116.166 335.749 115.708 336.341 115.134C336.992 114.502 337.5 113.764 337.851 112.958C339.412 113.225 340.604 114.587 340.604 116.222ZM358.147 93.8942C357.754 94.3009 357.227 94.525 356.662 94.525H352.836C352.329 94.525 351.902 94.9025 351.84 95.4051C351.779 95.9076 352.101 96.3774 352.592 96.5003L355.774 97.2956C356.885 97.574 357.594 98.6795 357.353 99.7604C357.144 100.698 356.299 101.378 355.342 101.378C355.176 101.378 355.006 101.357 354.839 101.316L351.819 100.56C351.347 100.442 350.857 100.681 350.659 101.127C350.462 101.573 350.614 102.097 351.02 102.367L352.127 103.105C353.095 103.751 353.384 105.043 352.771 105.984C352.388 106.572 351.74 106.923 351.037 106.923C350.632 106.923 350.238 106.803 349.897 106.577L348.326 105.53C347.928 105.265 347.399 105.317 347.061 105.655C346.723 105.994 346.671 106.523 346.936 106.921L347.507 107.776C348.158 108.754 347.926 110.064 346.987 110.697C346.646 110.928 346.248 111.05 345.837 111.05C345.144 111.05 344.501 110.707 344.118 110.132C344.111 110.122 344.104 110.112 344.097 110.102C343.116 108.739 341.526 107.926 339.842 107.926C339.364 107.931 338.881 107.992 338.421 108.009V102.181C340.288 102.363 342.124 101.617 343.341 100.11C343.347 100.103 343.352 100.097 343.357 100.09L343.371 100.074C343.376 100.068 343.381 100.061 343.386 100.055C344.792 98.2915 344.682 95.562 343.134 93.8402C342.792 93.4614 342.604 92.972 342.604 92.4621C342.604 91.9118 342.819 91.394 343.209 91.004C343.599 90.614 344.117 90.3993 344.667 90.3993H356.588C357.726 90.3993 358.684 91.2912 358.724 92.3865C358.744 92.9524 358.539 93.4879 358.147 93.8942Z" fill="#3B5998"/>
<path d="M335.078 109.44C335.078 108.887 334.63 108.438 334.076 108.438C333.522 108.438 333.073 108.887 333.073 109.44V110.208C333.073 111.091 332.323 111.783 331.367 111.784C329.63 111.784 327.963 112.261 326.505 113.169C325.047 112.261 323.379 111.784 321.641 111.784C320.67 111.783 319.938 111.107 319.938 110.212V99.668H333.073V105.43C333.073 105.984 333.522 106.433 334.076 106.433C334.629 106.433 335.078 105.984 335.078 105.43V98.8244C335.078 98.1837 334.558 97.6626 333.918 97.6626H319.092C318.453 97.6626 317.933 98.1832 317.933 98.823V110.212C317.933 112.216 319.561 113.788 321.64 113.789C323.19 113.789 324.667 114.273 325.911 115.187C326.088 115.317 326.297 115.382 326.505 115.382C326.714 115.382 326.922 115.317 327.099 115.187C328.343 114.273 329.819 113.789 331.368 113.789C333.449 113.788 335.079 112.214 335.079 110.208V109.44H335.078Z" fill="#3B5998"/>
<path d="M318.724 75.7209H334.287C334.841 75.7209 335.29 75.272 335.29 74.7182C335.29 74.1645 334.841 73.7155 334.287 73.7155H333.968L334.429 71.7959C334.804 70.2344 334.449 68.6156 333.455 67.3543C332.461 66.0932 330.97 65.3699 329.364 65.3699H327.508V63.2822C327.508 62.7284 327.06 62.2794 326.506 62.2794C325.952 62.2794 325.503 62.7284 325.503 63.2822V65.3701H323.648C322.042 65.3701 320.551 66.0933 319.556 67.3546C318.562 68.6158 318.207 70.2347 318.582 71.7962L319.043 73.7158H318.724C318.17 73.7158 317.721 74.1647 317.721 74.7185C317.721 75.2722 318.17 75.7209 318.724 75.7209ZM328.187 67.3753L327.165 73.7156H325.846L324.825 67.3753H328.187ZM331.88 68.596C332.492 69.3717 332.71 70.3674 332.479 71.3277L331.906 73.7156H329.196L330.2 67.4862C330.858 67.6626 331.446 68.0454 331.88 68.596ZM320.532 71.3277C320.301 70.3674 320.52 69.3717 321.131 68.596C321.565 68.0454 322.154 67.6626 322.812 67.4862L323.815 73.7156H321.106L320.532 71.3277Z" fill="#3B5998"/>
</g>
</g>
<defs>
<filter id="filter0_dddddd_0_1" x="93.1729" y="4.87793" width="466.662" height="361.851" filterUnits="userSpaceOnUse" color-interpolation-filters="sRGB">
<feFlood flood-opacity="0" result="BackgroundImageFix"/>
<feColorMatrix in="SourceAlpha" type="matrix" values="0 0 0 0 0 0 0 0 0 0 0 0 0 0 0 0 0 0 127 0" result="hardAlpha"/>
<feOffset dy="2.76726"/>
<feGaussianBlur stdDeviation="1.1069"/>
<feColorMatrix type="matrix" values="0 0 0 0 0.482353 0 0 0 0 0.529412 0 0 0 0 0.654902 0 0 0 0.0196802 0"/>
<feBlend mode="normal" in2="BackgroundImageFix" result="effect1_dropShadow_0_1"/>
<feColorMatrix in="SourceAlpha" type="matrix" values="0 0 0 0 0 0 0 0 0 0 0 0 0 0 0 0 0 0 127 0" result="hardAlpha"/>
<feOffset dy="6.6501"/>
<feGaussianBlur stdDeviation="2.66004"/>
<feColorMatrix type="matrix" values="0 0 0 0 0.482353 0 0 0 0 0.529412 0 0 0 0 0.654902 0 0 0 0.0282725 0"/>
<feBlend mode="normal" in2="effect1_dropShadow_0_1" result="effect2_dropShadow_0_1"/>
<feColorMatrix in="SourceAlpha" type="matrix" values="0 0 0 0 0 0 0 0 0 0 0 0 0 0 0 0 0 0 127 0" result="hardAlpha"/>
<feOffset dy="12.5216"/>
<feGaussianBlur stdDeviation="5.00862"/>
<feColorMatrix type="matrix" values="0 0 0 0 0.482353 0 0 0 0 0.529412 0 0 0 0 0.654902 0 0 0 0.035 0"/>
<feBlend mode="normal" in2="effect2_dropShadow_0_1" result="effect3_dropShadow_0_1"/>
<feColorMatrix in="SourceAlpha" type="matrix" values="0 0 0 0 0 0 0 0 0 0 0 0 0 0 0 0 0 0 127 0" result="hardAlpha"/>
<feOffset dy="22.3363"/>
<feGaussianBlur stdDeviation="8.93452"/>
<feColorMatrix type="matrix" values="0 0 0 0 0.482353 0 0 0 0 0.529412 0 0 0 0 0.654902 0 0 0 0.0417275 0"/>
<feBlend mode="normal" in2="effect3_dropShadow_0_1" result="effect4_dropShadow_0_1"/>
<feColorMatrix in="SourceAlpha" type="matrix" values="0 0 0 0 0 0 0 0 0 0 0 0 0 0 0 0 0 0 127 0" result="hardAlpha"/>
<feOffset dy="41.7776"/>
<feGaussianBlur stdDeviation="16.711"/>
<feColorMatrix type="matrix" values="0 0 0 0 0.482353 0 0 0 0 0.529412 0 0 0 0 0.654902 0 0 0 0.0503198 0"/>
<feBlend mode="normal" in2="effect4_dropShadow_0_1" result="effect5_dropShadow_0_1"/>
<feColorMatrix in="SourceAlpha" type="matrix" values="0 0 0 0 0 0 0 0 0 0 0 0 0 0 0 0 0 0 127 0" result="hardAlpha"/>
<feOffset dy="100"/>
<feGaussianBlur stdDeviation="40"/>
<feColorMatrix type="matrix" values="0 0 0 0 0.482353 0 0 0 0 0.529412 0 0 0 0 0.654902 0 0 0 0.07 0"/>
<feBlend mode="normal" in2="effect5_dropShadow_0_1" result="effect6_dropShadow_0_1"/>
<feBlend mode="normal" in="SourceGraphic" in2="effect6_dropShadow_0_1" result="shape"/>
</filter>
<filter id="filter1_dddddd_0_1" x="184.891" y="26.3574" width="283.227" height="303.11" filterUnits="userSpaceOnUse" color-interpolation-filters="sRGB">
<feFlood flood-opacity="0" result="BackgroundImageFix"/>
<feColorMatrix in="SourceAlpha" type="matrix" values="0 0 0 0 0 0 0 0 0 0 0 0 0 0 0 0 0 0 127 0" result="hardAlpha"/>
<feOffset dy="2.76726"/>
<feGaussianBlur stdDeviation="1.1069"/>
<feColorMatrix type="matrix" values="0 0 0 0 0.482353 0 0 0 0 0.529412 0 0 0 0 0.654902 0 0 0 0.0196802 0"/>
<feBlend mode="normal" in2="BackgroundImageFix" result="effect1_dropShadow_0_1"/>
<feColorMatrix in="SourceAlpha" type="matrix" values="0 0 0 0 0 0 0 0 0 0 0 0 0 0 0 0 0 0 127 0" result="hardAlpha"/>
<feOffset dy="6.6501"/>
<feGaussianBlur stdDeviation="2.66004"/>
<feColorMatrix type="matrix" values="0 0 0 0 0.482353 0 0 0 0 0.529412 0 0 0 0 0.654902 0 0 0 0.0282725 0"/>
<feBlend mode="normal" in2="effect1_dropShadow_0_1" result="effect2_dropShadow_0_1"/>
<feColorMatrix in="SourceAlpha" type="matrix" values="0 0 0 0 0 0 0 0 0 0 0 0 0 0 0 0 0 0 127 0" result="hardAlpha"/>
<feOffset dy="12.5216"/>
<feGaussianBlur stdDeviation="5.00862"/>
<feColorMatrix type="matrix" values="0 0 0 0 0.482353 0 0 0 0 0.529412 0 0 0 0 0.654902 0 0 0 0.035 0"/>
<feBlend mode="normal" in2="effect2_dropShadow_0_1" result="effect3_dropShadow_0_1"/>
<feColorMatrix in="SourceAlpha" type="matrix" values="0 0 0 0 0 0 0 0 0 0 0 0 0 0 0 0 0 0 127 0" result="hardAlpha"/>
<feOffset dy="22.3363"/>
<feGaussianBlur stdDeviation="8.93452"/>
<feColorMatrix type="matrix" values="0 0 0 0 0.482353 0 0 0 0 0.529412 0 0 0 0 0.654902 0 0 0 0.0417275 0"/>
<feBlend mode="normal" in2="effect3_dropShadow_0_1" result="effect4_dropShadow_0_1"/>
<feColorMatrix in="SourceAlpha" type="matrix" values="0 0 0 0 0 0 0 0 0 0 0 0 0 0 0 0 0 0 127 0" result="hardAlpha"/>
<feOffset dy="41.7776"/>
<feGaussianBlur stdDeviation="16.711"/>
<feColorMatrix type="matrix" values="0 0 0 0 0.482353 0 0 0 0 0.529412 0 0 0 0 0.654902 0 0 0 0.0503198 0"/>
<feBlend mode="normal" in2="effect4_dropShadow_0_1" result="effect5_dropShadow_0_1"/>
<feColorMatrix in="SourceAlpha" type="matrix" values="0 0 0 0 0 0 0 0 0 0 0 0 0 0 0 0 0 0 127 0" result="hardAlpha"/>
<feOffset dy="100"/>
<feGaussianBlur stdDeviation="40"/>
<feColorMatrix type="matrix" values="0 0 0 0 0.482353 0 0 0 0 0.529412 0 0 0 0 0.654902 0 0 0 0.07 0"/>
<feBlend mode="normal" in2="effect5_dropShadow_0_1" result="effect6_dropShadow_0_1"/>
<feBlend mode="normal" in="SourceGraphic" in2="effect6_dropShadow_0_1" result="shape"/>
</filter>
<clipPath id="clip0_0_1">
<rect width="56.2205" height="56.2205" fill="white" transform="translate(23.2625 58.3649)"/>
</clipPath>
<clipPath id="clip1_0_1">
<rect width="68.4514" height="68.4514" fill="white" transform="translate(292.279 62.2778)"/>
</clipPath>
</defs>
</svg>
