<svg width="467" height="367" viewBox="0 0 467 367" fill="none" xmlns="http://www.w3.org/2000/svg">
<g filter="url(#filter0_dddddd_326_276)">
<path d="M102.98 9.20654C102.98 6.44512 105.219 4.20654 107.98 4.20654H358.799C361.561 4.20654 363.799 6.44512 363.799 9.20654V169.195H102.98V9.20654Z" fill="#0F2C46"/>
<rect x="110.437" y="12.8589" width="246.597" height="148.764" fill="#5096FF"/>
<path d="M80.4043 169.194H387.066V179.058C387.066 182.924 383.932 186.058 380.066 186.058H87.4043C83.5383 186.058 80.4043 182.924 80.4043 179.058V169.194Z" fill="#C4C4C4"/>
</g>
<path d="M198.487 32.4822C198.607 31.5356 198.696 30.5889 198.696 29.5831C198.696 28.5773 198.607 27.6306 198.487 26.684L204.79 21.8028C205.357 21.359 205.507 20.5603 205.148 19.9095L199.174 9.67377C198.816 9.02294 198.009 8.78628 197.352 9.02294L189.914 11.9812C188.361 10.7979 186.688 9.82168 184.866 9.08211L183.731 1.24262C183.682 0.894554 183.506 0.576298 183.237 0.347549C182.967 0.1188 182.623 -0.00472657 182.268 0.000138416H170.32C169.573 0.000138416 168.946 0.532632 168.856 1.24262L167.721 9.08211C165.899 9.82168 164.226 10.8275 162.673 11.9812L155.236 9.02294C154.549 8.7567 153.772 9.02294 153.413 9.67377L147.44 19.9095C147.051 20.5603 147.23 21.359 147.798 21.8028L154.1 26.684C153.981 27.6306 153.891 28.6069 153.891 29.5831C153.891 30.5593 153.981 31.5356 154.1 32.4822L147.798 37.3634C147.23 37.8072 147.081 38.6059 147.44 39.2567L153.413 49.4924C153.772 50.1433 154.578 50.3799 155.236 50.1433L162.673 47.185C164.226 48.3683 165.899 49.3445 167.721 50.0841L168.856 57.9236C168.946 58.6336 169.573 59.1661 170.32 59.1661H182.268C183.015 59.1661 183.642 58.6336 183.731 57.9236L184.866 50.0841C186.688 49.3445 188.361 48.3387 189.914 47.185L197.352 50.1433C198.039 50.4095 198.816 50.1433 199.174 49.4924L205.148 39.2567C205.507 38.6059 205.357 37.8072 204.79 37.3634L198.487 32.4822ZM176.294 39.9371C170.529 39.9371 165.839 35.2926 165.839 29.5831C165.839 23.8736 170.529 19.2291 176.294 19.2291C182.059 19.2291 186.748 23.8736 186.748 29.5831C186.748 35.2926 182.059 39.9371 176.294 39.9371Z" fill="#AFC9FF"/>
<path d="M310.61 149.882C310.691 149.24 310.751 148.598 310.751 147.915C310.751 147.233 310.691 146.59 310.61 145.948L314.85 142.636C315.232 142.334 315.332 141.792 315.091 141.351L311.072 134.405C310.831 133.964 310.289 133.803 309.847 133.964L304.843 135.971C303.798 135.168 302.673 134.506 301.447 134.004L300.684 128.684C300.65 128.448 300.532 128.232 300.351 128.077C300.17 127.921 299.938 127.838 299.699 127.841H291.661C291.159 127.841 290.737 128.202 290.677 128.684L289.913 134.004C288.687 134.506 287.562 135.188 286.517 135.971L281.514 133.964C281.052 133.783 280.529 133.964 280.288 134.405L276.269 141.351C276.008 141.792 276.129 142.334 276.51 142.636L280.75 145.948C280.67 146.59 280.61 147.253 280.61 147.915C280.61 148.578 280.67 149.24 280.75 149.882L276.51 153.195C276.129 153.496 276.028 154.038 276.269 154.479L280.288 161.425C280.529 161.867 281.072 162.027 281.514 161.867L286.517 159.859C287.562 160.662 288.687 161.325 289.913 161.826L290.677 167.146C290.737 167.628 291.159 167.989 291.661 167.989H299.699C300.201 167.989 300.623 167.628 300.684 167.146L301.447 161.826C302.673 161.325 303.798 160.642 304.843 159.859L309.847 161.867C310.309 162.047 310.831 161.867 311.072 161.425L315.091 154.479C315.332 154.038 315.232 153.496 314.85 153.195L310.61 149.882ZM295.68 154.941C291.802 154.941 288.647 151.789 288.647 147.915C288.647 144.041 291.802 140.889 295.68 140.889C299.558 140.889 302.713 144.041 302.713 147.915C302.713 151.789 299.558 154.941 295.68 154.941Z" fill="#AFC9FF"/>
<g filter="url(#filter1_dddddd_326_276)">
<path d="M172.122 52.8413H295.349V141.341C295.349 145.458 292.01 148.796 287.893 148.796H179.578C175.46 148.796 172.122 145.458 172.122 141.341V52.8413Z" fill="#EDF1F8"/>
<path d="M295.349 52.8413H172.122V33.1418C172.122 29.0241 175.46 25.686 179.578 25.686H287.893C292.011 25.686 295.349 29.0241 295.349 33.1418V52.8413Z" fill="#0D36C7"/>
<circle cx="183.503" cy="38.9712" r="2.79593" fill="white"/>
<circle cx="192.823" cy="38.9712" r="2.79593" fill="white"/>
<circle cx="202.143" cy="38.9712" r="2.79593" fill="white"/>
<g clip-path="url(#clip0_326_276)">
<path d="M220.931 79.6899H219.345C218.792 79.6899 218.343 80.1389 218.343 80.6926C218.343 81.2464 218.792 81.6954 219.345 81.6954H220.931C221.485 81.6954 221.934 81.2464 221.934 80.6926C221.934 80.1389 221.485 79.6899 220.931 79.6899Z" fill="#3B5998"/>
<path d="M247.543 81.6954H249.128C249.682 81.6954 250.131 81.2464 250.131 80.6926C250.131 80.1389 249.682 79.6899 249.128 79.6899H247.543C246.989 79.6899 246.54 80.1389 246.54 80.6926C246.54 81.2464 246.989 81.6954 247.543 81.6954Z" fill="#3B5998"/>
<path d="M267.959 91.6433C267.881 89.4813 266.024 87.7225 263.82 87.7225H251.899C250.813 87.7225 249.791 88.1457 249.022 88.9146C248.253 89.6834 247.83 90.7048 247.83 91.7906C247.83 92.7974 248.201 93.7636 248.875 94.5104C249.752 95.4866 249.834 97.1393 249.055 98.1253C249.039 98.1449 249.023 98.1646 249.007 98.1854C248.182 99.2004 246.919 99.6733 245.652 99.4865V98.1522C245.652 96.119 244.298 94.3969 242.444 93.839V91.8841C242.444 88.6922 245.04 86.0954 248.231 86.0954C249.601 86.0954 250.839 85.5247 251.722 84.6097C251.758 84.6038 251.797 84.5982 251.842 84.5924C253.013 84.4452 254.18 84.9375 254.892 85.8768C255.083 86.1288 255.379 86.274 255.691 86.274C255.732 86.274 255.773 86.2715 255.814 86.2664C256.169 86.2226 256.473 85.9931 256.613 85.6641C256.978 84.8087 257.109 83.8647 256.992 82.9333C256.673 80.4034 254.597 78.4695 252.089 78.2962C251.2 77.136 249.802 76.3857 248.231 76.3857H237.904C236.44 76.3857 235.249 77.5768 235.249 79.0408C235.249 79.7499 235.525 80.4166 236.026 80.9182C236.249 81.1407 236.504 81.3188 236.782 81.4479C235.453 82.9023 234.425 84.5823 233.737 86.3982C233.049 84.5823 232.02 82.9023 230.692 81.4479C230.969 81.3188 231.225 81.1407 231.447 80.9182C231.949 80.4168 232.225 79.75 232.225 79.0408C232.225 77.5768 231.034 76.3857 229.57 76.3857H219.242C217.672 76.3857 216.274 77.1355 215.386 78.2952C212.871 78.4617 210.787 80.3986 210.467 82.9342C210.351 83.8647 210.482 84.8087 210.846 85.6641C210.986 85.9931 211.291 86.2227 211.645 86.2664C211.687 86.2715 211.728 86.274 211.769 86.274C212.08 86.274 212.377 86.1288 212.568 85.8768C213.279 84.9375 214.448 84.4456 215.616 84.592C215.669 84.5988 215.714 84.6057 215.755 84.6126C216.638 85.5259 217.875 86.0953 219.243 86.0953C222.434 86.0953 225.03 88.692 225.03 91.884V93.8386C223.176 94.3959 221.821 96.1178 221.821 98.1507V99.4864C220.553 99.6739 219.289 99.2006 218.465 98.1846C218.449 98.1645 218.433 98.1454 218.417 98.1259C217.638 97.14 217.719 95.4868 218.596 94.5112C219.27 93.7634 219.641 92.7971 219.641 91.7904C219.641 90.7044 219.218 89.683 218.449 88.9144C217.681 88.1456 216.659 87.7223 215.573 87.7223H211.314C210.76 87.7223 210.311 88.1713 210.311 88.725C210.311 89.2788 210.76 89.7277 211.314 89.7277H215.574C216.124 89.7277 216.642 89.9425 217.032 90.3324C217.421 90.7224 217.636 91.2402 217.636 91.7905C217.636 92.3004 217.448 92.7899 217.106 93.1696C215.559 94.8903 215.449 97.6198 216.855 99.3834C216.86 99.389 216.865 99.3957 216.87 99.4013L216.884 99.4191C216.889 99.4254 216.894 99.4315 216.899 99.4377C217.996 100.797 219.595 101.537 221.268 101.537C221.452 101.537 221.636 101.527 221.821 101.509V107.337C221.361 107.32 220.877 107.259 220.398 107.254C218.715 107.254 217.124 108.068 216.143 109.43C216.136 109.44 216.129 109.45 216.123 109.46C215.739 110.035 215.097 110.378 214.404 110.378C213.992 110.378 213.594 110.256 213.252 110.024C212.315 109.392 212.082 108.082 212.734 107.105L213.305 106.249C213.57 105.851 213.518 105.322 213.18 104.984C212.842 104.646 212.312 104.593 211.915 104.858L210.345 105.904C210.003 106.131 209.609 106.251 209.203 106.251C208.501 106.251 207.853 105.9 207.47 105.313C206.857 104.371 207.146 103.079 208.114 102.433L209.221 101.695C209.626 101.425 209.779 100.902 209.582 100.455C209.384 100.009 208.895 99.7701 208.421 99.8885L205.404 100.643C205.235 100.685 205.065 100.706 204.899 100.706C203.942 100.706 203.096 100.026 202.888 99.0885C202.647 98.008 203.356 96.9024 204.467 96.6242L207.648 95.8287C208.14 95.7059 208.462 95.2361 208.4 94.7335C208.339 94.231 207.912 93.8534 207.405 93.8534H203.579C203.014 93.8534 202.487 93.6295 202.094 93.2228C201.702 92.8165 201.497 92.281 201.517 91.716C201.557 90.6198 202.515 89.7279 203.653 89.7279H207.303C207.857 89.7279 208.306 89.2789 208.306 88.7252C208.306 88.1714 207.857 87.7225 207.303 87.7225H203.653C201.411 87.7225 199.593 89.4447 199.513 91.6443C199.474 92.759 199.878 93.8141 200.651 94.6155C201.095 95.0752 201.626 95.4164 202.209 95.6239C201.144 96.5849 200.605 98.0644 200.931 99.5241C201.341 101.371 203.01 102.711 204.899 102.711C205.081 102.711 205.265 102.699 205.448 102.674C204.965 103.871 205.047 105.266 205.79 106.407C206.544 107.565 207.82 108.257 209.203 108.257C209.6 108.257 209.991 108.199 210.367 108.086C210.291 109.479 210.913 110.866 212.129 111.686C212.804 112.142 213.59 112.384 214.404 112.384C215.762 112.384 217.023 111.713 217.78 110.589C218.386 109.756 219.364 109.259 220.398 109.259C220.878 109.274 221.365 109.329 221.821 109.345V109.54C221.821 109.835 221.842 110.127 221.878 110.415C219.6 111.023 217.945 113.093 217.945 115.551V119.017C217.945 120.54 219.03 121.829 220.451 122.103V122.829L216.485 123.82C215.773 122.978 214.722 122.478 213.592 122.478C213.243 122.478 212.902 122.526 212.575 122.617L209.666 117.762C210.016 117.305 210.227 116.735 210.227 116.115C210.227 114.617 209.008 113.398 207.51 113.398C206.012 113.398 204.793 114.617 204.793 116.115C204.793 117.614 206.012 118.833 207.51 118.833C207.659 118.833 207.804 118.817 207.947 118.794L210.855 123.648C210.176 124.357 209.803 125.284 209.803 126.267C209.803 127.278 210.197 128.229 210.912 128.947C211.627 129.662 212.579 130.056 213.592 130.056C214.023 130.056 214.448 129.983 214.855 129.839C215.141 129.737 215.412 129.602 215.665 129.436C215.762 129.423 215.859 129.404 215.953 129.38L223.721 127.441C224.896 127.149 225.717 126.098 225.717 124.886V122.105C226.323 121.993 226.881 121.703 227.327 121.257C227.906 120.676 228.225 119.905 228.225 119.086V116.43C228.438 116.449 228.652 116.46 228.869 116.46C229.205 116.46 229.532 116.503 229.845 116.584L227.001 126.008C226.912 126.304 226.867 126.611 226.867 126.919C226.867 128.649 228.276 130.056 230.008 130.056C230.832 130.056 231.61 129.74 232.201 129.165L233.737 127.668L235.273 129.165C235.852 129.734 236.655 130.059 237.465 130.056C238.469 130.056 239.388 129.594 239.987 128.788C240.585 127.982 240.762 126.968 240.472 126.007L237.628 116.584C237.941 116.503 238.267 116.46 238.603 116.46C238.926 116.459 239.245 116.437 239.559 116.395V119.086C239.559 119.905 239.878 120.676 240.458 121.259C240.903 121.703 241.461 121.993 242.067 122.105V124.886C242.067 126.098 242.888 127.149 244.062 127.441L251.52 129.304C252.172 129.791 252.967 130.056 253.783 130.056C254.796 130.056 255.748 129.662 256.464 128.946C256.939 128.47 257.271 127.89 257.441 127.259C258.627 127.184 259.732 126.687 260.579 125.84C261.502 124.917 262.011 123.69 262.011 122.386C262.011 121.081 261.502 119.854 260.58 118.933C259.899 118.251 259.052 117.796 258.129 117.605V116.45H258.796C259.35 116.45 259.799 116.001 259.799 115.447C259.799 114.894 259.35 114.445 258.796 114.445H258.129V113.727C258.129 113.173 257.68 112.724 257.126 112.724C256.572 112.724 256.123 113.173 256.123 113.727V114.445H255.456C254.903 114.445 254.454 114.894 254.454 115.447C254.454 116.001 254.903 116.45 255.456 116.45H256.123V117.606C253.91 118.069 252.242 120.037 252.242 122.387C252.242 122.526 252.25 122.664 252.261 122.801C251.771 123.018 251.328 123.336 250.967 123.738L247.333 122.83V122.104C248.755 121.83 249.841 120.541 249.841 119.018V115.551C249.841 112.989 248.02 110.845 245.604 110.344C245.635 110.078 245.653 109.808 245.653 109.536V109.345C246.109 109.329 246.594 109.274 247.074 109.26C248.108 109.26 249.086 109.757 249.692 110.59C250.449 111.714 251.71 112.384 253.068 112.384C253.882 112.384 254.669 112.143 255.342 111.687C256.558 110.867 257.181 109.479 257.105 108.087C257.481 108.199 257.872 108.257 258.269 108.257C259.652 108.257 260.928 107.566 261.683 106.407C262.425 105.266 262.507 103.871 262.024 102.674C262.207 102.699 262.391 102.712 262.574 102.712C264.462 102.712 266.131 101.372 266.542 99.525C266.867 98.0652 266.328 96.5856 265.263 95.6245C265.846 95.417 266.377 95.0756 266.821 94.6159C267.594 93.8141 267.998 92.759 267.959 91.6433V91.6433ZM255.003 83.1836C255.009 83.2352 255.014 83.2868 255.018 83.3384C254.372 82.9458 253.646 82.6936 252.891 82.6016C253.018 82.1692 253.087 81.7127 253.087 81.24C253.087 81.0113 253.07 80.7866 253.039 80.5662C254.079 81.0212 254.853 81.9958 255.003 83.1836ZM239.397 81.695H242.529C243.083 81.695 243.532 81.2461 243.532 80.6923C243.532 80.1385 243.083 79.6896 242.529 79.6896L237.904 79.6891C237.73 79.6891 237.567 79.6219 237.445 79.5001C237.322 79.3774 237.254 79.2142 237.254 79.0406C237.254 78.6823 237.546 78.3909 237.904 78.3909H248.231C249.803 78.3909 251.082 79.6689 251.082 81.2398C251.082 82.8114 249.803 84.09 248.231 84.09C243.934 84.09 240.439 87.5864 240.439 91.884V93.6481H234.74V91.884C234.74 87.9618 236.433 84.2685 239.397 81.695V81.695ZM212.442 83.3384C212.446 83.287 212.451 83.2357 212.457 83.1845C212.608 81.9903 213.388 81.0118 214.436 80.5595C214.404 80.782 214.387 81.009 214.387 81.24C214.387 81.7121 214.456 82.168 214.582 82.5998C213.823 82.6904 213.092 82.9433 212.442 83.3384V83.3384ZM219.243 84.0901C217.671 84.0901 216.392 82.8115 216.392 81.2399C216.392 79.669 217.671 78.391 219.243 78.391H229.57C229.928 78.391 230.22 78.6825 230.22 79.0408C230.22 79.2144 230.152 79.3775 230.03 79.5001C229.908 79.6219 229.744 79.6891 229.57 79.6891L224.945 79.6896C224.391 79.6896 223.943 80.1385 223.943 80.6923C223.943 81.2461 224.391 81.695 224.945 81.695H228.077C231.041 84.2685 232.734 87.9618 232.734 91.8841V93.6482H227.035V91.8841C227.035 87.5865 223.539 84.0901 219.243 84.0901V84.0901ZM206.798 116.116C206.798 115.723 207.117 115.404 207.51 115.404C207.902 115.404 208.222 115.723 208.222 116.116C208.222 116.508 207.902 116.828 207.51 116.828C207.117 116.828 206.798 116.508 206.798 116.116ZM223.236 125.495L215.465 127.436C215.415 127.448 215.365 127.454 215.311 127.454C215.086 127.454 214.868 127.53 214.692 127.669C214.538 127.789 214.366 127.884 214.183 127.949C213.993 128.017 213.794 128.051 213.592 128.051C213.115 128.051 212.667 127.865 212.331 127.53C211.994 127.192 211.808 126.743 211.808 126.267C211.808 125.791 211.994 125.343 212.33 125.006C212.667 124.669 213.115 124.484 213.592 124.484C214.253 124.484 214.856 124.847 215.168 125.432C215.384 125.839 215.849 126.046 216.296 125.934L221.697 124.585C222.143 124.474 222.456 124.073 222.456 123.612V121.797C222.681 121.677 222.893 121.531 223.086 121.355C223.274 121.527 223.485 121.674 223.712 121.795V124.886C223.712 125.175 223.517 125.425 223.236 125.495ZM226.22 119.086C226.22 119.371 226.109 119.639 225.908 119.84C225.707 120.042 225.439 120.152 225.153 120.152C224.565 120.152 224.087 119.674 224.087 119.086C224.087 118.532 223.639 118.083 223.085 118.083C222.531 118.083 222.082 118.532 222.082 119.086C222.082 119.374 221.969 119.644 221.763 119.846C221.557 120.049 221.287 120.158 220.995 120.153C220.419 120.142 219.95 119.632 219.95 119.017V115.551C219.95 114.013 220.989 112.72 222.417 112.347C222.768 113.13 223.266 113.848 223.902 114.465C224.575 115.118 225.362 115.621 226.22 115.959V119.086ZM238.377 127.592C238.16 127.884 237.828 128.051 237.466 128.051C237.174 128.052 236.882 127.934 236.672 127.729L234.437 125.549C234.048 125.17 233.427 125.17 233.037 125.549L230.803 127.728C230.589 127.936 230.307 128.051 230.009 128.051C229.382 128.051 228.872 127.543 228.872 126.919C228.872 126.807 228.889 126.695 228.922 126.587L231.628 117.618C232.099 118.098 232.45 118.701 232.621 119.39C232.749 119.905 233.208 120.264 233.737 120.264C234.266 120.264 234.725 119.905 234.853 119.39C235.024 118.701 235.375 118.097 235.846 117.618L238.552 126.586C238.657 126.934 238.593 127.301 238.377 127.592V127.592ZM238.601 114.454C236.603 114.455 234.803 115.456 233.737 117.037C232.671 115.456 230.869 114.455 228.87 114.454C226.042 114.453 223.827 112.294 223.827 109.54V98.1509C223.827 96.7738 224.947 95.6536 226.324 95.6536H241.149C242.527 95.6536 243.647 96.7745 243.647 98.1522V109.536C243.647 112.291 241.431 114.452 238.601 114.454ZM257.126 119.507C257.895 119.507 258.618 119.806 259.162 120.351C259.706 120.894 260.005 121.617 260.005 122.386C260.005 123.155 259.706 123.878 259.161 124.422C258.691 124.892 258.086 125.179 257.433 125.248C257.26 124.627 256.931 124.057 256.463 123.588C255.859 122.984 255.087 122.61 254.252 122.508C254.25 122.468 254.247 122.427 254.247 122.386C254.247 120.799 255.539 119.507 257.126 119.507ZM251.131 125.846C251.565 125.954 252.018 125.762 252.242 125.375C252.56 124.825 253.151 124.484 253.783 124.484C254.261 124.484 254.709 124.669 255.044 125.005C255.381 125.343 255.567 125.791 255.567 126.267C255.567 126.744 255.381 127.192 255.045 127.529C254.709 127.865 254.261 128.051 253.783 128.051C253.354 128.051 252.954 127.903 252.627 127.622C252.509 127.521 252.369 127.449 252.218 127.411L244.547 125.495C244.268 125.425 244.072 125.175 244.072 124.886V121.796C244.299 121.674 244.511 121.528 244.699 121.356C244.891 121.531 245.103 121.677 245.328 121.797V123.612C245.328 124.072 245.641 124.473 246.087 124.585L251.131 125.846ZM247.836 115.551V119.017C247.836 119.633 247.366 120.142 246.79 120.153C246.502 120.156 246.228 120.049 246.022 119.847C245.817 119.645 245.703 119.374 245.703 119.086C245.703 118.532 245.254 118.083 244.701 118.083C244.147 118.083 243.698 118.532 243.698 119.086C243.698 119.674 243.219 120.153 242.631 120.153C242.345 120.153 242.077 120.042 241.877 119.842C241.675 119.639 241.564 119.371 241.564 119.086V115.827C242.302 115.494 242.981 115.036 243.572 114.462C244.223 113.83 244.731 113.092 245.083 112.286C246.644 112.553 247.836 113.915 247.836 115.551V115.551ZM265.378 93.2226C264.985 93.6293 264.458 93.8534 263.893 93.8534H260.067C259.56 93.8534 259.134 94.231 259.072 94.7335C259.01 95.2361 259.332 95.7059 259.824 95.8287L263.005 96.6241C264.116 96.9024 264.825 98.008 264.584 99.0889C264.376 100.026 263.53 100.706 262.574 100.706C262.407 100.706 262.237 100.685 262.071 100.644L259.051 99.8886C258.578 99.7702 258.088 100.01 257.891 100.456C257.693 100.902 257.846 101.425 258.251 101.696L259.358 102.433C260.326 103.079 260.615 104.371 260.002 105.313C259.619 105.901 258.971 106.252 258.269 106.252C257.863 106.252 257.469 106.132 257.128 105.905L255.558 104.858C255.159 104.593 254.63 104.646 254.292 104.984C253.955 105.322 253.902 105.852 254.167 106.249L254.738 107.104C255.39 108.082 255.157 109.392 254.219 110.025C253.877 110.256 253.48 110.379 253.068 110.379C252.375 110.379 251.732 110.035 251.349 109.46C251.342 109.45 251.336 109.44 251.329 109.43C250.347 108.068 248.757 107.254 247.074 107.254C246.595 107.259 246.112 107.32 245.653 107.337V101.51C247.52 101.691 249.355 100.945 250.573 99.4381C250.578 99.4313 250.583 99.4253 250.588 99.4182L250.602 99.4021C250.607 99.396 250.612 99.3898 250.617 99.3835C252.023 97.62 251.913 94.8905 250.365 93.1686C250.024 92.7899 249.836 92.3004 249.836 91.7905C249.836 91.2402 250.05 90.7224 250.44 90.3324C250.83 89.9425 251.348 89.7277 251.899 89.7277H263.82C264.957 89.7277 265.915 90.6196 265.955 91.715C265.975 92.2809 265.77 92.8163 265.378 93.2226V93.2226Z" fill="#3B5998"/>
<path d="M242.309 108.769C242.309 108.215 241.861 107.766 241.307 107.766C240.753 107.766 240.304 108.215 240.304 108.769V109.537C240.304 110.42 239.554 111.112 238.598 111.113C236.861 111.113 235.194 111.589 233.736 112.497C232.278 111.589 230.61 111.113 228.872 111.113C227.901 111.112 227.169 110.436 227.169 109.541V98.9966H240.304V104.759C240.304 105.312 240.753 105.761 241.307 105.761C241.86 105.761 242.309 105.312 242.309 104.759V98.153C242.309 97.5124 241.789 96.9912 241.149 96.9912H226.323C225.684 96.9912 225.164 97.5118 225.164 98.1517V109.541C225.164 111.545 226.792 113.116 228.871 113.118C230.421 113.118 231.898 113.601 233.142 114.516C233.319 114.645 233.528 114.71 233.736 114.71C233.945 114.71 234.153 114.645 234.33 114.516C235.574 113.601 237.05 113.118 238.599 113.118C240.68 113.116 242.31 111.543 242.31 109.537V108.769H242.309Z" fill="#3B5998"/>
<path d="M225.955 75.0494H241.518C242.072 75.0494 242.521 74.6004 242.521 74.0467C242.521 73.4929 242.072 73.044 241.518 73.044H241.199L241.661 71.1244C242.036 69.5628 241.68 67.9441 240.686 66.6828C239.692 65.4217 238.201 64.6984 236.595 64.6984H234.74V62.6106C234.74 62.0569 234.291 61.6079 233.737 61.6079C233.183 61.6079 232.734 62.0569 232.734 62.6106V64.6985H230.879C229.273 64.6985 227.782 65.4218 226.788 66.6831C225.794 67.9442 225.438 69.5631 225.813 71.1247L226.274 73.0442H225.955C225.402 73.0442 224.953 73.4932 224.953 74.0469C224.953 74.6007 225.402 75.0494 225.955 75.0494ZM235.418 66.7038L234.396 73.0441H233.077L232.056 66.7038H235.418ZM239.111 67.9244C239.723 68.7001 239.941 69.6959 239.711 70.6562L239.137 73.0441H236.428L237.431 66.8146C238.089 66.9911 238.677 67.3739 239.111 67.9244V67.9244ZM227.763 70.6562C227.533 69.6959 227.751 68.7001 228.363 67.9244C228.796 67.3739 229.385 66.9911 230.043 66.8146L231.046 73.0441H228.337L227.763 70.6562Z" fill="#3B5998"/>
</g>
</g>
<defs>
<filter id="filter0_dddddd_326_276" x="0.404297" y="4.20654" width="466.662" height="361.851" filterUnits="userSpaceOnUse" color-interpolation-filters="sRGB">
<feFlood flood-opacity="0" result="BackgroundImageFix"/>
<feColorMatrix in="SourceAlpha" type="matrix" values="0 0 0 0 0 0 0 0 0 0 0 0 0 0 0 0 0 0 127 0" result="hardAlpha"/>
<feOffset dy="2.76726"/>
<feGaussianBlur stdDeviation="1.1069"/>
<feColorMatrix type="matrix" values="0 0 0 0 0.482353 0 0 0 0 0.529412 0 0 0 0 0.654902 0 0 0 0.0196802 0"/>
<feBlend mode="normal" in2="BackgroundImageFix" result="effect1_dropShadow_326_276"/>
<feColorMatrix in="SourceAlpha" type="matrix" values="0 0 0 0 0 0 0 0 0 0 0 0 0 0 0 0 0 0 127 0" result="hardAlpha"/>
<feOffset dy="6.6501"/>
<feGaussianBlur stdDeviation="2.66004"/>
<feColorMatrix type="matrix" values="0 0 0 0 0.482353 0 0 0 0 0.529412 0 0 0 0 0.654902 0 0 0 0.0282725 0"/>
<feBlend mode="normal" in2="effect1_dropShadow_326_276" result="effect2_dropShadow_326_276"/>
<feColorMatrix in="SourceAlpha" type="matrix" values="0 0 0 0 0 0 0 0 0 0 0 0 0 0 0 0 0 0 127 0" result="hardAlpha"/>
<feOffset dy="12.5216"/>
<feGaussianBlur stdDeviation="5.00862"/>
<feColorMatrix type="matrix" values="0 0 0 0 0.482353 0 0 0 0 0.529412 0 0 0 0 0.654902 0 0 0 0.035 0"/>
<feBlend mode="normal" in2="effect2_dropShadow_326_276" result="effect3_dropShadow_326_276"/>
<feColorMatrix in="SourceAlpha" type="matrix" values="0 0 0 0 0 0 0 0 0 0 0 0 0 0 0 0 0 0 127 0" result="hardAlpha"/>
<feOffset dy="22.3363"/>
<feGaussianBlur stdDeviation="8.93452"/>
<feColorMatrix type="matrix" values="0 0 0 0 0.482353 0 0 0 0 0.529412 0 0 0 0 0.654902 0 0 0 0.0417275 0"/>
<feBlend mode="normal" in2="effect3_dropShadow_326_276" result="effect4_dropShadow_326_276"/>
<feColorMatrix in="SourceAlpha" type="matrix" values="0 0 0 0 0 0 0 0 0 0 0 0 0 0 0 0 0 0 127 0" result="hardAlpha"/>
<feOffset dy="41.7776"/>
<feGaussianBlur stdDeviation="16.711"/>
<feColorMatrix type="matrix" values="0 0 0 0 0.482353 0 0 0 0 0.529412 0 0 0 0 0.654902 0 0 0 0.0503198 0"/>
<feBlend mode="normal" in2="effect4_dropShadow_326_276" result="effect5_dropShadow_326_276"/>
<feColorMatrix in="SourceAlpha" type="matrix" values="0 0 0 0 0 0 0 0 0 0 0 0 0 0 0 0 0 0 127 0" result="hardAlpha"/>
<feOffset dy="100"/>
<feGaussianBlur stdDeviation="40"/>
<feColorMatrix type="matrix" values="0 0 0 0 0.482353 0 0 0 0 0.529412 0 0 0 0 0.654902 0 0 0 0.07 0"/>
<feBlend mode="normal" in2="effect5_dropShadow_326_276" result="effect6_dropShadow_326_276"/>
<feBlend mode="normal" in="SourceGraphic" in2="effect6_dropShadow_326_276" result="shape"/>
</filter>
<filter id="filter1_dddddd_326_276" x="92.1221" y="25.686" width="283.227" height="303.11" filterUnits="userSpaceOnUse" color-interpolation-filters="sRGB">
<feFlood flood-opacity="0" result="BackgroundImageFix"/>
<feColorMatrix in="SourceAlpha" type="matrix" values="0 0 0 0 0 0 0 0 0 0 0 0 0 0 0 0 0 0 127 0" result="hardAlpha"/>
<feOffset dy="2.76726"/>
<feGaussianBlur stdDeviation="1.1069"/>
<feColorMatrix type="matrix" values="0 0 0 0 0.482353 0 0 0 0 0.529412 0 0 0 0 0.654902 0 0 0 0.0196802 0"/>
<feBlend mode="normal" in2="BackgroundImageFix" result="effect1_dropShadow_326_276"/>
<feColorMatrix in="SourceAlpha" type="matrix" values="0 0 0 0 0 0 0 0 0 0 0 0 0 0 0 0 0 0 127 0" result="hardAlpha"/>
<feOffset dy="6.6501"/>
<feGaussianBlur stdDeviation="2.66004"/>
<feColorMatrix type="matrix" values="0 0 0 0 0.482353 0 0 0 0 0.529412 0 0 0 0 0.654902 0 0 0 0.0282725 0"/>
<feBlend mode="normal" in2="effect1_dropShadow_326_276" result="effect2_dropShadow_326_276"/>
<feColorMatrix in="SourceAlpha" type="matrix" values="0 0 0 0 0 0 0 0 0 0 0 0 0 0 0 0 0 0 127 0" result="hardAlpha"/>
<feOffset dy="12.5216"/>
<feGaussianBlur stdDeviation="5.00862"/>
<feColorMatrix type="matrix" values="0 0 0 0 0.482353 0 0 0 0 0.529412 0 0 0 0 0.654902 0 0 0 0.035 0"/>
<feBlend mode="normal" in2="effect2_dropShadow_326_276" result="effect3_dropShadow_326_276"/>
<feColorMatrix in="SourceAlpha" type="matrix" values="0 0 0 0 0 0 0 0 0 0 0 0 0 0 0 0 0 0 127 0" result="hardAlpha"/>
<feOffset dy="22.3363"/>
<feGaussianBlur stdDeviation="8.93452"/>
<feColorMatrix type="matrix" values="0 0 0 0 0.482353 0 0 0 0 0.529412 0 0 0 0 0.654902 0 0 0 0.0417275 0"/>
<feBlend mode="normal" in2="effect3_dropShadow_326_276" result="effect4_dropShadow_326_276"/>
<feColorMatrix in="SourceAlpha" type="matrix" values="0 0 0 0 0 0 0 0 0 0 0 0 0 0 0 0 0 0 127 0" result="hardAlpha"/>
<feOffset dy="41.7776"/>
<feGaussianBlur stdDeviation="16.711"/>
<feColorMatrix type="matrix" values="0 0 0 0 0.482353 0 0 0 0 0.529412 0 0 0 0 0.654902 0 0 0 0.0503198 0"/>
<feBlend mode="normal" in2="effect4_dropShadow_326_276" result="effect5_dropShadow_326_276"/>
<feColorMatrix in="SourceAlpha" type="matrix" values="0 0 0 0 0 0 0 0 0 0 0 0 0 0 0 0 0 0 127 0" result="hardAlpha"/>
<feOffset dy="100"/>
<feGaussianBlur stdDeviation="40"/>
<feColorMatrix type="matrix" values="0 0 0 0 0.482353 0 0 0 0 0.529412 0 0 0 0 0.654902 0 0 0 0.07 0"/>
<feBlend mode="normal" in2="effect5_dropShadow_326_276" result="effect6_dropShadow_326_276"/>
<feBlend mode="normal" in="SourceGraphic" in2="effect6_dropShadow_326_276" result="shape"/>
</filter>
<clipPath id="clip0_326_276">
<rect width="68.4514" height="68.4514" fill="white" transform="translate(199.51 61.6064)"/>
</clipPath>
</defs>
</svg>
