<svg width="579" height="540" viewBox="0 0 579 540" fill="none" xmlns="http://www.w3.org/2000/svg">
<mask id="mask0_308_131" style="mask-type:alpha" maskUnits="userSpaceOnUse" x="2" y="-1" width="298" height="270">
<circle cx="4.92157" cy="2.92157" r="2.92157" fill="#E3EDFD"/>
<circle cx="34.1373" cy="2.92145" r="2.92157" fill="#E3EDFD"/>
<circle cx="63.353" cy="2.92145" r="2.92157" fill="#E3EDFD"/>
<circle cx="92.5687" cy="2.92145" r="2.92157" fill="#E3EDFD"/>
<circle cx="121.784" cy="2.92145" r="2.92157" fill="#E3EDFD"/>
<circle cx="151" cy="2.92145" r="2.92157" fill="#E3EDFD"/>
<circle cx="180.216" cy="2.92145" r="2.92157" fill="#E3EDFD"/>
<circle cx="209.431" cy="2.92145" r="2.92157" fill="#E3EDFD"/>
<circle cx="238.647" cy="2.92145" r="2.92157" fill="#E3EDFD"/>
<circle cx="267.863" cy="2.92145" r="2.92157" fill="#E3EDFD"/>
<circle cx="297.078" cy="2.92145" r="2.92157" fill="#E3EDFD"/>
<circle cx="4.92157" cy="32.1371" r="2.92157" fill="#E3EDFD"/>
<circle cx="34.1373" cy="32.1371" r="2.92157" fill="#E3EDFD"/>
<circle cx="63.353" cy="32.1371" r="2.92157" fill="#E3EDFD"/>
<circle cx="92.5687" cy="32.1371" r="2.92157" fill="#E3EDFD"/>
<circle cx="121.784" cy="32.1371" r="2.92157" fill="#E3EDFD"/>
<circle cx="151" cy="32.1371" r="2.92157" fill="#E3EDFD"/>
<circle cx="180.216" cy="32.1371" r="2.92157" fill="#E3EDFD"/>
<circle cx="209.431" cy="32.1371" r="2.92157" fill="#E3EDFD"/>
<circle cx="238.647" cy="32.1371" r="2.92157" fill="#E3EDFD"/>
<circle cx="267.863" cy="32.1371" r="2.92157" fill="#E3EDFD"/>
<circle cx="297.078" cy="32.1371" r="2.92157" fill="#E3EDFD"/>
<circle cx="4.92157" cy="61.3528" r="2.92157" fill="#E3EDFD"/>
<circle cx="34.1373" cy="61.3527" r="2.92157" fill="#E3EDFD"/>
<circle cx="63.353" cy="61.3527" r="2.92157" fill="#E3EDFD"/>
<circle cx="92.5687" cy="61.3527" r="2.92157" fill="#E3EDFD"/>
<circle cx="121.784" cy="61.3527" r="2.92157" fill="#E3EDFD"/>
<circle cx="151" cy="61.3527" r="2.92157" fill="#E3EDFD"/>
<circle cx="180.216" cy="61.3527" r="2.92157" fill="#E3EDFD"/>
<circle cx="209.431" cy="61.3527" r="2.92157" fill="#E3EDFD"/>
<circle cx="238.647" cy="61.3527" r="2.92157" fill="#E3EDFD"/>
<circle cx="267.863" cy="61.3527" r="2.92157" fill="#E3EDFD"/>
<circle cx="297.078" cy="61.3527" r="2.92157" fill="#E3EDFD"/>
<circle cx="4.92157" cy="90.5685" r="2.92157" fill="#E3EDFD"/>
<circle cx="34.1373" cy="90.5685" r="2.92157" fill="#E3EDFD"/>
<circle cx="63.353" cy="90.5685" r="2.92157" fill="#E3EDFD"/>
<circle cx="92.5687" cy="90.5685" r="2.92157" fill="#E3EDFD"/>
<circle cx="121.784" cy="90.5685" r="2.92157" fill="#E3EDFD"/>
<circle cx="151" cy="90.5685" r="2.92157" fill="#E3EDFD"/>
<circle cx="180.216" cy="90.5685" r="2.92157" fill="#E3EDFD"/>
<circle cx="209.431" cy="90.5685" r="2.92157" fill="#E3EDFD"/>
<circle cx="238.647" cy="90.5685" r="2.92157" fill="#E3EDFD"/>
<circle cx="267.863" cy="90.5685" r="2.92157" fill="#E3EDFD"/>
<circle cx="297.078" cy="90.5685" r="2.92157" fill="#E3EDFD"/>
<circle cx="4.92157" cy="119.784" r="2.92157" fill="#E3EDFD"/>
<circle cx="34.1373" cy="119.784" r="2.92157" fill="#E3EDFD"/>
<circle cx="63.353" cy="119.784" r="2.92157" fill="#E3EDFD"/>
<circle cx="92.5687" cy="119.784" r="2.92157" fill="#E3EDFD"/>
<circle cx="121.784" cy="119.784" r="2.92157" fill="#E3EDFD"/>
<circle cx="151" cy="119.784" r="2.92157" fill="#E3EDFD"/>
<circle cx="180.216" cy="119.784" r="2.92157" fill="#E3EDFD"/>
<circle cx="209.431" cy="119.784" r="2.92157" fill="#E3EDFD"/>
<circle cx="238.647" cy="119.784" r="2.92157" fill="#E3EDFD"/>
<circle cx="267.863" cy="119.784" r="2.92157" fill="#E3EDFD"/>
<circle cx="297.078" cy="119.784" r="2.92157" fill="#E3EDFD"/>
<circle cx="4.92157" cy="149" r="2.92157" fill="#E3EDFD"/>
<circle cx="34.1373" cy="149" r="2.92157" fill="#E3EDFD"/>
<circle cx="63.353" cy="149" r="2.92157" fill="#E3EDFD"/>
<circle cx="92.5687" cy="149" r="2.92157" fill="#E3EDFD"/>
<circle cx="121.784" cy="149" r="2.92157" fill="#E3EDFD"/>
<circle cx="151" cy="149" r="2.92157" fill="#E3EDFD"/>
<circle cx="180.216" cy="149" r="2.92157" fill="#E3EDFD"/>
<circle cx="209.431" cy="149" r="2.92157" fill="#E3EDFD"/>
<circle cx="238.647" cy="149" r="2.92157" fill="#E3EDFD"/>
<circle cx="267.863" cy="149" r="2.92157" fill="#E3EDFD"/>
<circle cx="297.078" cy="149" r="2.92157" fill="#E3EDFD"/>
<circle cx="4.92157" cy="178.216" r="2.92157" fill="#E3EDFD"/>
<circle cx="34.1373" cy="178.216" r="2.92157" fill="#E3EDFD"/>
<circle cx="63.353" cy="178.216" r="2.92157" fill="#E3EDFD"/>
<circle cx="92.5687" cy="178.216" r="2.92157" fill="#E3EDFD"/>
<circle cx="121.784" cy="178.216" r="2.92157" fill="#E3EDFD"/>
<circle cx="151" cy="178.216" r="2.92157" fill="#E3EDFD"/>
<circle cx="180.216" cy="178.216" r="2.92157" fill="#E3EDFD"/>
<circle cx="209.431" cy="178.216" r="2.92157" fill="#E3EDFD"/>
<circle cx="238.647" cy="178.216" r="2.92157" fill="#E3EDFD"/>
<circle cx="267.863" cy="178.216" r="2.92157" fill="#E3EDFD"/>
<circle cx="297.078" cy="178.216" r="2.92157" fill="#E3EDFD"/>
<circle cx="4.92157" cy="207.431" r="2.92157" fill="#E3EDFD"/>
<circle cx="34.1373" cy="207.431" r="2.92157" fill="#E3EDFD"/>
<circle cx="63.353" cy="207.431" r="2.92157" fill="#E3EDFD"/>
<circle cx="92.5687" cy="207.431" r="2.92157" fill="#E3EDFD"/>
<circle cx="121.784" cy="207.431" r="2.92157" fill="#E3EDFD"/>
<circle cx="151" cy="207.431" r="2.92157" fill="#E3EDFD"/>
<circle cx="180.216" cy="207.431" r="2.92157" fill="#E3EDFD"/>
<circle cx="209.431" cy="207.431" r="2.92157" fill="#E3EDFD"/>
<circle cx="238.647" cy="207.431" r="2.92157" fill="#E3EDFD"/>
<circle cx="267.863" cy="207.431" r="2.92157" fill="#E3EDFD"/>
<circle cx="297.078" cy="207.431" r="2.92157" fill="#E3EDFD"/>
<circle cx="4.92157" cy="236.647" r="2.92157" fill="#E3EDFD"/>
<circle cx="34.1373" cy="236.647" r="2.92157" fill="#E3EDFD"/>
<circle cx="63.353" cy="236.647" r="2.92157" fill="#E3EDFD"/>
<circle cx="92.5687" cy="236.647" r="2.92157" fill="#E3EDFD"/>
<circle cx="121.784" cy="236.647" r="2.92157" fill="#E3EDFD"/>
<circle cx="151" cy="236.647" r="2.92157" fill="#E3EDFD"/>
<circle cx="180.216" cy="236.647" r="2.92157" fill="#E3EDFD"/>
<circle cx="209.431" cy="236.647" r="2.92157" fill="#E3EDFD"/>
<circle cx="238.647" cy="236.647" r="2.92157" fill="#E3EDFD"/>
<circle cx="267.863" cy="236.647" r="2.92157" fill="#E3EDFD"/>
<circle cx="297.078" cy="236.647" r="2.92157" fill="#E3EDFD"/>
<circle cx="4.92157" cy="265.863" r="2.92157" fill="#E3EDFD"/>
<circle cx="34.1373" cy="265.863" r="2.92157" fill="#E3EDFD"/>
<circle cx="63.353" cy="265.863" r="2.92157" fill="#E3EDFD"/>
<circle cx="92.5687" cy="265.863" r="2.92157" fill="#E3EDFD"/>
<circle cx="121.784" cy="265.863" r="2.92157" fill="#E3EDFD"/>
<circle cx="151" cy="265.863" r="2.92157" fill="#E3EDFD"/>
<circle cx="180.216" cy="265.863" r="2.92157" fill="#E3EDFD"/>
<circle cx="209.431" cy="265.863" r="2.92157" fill="#E3EDFD"/>
<circle cx="238.647" cy="265.863" r="2.92157" fill="#E3EDFD"/>
<circle cx="267.863" cy="265.863" r="2.92157" fill="#E3EDFD"/>
<circle cx="297.078" cy="265.863" r="2.92157" fill="#E3EDFD"/>
</mask>
<g mask="url(#mask0_308_131)">
<circle cx="162.023" cy="144.903" r="136.083" fill="#D6DEEC"/>
</g>
<g filter="url(#filter0_dddddd_308_131)">
<path d="M111.705 116.214C111.705 113.452 113.944 111.214 116.705 111.214H462.281C465.042 111.214 467.281 113.452 467.281 116.214V336.142H111.705V116.214Z" fill="#0F2C46"/>
<rect x="121.871" y="123.01" width="336.186" height="202.81" fill="#AFC9FF"/>
<path d="M80.9271 336.142H499V352.132C499 355.998 495.866 359.132 492 359.132H87.9271C84.0611 359.132 80.9271 355.998 80.9271 352.132V336.142Z" fill="#C4C4C4"/>
</g>
<g filter="url(#filter1_dddddd_308_131)">
<path d="M166.106 177.262H414.093V301.348C414.093 305.465 410.755 308.803 406.638 308.803H173.561C169.444 308.803 166.106 305.465 166.106 301.348V177.262Z" fill="#EDF1F8"/>
<path d="M414.094 177.262H166.106V148.059C166.106 143.941 169.444 140.603 173.561 140.603H406.638C410.755 140.603 414.094 143.941 414.094 148.059V177.262Z" fill="#0D36C7"/>
<circle cx="185.075" cy="157.592" r="2.79593" fill="white"/>
<circle cx="194.394" cy="157.592" r="2.79593" fill="white"/>
<circle cx="203.714" cy="157.592" r="2.79593" fill="white"/>
</g>
<path opacity="0.62" d="M250.512 245.293C250.625 244.381 250.71 243.469 250.71 242.5C250.71 241.531 250.625 240.619 250.512 239.707L256.477 235.005C257.014 234.577 257.156 233.808 256.816 233.181L251.162 223.32C250.823 222.693 250.06 222.465 249.438 222.693L242.398 225.543C240.928 224.403 239.345 223.462 237.62 222.75L236.546 215.197C236.499 214.862 236.333 214.555 236.077 214.335C235.822 214.114 235.496 213.995 235.161 214H223.852C223.145 214 222.551 214.513 222.467 215.197L221.392 222.75C219.668 223.462 218.085 224.431 216.614 225.543L209.575 222.693C208.925 222.436 208.19 222.693 207.85 223.32L202.196 233.181C201.828 233.808 201.998 234.577 202.535 235.005L208.501 239.707C208.387 240.619 208.303 241.56 208.303 242.5C208.303 243.441 208.387 244.381 208.501 245.293L202.535 249.996C201.998 250.423 201.857 251.193 202.196 251.82L207.85 261.681C208.19 262.308 208.953 262.536 209.575 262.308L216.614 259.458C218.085 260.598 219.668 261.538 221.392 262.251L222.467 269.803C222.551 270.487 223.145 271 223.852 271H235.161C235.867 271 236.461 270.487 236.546 269.803L237.62 262.251C239.345 261.538 240.928 260.569 242.398 259.458L249.438 262.308C250.088 262.564 250.823 262.308 251.162 261.681L256.816 251.82C257.156 251.193 257.014 250.423 256.477 249.996L250.512 245.293ZM229.506 252.475C224.05 252.475 219.611 248.001 219.611 242.5C219.611 237 224.05 232.525 229.506 232.525C234.963 232.525 239.401 237 239.401 242.5C239.401 248.001 234.963 252.475 229.506 252.475Z" fill="#D7E2FA"/>
<path d="M302.742 246.077C302.886 244.909 302.994 243.741 302.994 242.5C302.994 241.259 302.886 240.091 302.742 238.923L310.335 232.901C311.018 232.353 311.198 231.368 310.766 230.565L303.57 217.936C303.138 217.133 302.167 216.841 301.375 217.133L292.416 220.783C290.545 219.323 288.53 218.118 286.335 217.206L284.967 207.533C284.908 207.104 284.696 206.711 284.371 206.429C284.047 206.147 283.632 205.994 283.204 206H268.812C267.912 206 267.156 206.657 267.048 207.533L265.681 217.206C263.486 218.118 261.471 219.359 259.6 220.783L250.641 217.133C249.813 216.804 248.878 217.133 248.446 217.936L241.249 230.565C240.782 231.368 240.998 232.353 241.681 232.901L249.273 238.923C249.129 240.091 249.022 241.296 249.022 242.5C249.022 243.705 249.129 244.909 249.273 246.077L241.681 252.1C240.998 252.647 240.818 253.633 241.249 254.436L248.446 267.065C248.878 267.868 249.849 268.16 250.641 267.868L259.6 264.218C261.471 265.678 263.486 266.882 265.681 267.795L267.048 277.467C267.156 278.343 267.912 279 268.812 279H283.204C284.104 279 284.859 278.343 284.967 277.467L286.335 267.795C288.53 266.882 290.545 265.641 292.416 264.218L301.375 267.868C302.203 268.196 303.138 267.868 303.57 267.065L310.766 254.436C311.198 253.633 311.018 252.647 310.335 252.1L302.742 246.077ZM276.008 255.275C269.063 255.275 263.414 249.545 263.414 242.5C263.414 235.456 269.063 229.725 276.008 229.725C282.952 229.725 288.602 235.456 288.602 242.5C288.602 249.545 282.952 255.275 276.008 255.275Z" fill="#D7E2FA"/>
<path d="M365.973 246.763C366.148 245.371 366.279 243.979 366.279 242.5C366.279 241.021 366.148 239.629 365.973 238.237L375.192 231.06C376.022 230.407 376.241 229.233 375.716 228.276L366.978 213.225C366.454 212.268 365.274 211.92 364.313 212.268L353.433 216.618C351.161 214.878 348.715 213.442 346.049 212.355L344.389 200.827C344.317 200.315 344.059 199.847 343.665 199.511C343.271 199.175 342.767 198.993 342.248 199H324.771C323.679 199 322.761 199.783 322.63 200.827L320.97 212.355C318.305 213.442 315.858 214.921 313.586 216.618L302.707 212.268C301.702 211.876 300.566 212.268 300.041 213.225L291.303 228.276C290.735 229.233 290.997 230.407 291.827 231.06L301.046 238.237C300.872 239.629 300.74 241.065 300.74 242.5C300.74 243.936 300.872 245.371 301.046 246.763L291.827 253.941C290.997 254.593 290.779 255.768 291.303 256.725L300.041 271.776C300.566 272.733 301.745 273.081 302.707 272.733L313.586 268.383C315.858 270.123 318.305 271.558 320.97 272.646L322.63 284.173C322.761 285.217 323.679 286 324.771 286H342.248C343.34 286 344.258 285.217 344.389 284.173L346.049 272.646C348.715 271.558 351.161 270.079 353.433 268.383L364.313 272.733C365.318 273.124 366.454 272.733 366.978 271.776L375.716 256.725C376.241 255.768 376.022 254.593 375.192 253.941L365.973 246.763ZM333.51 257.725C325.077 257.725 318.217 250.896 318.217 242.5C318.217 234.105 325.077 227.275 333.51 227.275C341.942 227.275 348.802 234.105 348.802 242.5C348.802 250.896 341.942 257.725 333.51 257.725Z" fill="#AFC9FF"/>
<defs>
<filter id="filter0_dddddd_308_131" x="0.927124" y="111.214" width="578.073" height="427.918" filterUnits="userSpaceOnUse" color-interpolation-filters="sRGB">
<feFlood flood-opacity="0" result="BackgroundImageFix"/>
<feColorMatrix in="SourceAlpha" type="matrix" values="0 0 0 0 0 0 0 0 0 0 0 0 0 0 0 0 0 0 127 0" result="hardAlpha"/>
<feOffset dy="2.76726"/>
<feGaussianBlur stdDeviation="1.1069"/>
<feColorMatrix type="matrix" values="0 0 0 0 0.482353 0 0 0 0 0.529412 0 0 0 0 0.654902 0 0 0 0.0196802 0"/>
<feBlend mode="normal" in2="BackgroundImageFix" result="effect1_dropShadow_308_131"/>
<feColorMatrix in="SourceAlpha" type="matrix" values="0 0 0 0 0 0 0 0 0 0 0 0 0 0 0 0 0 0 127 0" result="hardAlpha"/>
<feOffset dy="6.6501"/>
<feGaussianBlur stdDeviation="2.66004"/>
<feColorMatrix type="matrix" values="0 0 0 0 0.482353 0 0 0 0 0.529412 0 0 0 0 0.654902 0 0 0 0.0282725 0"/>
<feBlend mode="normal" in2="effect1_dropShadow_308_131" result="effect2_dropShadow_308_131"/>
<feColorMatrix in="SourceAlpha" type="matrix" values="0 0 0 0 0 0 0 0 0 0 0 0 0 0 0 0 0 0 127 0" result="hardAlpha"/>
<feOffset dy="12.5216"/>
<feGaussianBlur stdDeviation="5.00862"/>
<feColorMatrix type="matrix" values="0 0 0 0 0.482353 0 0 0 0 0.529412 0 0 0 0 0.654902 0 0 0 0.035 0"/>
<feBlend mode="normal" in2="effect2_dropShadow_308_131" result="effect3_dropShadow_308_131"/>
<feColorMatrix in="SourceAlpha" type="matrix" values="0 0 0 0 0 0 0 0 0 0 0 0 0 0 0 0 0 0 127 0" result="hardAlpha"/>
<feOffset dy="22.3363"/>
<feGaussianBlur stdDeviation="8.93452"/>
<feColorMatrix type="matrix" values="0 0 0 0 0.482353 0 0 0 0 0.529412 0 0 0 0 0.654902 0 0 0 0.0417275 0"/>
<feBlend mode="normal" in2="effect3_dropShadow_308_131" result="effect4_dropShadow_308_131"/>
<feColorMatrix in="SourceAlpha" type="matrix" values="0 0 0 0 0 0 0 0 0 0 0 0 0 0 0 0 0 0 127 0" result="hardAlpha"/>
<feOffset dy="41.7776"/>
<feGaussianBlur stdDeviation="16.711"/>
<feColorMatrix type="matrix" values="0 0 0 0 0.482353 0 0 0 0 0.529412 0 0 0 0 0.654902 0 0 0 0.0503198 0"/>
<feBlend mode="normal" in2="effect4_dropShadow_308_131" result="effect5_dropShadow_308_131"/>
<feColorMatrix in="SourceAlpha" type="matrix" values="0 0 0 0 0 0 0 0 0 0 0 0 0 0 0 0 0 0 127 0" result="hardAlpha"/>
<feOffset dy="100"/>
<feGaussianBlur stdDeviation="40"/>
<feColorMatrix type="matrix" values="0 0 0 0 0.482353 0 0 0 0 0.529412 0 0 0 0 0.654902 0 0 0 0.07 0"/>
<feBlend mode="normal" in2="effect5_dropShadow_308_131" result="effect6_dropShadow_308_131"/>
<feBlend mode="normal" in="SourceGraphic" in2="effect6_dropShadow_308_131" result="shape"/>
</filter>
<filter id="filter1_dddddd_308_131" x="86.1056" y="140.603" width="407.988" height="348.2" filterUnits="userSpaceOnUse" color-interpolation-filters="sRGB">
<feFlood flood-opacity="0" result="BackgroundImageFix"/>
<feColorMatrix in="SourceAlpha" type="matrix" values="0 0 0 0 0 0 0 0 0 0 0 0 0 0 0 0 0 0 127 0" result="hardAlpha"/>
<feOffset dy="2.76726"/>
<feGaussianBlur stdDeviation="1.1069"/>
<feColorMatrix type="matrix" values="0 0 0 0 0.482353 0 0 0 0 0.529412 0 0 0 0 0.654902 0 0 0 0.0196802 0"/>
<feBlend mode="normal" in2="BackgroundImageFix" result="effect1_dropShadow_308_131"/>
<feColorMatrix in="SourceAlpha" type="matrix" values="0 0 0 0 0 0 0 0 0 0 0 0 0 0 0 0 0 0 127 0" result="hardAlpha"/>
<feOffset dy="6.6501"/>
<feGaussianBlur stdDeviation="2.66004"/>
<feColorMatrix type="matrix" values="0 0 0 0 0.482353 0 0 0 0 0.529412 0 0 0 0 0.654902 0 0 0 0.0282725 0"/>
<feBlend mode="normal" in2="effect1_dropShadow_308_131" result="effect2_dropShadow_308_131"/>
<feColorMatrix in="SourceAlpha" type="matrix" values="0 0 0 0 0 0 0 0 0 0 0 0 0 0 0 0 0 0 127 0" result="hardAlpha"/>
<feOffset dy="12.5216"/>
<feGaussianBlur stdDeviation="5.00862"/>
<feColorMatrix type="matrix" values="0 0 0 0 0.482353 0 0 0 0 0.529412 0 0 0 0 0.654902 0 0 0 0.035 0"/>
<feBlend mode="normal" in2="effect2_dropShadow_308_131" result="effect3_dropShadow_308_131"/>
<feColorMatrix in="SourceAlpha" type="matrix" values="0 0 0 0 0 0 0 0 0 0 0 0 0 0 0 0 0 0 127 0" result="hardAlpha"/>
<feOffset dy="22.3363"/>
<feGaussianBlur stdDeviation="8.93452"/>
<feColorMatrix type="matrix" values="0 0 0 0 0.482353 0 0 0 0 0.529412 0 0 0 0 0.654902 0 0 0 0.0417275 0"/>
<feBlend mode="normal" in2="effect3_dropShadow_308_131" result="effect4_dropShadow_308_131"/>
<feColorMatrix in="SourceAlpha" type="matrix" values="0 0 0 0 0 0 0 0 0 0 0 0 0 0 0 0 0 0 127 0" result="hardAlpha"/>
<feOffset dy="41.7776"/>
<feGaussianBlur stdDeviation="16.711"/>
<feColorMatrix type="matrix" values="0 0 0 0 0.482353 0 0 0 0 0.529412 0 0 0 0 0.654902 0 0 0 0.0503198 0"/>
<feBlend mode="normal" in2="effect4_dropShadow_308_131" result="effect5_dropShadow_308_131"/>
<feColorMatrix in="SourceAlpha" type="matrix" values="0 0 0 0 0 0 0 0 0 0 0 0 0 0 0 0 0 0 127 0" result="hardAlpha"/>
<feOffset dy="100"/>
<feGaussianBlur stdDeviation="40"/>
<feColorMatrix type="matrix" values="0 0 0 0 0.482353 0 0 0 0 0.529412 0 0 0 0 0.654902 0 0 0 0.07 0"/>
<feBlend mode="normal" in2="effect5_dropShadow_308_131" result="effect6_dropShadow_308_131"/>
<feBlend mode="normal" in="SourceGraphic" in2="effect6_dropShadow_308_131" result="shape"/>
</filter>
</defs>
</svg>
