<svg width="579" height="540" fill="none" xmlns="http://www.w3.org/2000/svg"><mask id="a" style="mask-type:alpha" maskUnits="userSpaceOnUse" x="2" y="-1" width="298" height="270"><circle cx="4.922" cy="2.922" r="2.922" fill="#E3EDFD"/><circle cx="34.137" cy="2.921" r="2.922" fill="#E3EDFD"/><circle cx="63.353" cy="2.921" r="2.922" fill="#E3EDFD"/><circle cx="92.569" cy="2.921" r="2.922" fill="#E3EDFD"/><circle cx="121.784" cy="2.921" r="2.922" fill="#E3EDFD"/><circle cx="151" cy="2.921" r="2.922" fill="#E3EDFD"/><circle cx="180.216" cy="2.921" r="2.922" fill="#E3EDFD"/><circle cx="209.431" cy="2.921" r="2.922" fill="#E3EDFD"/><circle cx="238.647" cy="2.921" r="2.922" fill="#E3EDFD"/><circle cx="267.863" cy="2.921" r="2.922" fill="#E3EDFD"/><circle cx="297.078" cy="2.921" r="2.922" fill="#E3EDFD"/><circle cx="4.922" cy="32.137" r="2.922" fill="#E3EDFD"/><circle cx="34.137" cy="32.137" r="2.922" fill="#E3EDFD"/><circle cx="63.353" cy="32.137" r="2.922" fill="#E3EDFD"/><circle cx="92.569" cy="32.137" r="2.922" fill="#E3EDFD"/><circle cx="121.784" cy="32.137" r="2.922" fill="#E3EDFD"/><circle cx="151" cy="32.137" r="2.922" fill="#E3EDFD"/><circle cx="180.216" cy="32.137" r="2.922" fill="#E3EDFD"/><circle cx="209.431" cy="32.137" r="2.922" fill="#E3EDFD"/><circle cx="238.647" cy="32.137" r="2.922" fill="#E3EDFD"/><circle cx="267.863" cy="32.137" r="2.922" fill="#E3EDFD"/><circle cx="297.078" cy="32.137" r="2.922" fill="#E3EDFD"/><circle cx="4.922" cy="61.353" r="2.922" fill="#E3EDFD"/><circle cx="34.137" cy="61.353" r="2.922" fill="#E3EDFD"/><circle cx="63.353" cy="61.353" r="2.922" fill="#E3EDFD"/><circle cx="92.569" cy="61.353" r="2.922" fill="#E3EDFD"/><circle cx="121.784" cy="61.353" r="2.922" fill="#E3EDFD"/><circle cx="151" cy="61.353" r="2.922" fill="#E3EDFD"/><circle cx="180.216" cy="61.353" r="2.922" fill="#E3EDFD"/><circle cx="209.431" cy="61.353" r="2.922" fill="#E3EDFD"/><circle cx="238.647" cy="61.353" r="2.922" fill="#E3EDFD"/><circle cx="267.863" cy="61.353" r="2.922" fill="#E3EDFD"/><circle cx="297.078" cy="61.353" r="2.922" fill="#E3EDFD"/><circle cx="4.922" cy="90.569" r="2.922" fill="#E3EDFD"/><circle cx="34.137" cy="90.569" r="2.922" fill="#E3EDFD"/><circle cx="63.353" cy="90.569" r="2.922" fill="#E3EDFD"/><circle cx="92.569" cy="90.569" r="2.922" fill="#E3EDFD"/><circle cx="121.784" cy="90.569" r="2.922" fill="#E3EDFD"/><circle cx="151" cy="90.569" r="2.922" fill="#E3EDFD"/><circle cx="180.216" cy="90.569" r="2.922" fill="#E3EDFD"/><circle cx="209.431" cy="90.569" r="2.922" fill="#E3EDFD"/><circle cx="238.647" cy="90.569" r="2.922" fill="#E3EDFD"/><circle cx="267.863" cy="90.569" r="2.922" fill="#E3EDFD"/><circle cx="297.078" cy="90.569" r="2.922" fill="#E3EDFD"/><circle cx="4.922" cy="119.784" r="2.922" fill="#E3EDFD"/><circle cx="34.137" cy="119.784" r="2.922" fill="#E3EDFD"/><circle cx="63.353" cy="119.784" r="2.922" fill="#E3EDFD"/><circle cx="92.569" cy="119.784" r="2.922" fill="#E3EDFD"/><circle cx="121.784" cy="119.784" r="2.922" fill="#E3EDFD"/><circle cx="151" cy="119.784" r="2.922" fill="#E3EDFD"/><circle cx="180.216" cy="119.784" r="2.922" fill="#E3EDFD"/><circle cx="209.431" cy="119.784" r="2.922" fill="#E3EDFD"/><circle cx="238.647" cy="119.784" r="2.922" fill="#E3EDFD"/><circle cx="267.863" cy="119.784" r="2.922" fill="#E3EDFD"/><circle cx="297.078" cy="119.784" r="2.922" fill="#E3EDFD"/><circle cx="4.922" cy="149" r="2.922" fill="#E3EDFD"/><circle cx="34.137" cy="149" r="2.922" fill="#E3EDFD"/><circle cx="63.353" cy="149" r="2.922" fill="#E3EDFD"/><circle cx="92.569" cy="149" r="2.922" fill="#E3EDFD"/><circle cx="121.784" cy="149" r="2.922" fill="#E3EDFD"/><circle cx="151" cy="149" r="2.922" fill="#E3EDFD"/><circle cx="180.216" cy="149" r="2.922" fill="#E3EDFD"/><circle cx="209.431" cy="149" r="2.922" fill="#E3EDFD"/><circle cx="238.647" cy="149" r="2.922" fill="#E3EDFD"/><circle cx="267.863" cy="149" r="2.922" fill="#E3EDFD"/><circle cx="297.078" cy="149" r="2.922" fill="#E3EDFD"/><circle cx="4.922" cy="178.216" r="2.922" fill="#E3EDFD"/><circle cx="34.137" cy="178.216" r="2.922" fill="#E3EDFD"/><circle cx="63.353" cy="178.216" r="2.922" fill="#E3EDFD"/><circle cx="92.569" cy="178.216" r="2.922" fill="#E3EDFD"/><circle cx="121.784" cy="178.216" r="2.922" fill="#E3EDFD"/><circle cx="151" cy="178.216" r="2.922" fill="#E3EDFD"/><circle cx="180.216" cy="178.216" r="2.922" fill="#E3EDFD"/><circle cx="209.431" cy="178.216" r="2.922" fill="#E3EDFD"/><circle cx="238.647" cy="178.216" r="2.922" fill="#E3EDFD"/><circle cx="267.863" cy="178.216" r="2.922" fill="#E3EDFD"/><circle cx="297.078" cy="178.216" r="2.922" fill="#E3EDFD"/><circle cx="4.922" cy="207.431" r="2.922" fill="#E3EDFD"/><circle cx="34.137" cy="207.431" r="2.922" fill="#E3EDFD"/><circle cx="63.353" cy="207.431" r="2.922" fill="#E3EDFD"/><circle cx="92.569" cy="207.431" r="2.922" fill="#E3EDFD"/><circle cx="121.784" cy="207.431" r="2.922" fill="#E3EDFD"/><circle cx="151" cy="207.431" r="2.922" fill="#E3EDFD"/><circle cx="180.216" cy="207.431" r="2.922" fill="#E3EDFD"/><circle cx="209.431" cy="207.431" r="2.922" fill="#E3EDFD"/><circle cx="238.647" cy="207.431" r="2.922" fill="#E3EDFD"/><circle cx="267.863" cy="207.431" r="2.922" fill="#E3EDFD"/><circle cx="297.078" cy="207.431" r="2.922" fill="#E3EDFD"/><circle cx="4.922" cy="236.647" r="2.922" fill="#E3EDFD"/><circle cx="34.137" cy="236.647" r="2.922" fill="#E3EDFD"/><circle cx="63.353" cy="236.647" r="2.922" fill="#E3EDFD"/><circle cx="92.569" cy="236.647" r="2.922" fill="#E3EDFD"/><circle cx="121.784" cy="236.647" r="2.922" fill="#E3EDFD"/><circle cx="151" cy="236.647" r="2.922" fill="#E3EDFD"/><circle cx="180.216" cy="236.647" r="2.922" fill="#E3EDFD"/><circle cx="209.431" cy="236.647" r="2.922" fill="#E3EDFD"/><circle cx="238.647" cy="236.647" r="2.922" fill="#E3EDFD"/><circle cx="267.863" cy="236.647" r="2.922" fill="#E3EDFD"/><circle cx="297.078" cy="236.647" r="2.922" fill="#E3EDFD"/><circle cx="4.922" cy="265.863" r="2.922" fill="#E3EDFD"/><circle cx="34.137" cy="265.863" r="2.922" fill="#E3EDFD"/><circle cx="63.353" cy="265.863" r="2.922" fill="#E3EDFD"/><circle cx="92.569" cy="265.863" r="2.922" fill="#E3EDFD"/><circle cx="121.784" cy="265.863" r="2.922" fill="#E3EDFD"/><circle cx="151" cy="265.863" r="2.922" fill="#E3EDFD"/><circle cx="180.216" cy="265.863" r="2.922" fill="#E3EDFD"/><circle cx="209.431" cy="265.863" r="2.922" fill="#E3EDFD"/><circle cx="238.647" cy="265.863" r="2.922" fill="#E3EDFD"/><circle cx="267.863" cy="265.863" r="2.922" fill="#E3EDFD"/><circle cx="297.078" cy="265.863" r="2.922" fill="#E3EDFD"/></mask><g mask="url(#a)"><circle cx="162.023" cy="144.903" r="136.083" fill="#D6DEEC"/></g><g filter="url(#filter0_dddddd_308_131)"><path d="M111.705 116.214a5 5 0 0 1 5-5h345.576a5 5 0 0 1 5 5v219.928H111.705V116.214z" fill="#0F2C46"/><path fill="#AFC9FF" d="M121.871 123.01H458.05699999999996V325.82H121.871z"/><path d="M80.927 336.142H499v15.99a7 7 0 0 1-7 7H87.927a7 7 0 0 1-7-7v-15.99z" fill="#C4C4C4"/></g><g filter="url(#filter1_dddddd_308_131)"><path d="M166.106 177.262h247.987v124.086a7.455 7.455 0 0 1-7.455 7.455H173.561a7.455 7.455 0 0 1-7.455-7.455V177.262z" fill="#EDF1F8"/><path d="M414.094 177.262H166.106v-29.203a7.456 7.456 0 0 1 7.455-7.456h233.077a7.456 7.456 0 0 1 7.456 7.456v29.203z" fill="#0D36C7"/><circle cx="185.075" cy="157.592" r="2.796" fill="#fff"/><circle cx="194.394" cy="157.592" r="2.796" fill="#fff"/><circle cx="203.714" cy="157.592" r="2.796" fill="#fff"/></g><path opacity=".62" d="M250.512 245.293c.113-.912.198-1.824.198-2.793 0-.969-.085-1.881-.198-2.793l5.965-4.702c.537-.428.679-1.197.339-1.824l-5.654-9.861c-.339-.627-1.102-.855-1.724-.627l-7.04 2.85a20.588 20.588 0 0 0-4.778-2.793l-1.074-7.553a1.39 1.39 0 0 0-.469-.862 1.368 1.368 0 0 0-.916-.335h-11.309c-.707 0-1.301.513-1.385 1.197l-1.075 7.553c-1.724.712-3.307 1.681-4.778 2.793l-7.039-2.85c-.65-.257-1.385 0-1.725.627l-5.654 9.861a1.412 1.412 0 0 0 .339 1.824l5.966 4.702a22.61 22.61 0 0 0-.198 2.793c0 .941.084 1.881.198 2.793l-5.966 4.703c-.537.427-.678 1.197-.339 1.824l5.654 9.861c.34.627 1.103.855 1.725.627l7.039-2.85a20.665 20.665 0 0 0 4.778 2.793l1.075 7.552c.084.684.678 1.197 1.385 1.197h11.309c.706 0 1.3-.513 1.385-1.197l1.074-7.552c1.725-.713 3.308-1.682 4.778-2.793l7.04 2.85c.65.256 1.385 0 1.724-.627l5.654-9.861c.34-.627.198-1.397-.339-1.824l-5.965-4.703zm-21.006 7.182c-5.456 0-9.895-4.474-9.895-9.975 0-5.5 4.439-9.975 9.895-9.975 5.457 0 9.895 4.475 9.895 9.975 0 5.501-4.438 9.975-9.895 9.975z" fill="#D7E2FA"/><path d="M302.742 246.077c.144-1.168.252-2.336.252-3.577s-.108-2.409-.252-3.577l7.593-6.022c.683-.548.863-1.533.431-2.336l-7.196-12.629c-.432-.803-1.403-1.095-2.195-.803l-8.959 3.65c-1.871-1.46-3.886-2.665-6.081-3.577l-1.368-9.673a1.783 1.783 0 0 0-.596-1.104 1.74 1.74 0 0 0-1.167-.429h-14.392c-.9 0-1.656.657-1.764 1.533l-1.367 9.673c-2.195.912-4.21 2.153-6.081 3.577l-8.959-3.65a1.743 1.743 0 0 0-2.195.803l-7.197 12.629a1.819 1.819 0 0 0 .432 2.336l7.592 6.022c-.144 1.168-.251 2.373-.251 3.577 0 1.205.107 2.409.251 3.577l-7.592 6.023c-.683.547-.863 1.533-.432 2.336l7.197 12.629c.432.803 1.403 1.095 2.195.803l8.959-3.65a26.216 26.216 0 0 0 6.081 3.577l1.367 9.672a1.763 1.763 0 0 0 1.764 1.533h14.392c.9 0 1.655-.657 1.763-1.533l1.368-9.672c2.195-.913 4.21-2.154 6.081-3.577l8.959 3.65c.828.328 1.763 0 2.195-.803l7.196-12.629c.432-.803.252-1.789-.431-2.336l-7.593-6.023zm-26.734 9.198c-6.945 0-12.594-5.73-12.594-12.775 0-7.044 5.649-12.775 12.594-12.775 6.944 0 12.594 5.731 12.594 12.775 0 7.045-5.65 12.775-12.594 12.775z" fill="#D7E2FA"/><path d="M365.973 246.763c.175-1.392.306-2.784.306-4.263s-.131-2.871-.306-4.263l9.219-7.177c.83-.653 1.049-1.827.524-2.784l-8.738-15.051c-.524-.957-1.704-1.305-2.665-.957l-10.88 4.35c-2.272-1.74-4.718-3.176-7.384-4.263l-1.66-11.528a2.118 2.118 0 0 0-.724-1.316 2.14 2.14 0 0 0-1.417-.511h-17.477c-1.092 0-2.01.783-2.141 1.827l-1.66 11.528c-2.665 1.087-5.112 2.566-7.384 4.263l-10.879-4.35a2.136 2.136 0 0 0-2.666.957l-8.738 15.051a2.139 2.139 0 0 0 .524 2.784l9.219 7.177c-.174 1.392-.306 2.828-.306 4.263 0 1.436.132 2.871.306 4.263l-9.219 7.178c-.83.652-1.048 1.827-.524 2.784l8.738 15.051c.525.957 1.704 1.305 2.666.957l10.879-4.35c2.272 1.74 4.719 3.175 7.384 4.263l1.66 11.527c.131 1.044 1.049 1.827 2.141 1.827h17.477c1.092 0 2.01-.783 2.141-1.827l1.66-11.527c2.666-1.088 5.112-2.567 7.384-4.263l10.88 4.35c1.005.391 2.141 0 2.665-.957l8.738-15.051c.525-.957.306-2.132-.524-2.784l-9.219-7.178zm-32.463 10.962c-8.433 0-15.293-6.829-15.293-15.225 0-8.395 6.86-15.225 15.293-15.225 8.432 0 15.292 6.83 15.292 15.225 0 8.396-6.86 15.225-15.292 15.225z" fill="#AFC9FF"/><defs><filter id="filter0_dddddd_308_131" x=".927" y="111.214" width="578.073" height="427.918" filterUnits="userSpaceOnUse" color-interpolation-filters="sRGB"><feFlood flood-opacity="0" result="BackgroundImageFix"/><feColorMatrix in="SourceAlpha" values="0 0 0 0 0 0 0 0 0 0 0 0 0 0 0 0 0 0 127 0" result="hardAlpha"/><feOffset dy="2.767"/><feGaussianBlur stdDeviation="1.107"/><feColorMatrix values="0 0 0 0 0.482353 0 0 0 0 0.529412 0 0 0 0 0.654902 0 0 0 0.0196802 0"/><feBlend in2="BackgroundImageFix" result="effect1_dropShadow_308_131"/><feColorMatrix in="SourceAlpha" values="0 0 0 0 0 0 0 0 0 0 0 0 0 0 0 0 0 0 127 0" result="hardAlpha"/><feOffset dy="6.65"/><feGaussianBlur stdDeviation="2.66"/><feColorMatrix values="0 0 0 0 0.482353 0 0 0 0 0.529412 0 0 0 0 0.654902 0 0 0 0.0282725 0"/><feBlend in2="effect1_dropShadow_308_131" result="effect2_dropShadow_308_131"/><feColorMatrix in="SourceAlpha" values="0 0 0 0 0 0 0 0 0 0 0 0 0 0 0 0 0 0 127 0" result="hardAlpha"/><feOffset dy="12.522"/><feGaussianBlur stdDeviation="5.009"/><feColorMatrix values="0 0 0 0 0.482353 0 0 0 0 0.529412 0 0 0 0 0.654902 0 0 0 0.035 0"/><feBlend in2="effect2_dropShadow_308_131" result="effect3_dropShadow_308_131"/><feColorMatrix in="SourceAlpha" values="0 0 0 0 0 0 0 0 0 0 0 0 0 0 0 0 0 0 127 0" result="hardAlpha"/><feOffset dy="22.336"/><feGaussianBlur stdDeviation="8.935"/><feColorMatrix values="0 0 0 0 0.482353 0 0 0 0 0.529412 0 0 0 0 0.654902 0 0 0 0.0417275 0"/><feBlend in2="effect3_dropShadow_308_131" result="effect4_dropShadow_308_131"/><feColorMatrix in="SourceAlpha" values="0 0 0 0 0 0 0 0 0 0 0 0 0 0 0 0 0 0 127 0" result="hardAlpha"/><feOffset dy="41.778"/><feGaussianBlur stdDeviation="16.711"/><feColorMatrix values="0 0 0 0 0.482353 0 0 0 0 0.529412 0 0 0 0 0.654902 0 0 0 0.0503198 0"/><feBlend in2="effect4_dropShadow_308_131" result="effect5_dropShadow_308_131"/><feColorMatrix in="SourceAlpha" values="0 0 0 0 0 0 0 0 0 0 0 0 0 0 0 0 0 0 127 0" result="hardAlpha"/><feOffset dy="100"/><feGaussianBlur stdDeviation="40"/><feColorMatrix values="0 0 0 0 0.482353 0 0 0 0 0.529412 0 0 0 0 0.654902 0 0 0 0.07 0"/><feBlend in2="effect5_dropShadow_308_131" result="effect6_dropShadow_308_131"/><feBlend in="SourceGraphic" in2="effect6_dropShadow_308_131" result="shape"/></filter><filter id="filter1_dddddd_308_131" x="86.106" y="140.603" width="407.988" height="348.2" filterUnits="userSpaceOnUse" color-interpolation-filters="sRGB"><feFlood flood-opacity="0" result="BackgroundImageFix"/><feColorMatrix in="SourceAlpha" values="0 0 0 0 0 0 0 0 0 0 0 0 0 0 0 0 0 0 127 0" result="hardAlpha"/><feOffset dy="2.767"/><feGaussianBlur stdDeviation="1.107"/><feColorMatrix values="0 0 0 0 0.482353 0 0 0 0 0.529412 0 0 0 0 0.654902 0 0 0 0.0196802 0"/><feBlend in2="BackgroundImageFix" result="effect1_dropShadow_308_131"/><feColorMatrix in="SourceAlpha" values="0 0 0 0 0 0 0 0 0 0 0 0 0 0 0 0 0 0 127 0" result="hardAlpha"/><feOffset dy="6.65"/><feGaussianBlur stdDeviation="2.66"/><feColorMatrix values="0 0 0 0 0.482353 0 0 0 0 0.529412 0 0 0 0 0.654902 0 0 0 0.0282725 0"/><feBlend in2="effect1_dropShadow_308_131" result="effect2_dropShadow_308_131"/><feColorMatrix in="SourceAlpha" values="0 0 0 0 0 0 0 0 0 0 0 0 0 0 0 0 0 0 127 0" result="hardAlpha"/><feOffset dy="12.522"/><feGaussianBlur stdDeviation="5.009"/><feColorMatrix values="0 0 0 0 0.482353 0 0 0 0 0.529412 0 0 0 0 0.654902 0 0 0 0.035 0"/><feBlend in2="effect2_dropShadow_308_131" result="effect3_dropShadow_308_131"/><feColorMatrix in="SourceAlpha" values="0 0 0 0 0 0 0 0 0 0 0 0 0 0 0 0 0 0 127 0" result="hardAlpha"/><feOffset dy="22.336"/><feGaussianBlur stdDeviation="8.935"/><feColorMatrix values="0 0 0 0 0.482353 0 0 0 0 0.529412 0 0 0 0 0.654902 0 0 0 0.0417275 0"/><feBlend in2="effect3_dropShadow_308_131" result="effect4_dropShadow_308_131"/><feColorMatrix in="SourceAlpha" values="0 0 0 0 0 0 0 0 0 0 0 0 0 0 0 0 0 0 127 0" result="hardAlpha"/><feOffset dy="41.778"/><feGaussianBlur stdDeviation="16.711"/><feColorMatrix values="0 0 0 0 0.482353 0 0 0 0 0.529412 0 0 0 0 0.654902 0 0 0 0.0503198 0"/><feBlend in2="effect4_dropShadow_308_131" result="effect5_dropShadow_308_131"/><feColorMatrix in="SourceAlpha" values="0 0 0 0 0 0 0 0 0 0 0 0 0 0 0 0 0 0 127 0" result="hardAlpha"/><feOffset dy="100"/><feGaussianBlur stdDeviation="40"/><feColorMatrix values="0 0 0 0 0.482353 0 0 0 0 0.529412 0 0 0 0 0.654902 0 0 0 0.07 0"/><feBlend in2="effect5_dropShadow_308_131" result="effect6_dropShadow_308_131"/><feBlend in="SourceGraphic" in2="effect6_dropShadow_308_131" result="shape"/></filter></defs></svg>