<svg width="24" height="24" viewBox="0 0 24 24" xmlns="http://www.w3.org/2000/svg">
<path fill-rule="evenodd" clip-rule="evenodd" d="M12 22.5C17.799 22.5 22.5 17.799 22.5 12C22.5 6.20101 17.799 1.5 12 1.5C6.20101 1.5 1.5 6.20101 1.5 12C1.5 17.799 6.20101 22.5 12 22.5ZM12 24C18.6274 24 24 18.6274 24 12C24 5.37258 18.6274 0 12 0C5.37258 0 0 5.37258 0 12C0 18.6274 5.37258 24 12 24Z"/>
<path fill-rule="evenodd" clip-rule="evenodd" d="M18.5529 9.09331C18.8328 9.39865 18.8122 9.87307 18.5069 10.153L10.7775 17.2382L6.66974 13.1304C6.37685 12.8375 6.37685 12.3627 6.66974 12.0698C6.96264 11.7769 7.43751 11.7769 7.7304 12.0698L10.8226 15.162L17.4933 9.04724C17.7986 8.76734 18.273 8.78797 18.5529 9.09331Z"/>
</svg>
