<svg width="24" height="24" viewBox="0 0 24 24" xmlns="http://www.w3.org/2000/svg">
<path fill-rule="evenodd" clip-rule="evenodd" d="M4.84859 4.70711C5.23912 4.31658 5.87228 4.31658 6.26281 4.70711L18.8486 17.2929C19.2391 17.6834 19.2391 18.3166 18.8486 18.7071C18.4581 19.0976 17.8249 19.0976 17.4344 18.7071L4.84859 6.12132C4.45807 5.7308 4.45807 5.09763 4.84859 4.70711Z"/>
<path fill-rule="evenodd" clip-rule="evenodd" d="M4.70711 18.7071C4.31658 18.3166 4.31658 17.6834 4.70711 17.2929L17.2929 4.70711C17.6834 4.31658 18.3166 4.31658 18.7071 4.70711C19.0976 5.09763 19.0976 5.7308 18.7071 6.12132L6.12132 18.7071C5.7308 19.0976 5.09763 19.0976 4.70711 18.7071Z"/>
</svg>
