<svg width="24" height="24" xmlns="http://www.w3.org/2000/svg"><path d="M11.498 9.999a2.506 2.506 0 0 0-2.5 2.501 2.506 2.506 0 0 0 2.5 2.501A2.506 2.506 0 0 0 14 12.5a2.506 2.506 0 0 0-2.5-2.501zM19 12.5c0-1.036.01-2.062-.048-3.096-.059-1.2-.332-2.266-1.21-3.144-.88-.88-1.944-1.152-3.145-1.21C13.56 4.99 12.534 5 11.5 5c-1.036 0-2.062-.009-3.096.05-1.2.058-2.266.331-3.144 1.21-.88.88-1.152 1.943-1.21 3.144C3.99 10.44 4 11.466 4 12.5c0 1.034-.009 2.062.05 3.096.058 1.2.331 2.266 1.21 3.145.88.88 1.943 1.151 3.144 1.21 1.036.058 2.062.048 3.096.048 1.036 0 2.062.01 3.096-.048 1.2-.059 2.266-.332 3.145-1.21.88-.88 1.151-1.944 1.21-3.145.06-1.034.048-2.06.048-3.096zm-7.5 3.848a3.843 3.843 0 0 1-3.85-3.848 3.843 3.843 0 0 1 3.85-3.848 3.843 3.843 0 0 1 3.847 3.848 3.843 3.843 0 0 1-3.848 3.848zm4.005-6.955a.898.898 0 1 1 0-1.798.898.898 0 1 1 0 1.798z"/></svg>